<?xml version="1.0" encoding="UTF-8" standalone="no"?>
<!-- Created with Inkscape (http://www.inkscape.org/) -->

<svg
   xmlns:dc="http://purl.org/dc/elements/1.1/"
   xmlns:cc="http://creativecommons.org/ns#"
   xmlns:rdf="http://www.w3.org/1999/02/22-rdf-syntax-ns#"
   xmlns:svg="http://www.w3.org/2000/svg"
   xmlns="http://www.w3.org/2000/svg"
   xmlns:xlink="http://www.w3.org/1999/xlink"
   xmlns:sodipodi="http://sodipodi.sourceforge.net/DTD/sodipodi-0.dtd"
   xmlns:inkscape="http://www.inkscape.org/namespaces/inkscape"
   width="1052.3622"
   height="744.09448"
   id="svg2"
   version="1.1"
   inkscape:version="0.48.5 r10040"
   sodipodi:docname="homeCasetteDis.svg">
  <defs
     id="defs4">
    <linearGradient
       id="linearGradient4600">
      <stop
         id="stop4602"
         offset="0"
         style="stop-color:#ffdbaa;stop-opacity:0.19607843;" />
      <stop
         style="stop-color:#d4a76a;stop-opacity:0.29285714;"
         offset="0.48717284"
         id="stop4604" />
      <stop
         style="stop-color:#ffdbaa;stop-opacity:0.19607843;"
         offset="1"
         id="stop4606" />
    </linearGradient>
    <linearGradient
       id="linearGradient4514">
      <stop
         style="stop-color:#ffdbaa;stop-opacity:0.39285713;"
         offset="0"
         id="stop4516" />
      <stop
         id="stop4522"
         offset="0.5"
         style="stop-color:#d4a76a;stop-opacity:0.39285713;" />
      <stop
         style="stop-color:#ffdbaa;stop-opacity:0.39285713;"
         offset="1"
         id="stop4518" />
    </linearGradient>
    <linearGradient
       id="linearGradient4498">
      <stop
         style="stop-color:#553100;stop-opacity:1;"
         offset="0"
         id="stop4500" />
      <stop
         style="stop-color:#805215;stop-opacity:1;"
         offset="1"
         id="stop4502" />
    </linearGradient>
    <linearGradient
       id="linearGradient4490">
      <stop
         style="stop-color:#553100;stop-opacity:1;"
         offset="0"
         id="stop4492" />
      <stop
         style="stop-color:#805215;stop-opacity:1;"
         offset="1"
         id="stop4494" />
    </linearGradient>
    <linearGradient
       id="linearGradient4482">
      <stop
         style="stop-color:#ffdbaa;stop-opacity:0.29285714;"
         offset="0"
         id="stop4484" />
      <stop
         id="stop4610"
         offset="0.5"
         style="stop-color:#bf965f;stop-opacity:1;" />
      <stop
         style="stop-color:#ffdbaa;stop-opacity:0.25714287;"
         offset="1"
         id="stop4486" />
    </linearGradient>
    <linearGradient
       id="linearGradient4456">
      <stop
         style="stop-color:#d4aa71;stop-opacity:1;"
         offset="0"
         id="stop4458" />
      <stop
         id="stop4460"
         offset="0.55979145"
         style="stop-color:#c99d63;stop-opacity:1;" />
      <stop
         id="stop4462"
         offset="1"
         style="stop-color:#bf9155;stop-opacity:1;" />
    </linearGradient>
    <linearGradient
       id="linearGradient4438">
      <stop
         style="stop-color:#805215;stop-opacity:1;"
         offset="0"
         id="stop4452" />
      <stop
         style="stop-color:#d4a76a;stop-opacity:1;"
         offset="1"
         id="stop4450" />
    </linearGradient>
    <inkscape:perspective
       sodipodi:type="inkscape:persp3d"
       inkscape:vp_x="297.14285 : 43.475813 : 1"
       inkscape:vp_y="0 : 1000 : 0"
       inkscape:vp_z="1349.505 : 43.475813 : 1"
       inkscape:persp3d-origin="823.32394 : -80.539937 : 1"
       id="perspective4341" />
    <radialGradient
       inkscape:collect="always"
       xlink:href="#linearGradient4456"
       id="radialGradient4454"
       gradientUnits="userSpaceOnUse"
       gradientTransform="matrix(0.00689156,1.2314519,-1.245506,0.00697034,509.77534,118.6273)"
       cx="-5.1608324"
       cy="-17.773468"
       fx="-5.1608324"
       fy="-17.773468"
       r="399.98438" />
    <radialGradient
       inkscape:collect="always"
       xlink:href="#linearGradient4490"
       id="radialGradient4496"
       cx="439.66348"
       cy="435.33246"
       fx="439.66348"
       fy="435.33246"
       r="162.61833"
       gradientTransform="matrix(-0.02085657,1.3669315,-1.0195805,-0.0155567,816.68126,-248.12319)"
       gradientUnits="userSpaceOnUse" />
    <radialGradient
       inkscape:collect="always"
       xlink:href="#linearGradient4498"
       id="radialGradient4504"
       cx="701.04584"
       cy="344.07977"
       fx="701.04584"
       fy="344.07977"
       r="106.57911"
       gradientTransform="matrix(-0.00783688,1.2322343,-1.1667959,-0.00742069,1108.0107,-517.22529)"
       gradientUnits="userSpaceOnUse" />
    <linearGradient
       inkscape:collect="always"
       xlink:href="#linearGradient4514"
       id="linearGradient4520"
       x1="540"
       y1="164.09448"
       x2="541.42853"
       y2="265.52307"
       gradientUnits="userSpaceOnUse" />
    <linearGradient
       inkscape:collect="always"
       xlink:href="#linearGradient4514-8"
       id="linearGradient4520-5"
       x1="540"
       y1="164.09448"
       x2="541.42853"
       y2="265.52307"
       gradientUnits="userSpaceOnUse" />
    <linearGradient
       id="linearGradient4514-8">
      <stop
         style="stop-color:#ffdbaa;stop-opacity:0.39285713;"
         offset="0"
         id="stop4516-8" />
      <stop
         id="stop4522-1"
         offset="0.5"
         style="stop-color:#d4a76a;stop-opacity:0.39285713;" />
      <stop
         style="stop-color:#ffdbaa;stop-opacity:0.39285713;"
         offset="1"
         id="stop4518-2" />
    </linearGradient>
    <linearGradient
       gradientTransform="matrix(1.0002464,0,0,0.65810481,0.54964336,606.63613)"
       y2="265.52307"
       x2="541.42853"
       y1="164.09448"
       x1="540"
       gradientUnits="userSpaceOnUse"
       id="linearGradient4540"
       xlink:href="#linearGradient4514-8"
       inkscape:collect="always" />
    <radialGradient
       inkscape:collect="always"
       xlink:href="#linearGradient4456-9"
       id="radialGradient4454-4"
       gradientUnits="userSpaceOnUse"
       gradientTransform="matrix(0.00689156,1.2314519,-1.245506,0.00697034,509.77534,118.6273)"
       cx="-5.1608324"
       cy="-17.773468"
       fx="-5.1608324"
       fy="-17.773468"
       r="399.98438" />
    <linearGradient
       id="linearGradient4456-9">
      <stop
         style="stop-color:#d4aa71;stop-opacity:1;"
         offset="0"
         id="stop4458-8" />
      <stop
         id="stop4460-2"
         offset="0.55979145"
         style="stop-color:#c99d63;stop-opacity:1;" />
      <stop
         id="stop4462-4"
         offset="1"
         style="stop-color:#bf9155;stop-opacity:1;" />
    </linearGradient>
    <linearGradient
       inkscape:collect="always"
       xlink:href="#linearGradient4482"
       id="linearGradient4608"
       x1="521.74109"
       y1="445.6918"
       x2="522.13843"
       y2="872.83466"
       gradientUnits="userSpaceOnUse" />
  </defs>
  <sodipodi:namedview
     id="base"
     pagecolor="#ffffff"
     bordercolor="#666666"
     borderopacity="1.0"
     inkscape:pageopacity="0.0"
     inkscape:pageshadow="2"
     inkscape:zoom="0.7"
     inkscape:cx="527.18029"
     inkscape:cy="365.6731"
     inkscape:document-units="px"
     inkscape:current-layer="layer1"
     showgrid="false"
     showguides="false"
     inkscape:guide-bbox="true"
     inkscape:snap-global="false"
     inkscape:window-width="1366"
     inkscape:window-height="705"
     inkscape:window-x="-8"
     inkscape:window-y="-8"
     inkscape:window-maximized="1">
    <sodipodi:guide
       orientation="-0.70710678,0.70710678"
       position="428.30468,274.76149"
       id="guide2985" />
    <sodipodi:guide
       orientation="0,1"
       position="270.72088,634.3758"
       id="guide2987" />
    <sodipodi:guide
       orientation="0,1"
       position="1040,131.42857"
       id="guide2989" />
    <sodipodi:guide
       orientation="1,0"
       position="127.85714,739.28572"
       id="guide2991" />
    <sodipodi:guide
       orientation="1,0"
       position="943.48248,917.21851"
       id="guide2993" />
    <sodipodi:guide
       orientation="0.70710678,0.70710678"
       position="731.35044,185.86807"
       id="guide3769" />
    <sodipodi:guide
       orientation="1,0"
       position="282.85714,646.60714"
       id="guide3112" />
    <sodipodi:guide
       orientation="1,0"
       position="787.91898,650.03316"
       id="guide3114" />
  </sodipodi:namedview>
  <metadata
     id="metadata7">
    <rdf:RDF>
      <cc:Work
         rdf:about="">
        <dc:format>image/svg+xml</dc:format>
        <dc:type
           rdf:resource="http://purl.org/dc/dcmitype/StillImage" />
        <dc:title></dc:title>
      </cc:Work>
    </rdf:RDF>
  </metadata>
  <g
     inkscape:label="Capa 1"
     inkscape:groupmode="layer"
     id="layer1"
     transform="translate(0,-308.2677)">
    <rect
       style="fill:#553100;fill-opacity:1;stroke:#000000;stroke-opacity:1"
       id="rect4539-7"
       width="50"
       height="50"
       x="-232.20564"
       y="429.35184"
       inkscape:export-filename="C:\S4L\VM\default\s4l\layout\inkscape\export\homeCassette.png"
       inkscape:export-xdpi="78.753075"
       inkscape:export-ydpi="78.753075" />
    <rect
       style="fill:#ffdbaa;fill-opacity:1;stroke:#000000;stroke-opacity:1"
       id="rect4539-4"
       width="50"
       height="50"
       x="-232.20564"
       y="507.37784"
       inkscape:export-filename="C:\S4L\VM\default\s4l\layout\inkscape\export\homeCassette.png"
       inkscape:export-xdpi="78.753075"
       inkscape:export-ydpi="78.753075" />
    <rect
       style="fill:#d4a76a;fill-opacity:1;stroke:#000000;stroke-opacity:1"
       id="rect4539-0"
       width="50"
       height="50"
       x="-232.20564"
       y="585.40375"
       inkscape:export-filename="C:\S4L\VM\default\s4l\layout\inkscape\export\homeCassette.png"
       inkscape:export-xdpi="78.753075"
       inkscape:export-ydpi="78.753075" />
    <rect
       style="fill:#805215;fill-opacity:1;stroke:#000000;stroke-opacity:1"
       id="rect4539-9"
       width="50"
       height="50"
       x="-232.20564"
       y="663.42975"
       inkscape:export-filename="C:\S4L\VM\default\s4l\layout\inkscape\export\homeCassette.png"
       inkscape:export-xdpi="78.753075"
       inkscape:export-ydpi="78.753075" />
    <rect
       style="fill:#aa7939;fill-opacity:1;stroke:#000000;stroke-opacity:1"
       id="rect4539-48"
       width="50"
       height="50"
       x="-232.20564"
       y="741.45569"
       inkscape:export-filename="C:\S4L\VM\default\s4l\layout\inkscape\export\homeCassette.png"
       inkscape:export-xdpi="78.753075"
       inkscape:export-ydpi="78.753075" />
    <path
       style="fill:url(#radialGradient4454);fill-opacity:1;stroke:#000000;stroke-width:1px;stroke-linecap:butt;stroke-linejoin:miter;stroke-opacity:1"
       d="M 193.5625,109.8125 167.15625,111.25 150,112.65625 l -8.5625,10 -4.28125,11.4375 -1.4375,300 -4.40625,3.9375 -1,124.75 6.0625,6.5625 -1,20.1875 15.125,16.1875 110.125,-2.03125 8.0625,6.0625 525.28125,1 9.59375,-6.65625 102.15625,0.71875 18.5625,-17.15625 -0.71875,-20 5.71875,-5 -2.84375,-127.125 -5,-4.28125 L 919.28125,129.8125 902.84375,111.25 865,111.9375 l -1.4375,4.3125 -2.125,1.40625 L 860,113.375 l -37.15625,0 -0.6875,4.28125 -2.875,1.4375 -0.71875,-8.5625 -577.125,1.40625 -1.4375,4.3125 0,1.40625 -2.84375,-3.5625 -37.875,0.71875 0,2.84375 -3.5625,1.4375 -2.15625,-9.28125 z M 363.15625,273.375 c 35.42613,0 64.125,29.17223 64.125,65.15625 0,35.98402 -28.69887,65.15625 -64.125,65.15625 C 327.73012,403.6875 299,374.51527 299,338.53125 299,302.54723 327.73012,273.375 363.15625,273.375 z m 332.5625,15 c 30.77015,0 55.71875,25.92138 55.71875,57.875 0,31.95362 -24.9486,57.84375 -55.71875,57.84375 C 664.9486,404.09375 640,378.20362 640,346.25 c 0,-31.95362 24.9486,-57.875 55.71875,-57.875 z M 637.25,549.3125 c 4.61768,-0.0147 9.55489,0.67072 13.65625,1.90625 l 1.21875,25.1875 c -9.89354,5.50511 -28.2593,4.69499 -28.875,-3.03125 l 0,-20.1875 c 2.61292,-2.66883 8.06298,-3.85613 14,-3.875 z m -216.59375,2.34375 c 3.1483,-0.004 6.97601,0.12377 11.6875,0.5 3.66295,17.06343 1.36243,17.48492 0.25,26.21875 -9.74438,2.54085 -25.81704,2.16713 -28.53125,-0.96875 0.60216,-8.00995 -0.26561,-14.51411 2.03125,-24.21875 1.89458,-0.18946 5.1176,-1.51798 14.5625,-1.53125 z m -81.25,6.5625 c 15.44329,3.15484 17.33529,5.71613 19.90625,17.90625 0.68831,14.79057 -6.873,22.45849 -19.90625,22.5 -11.80723,-5.03204 -12.00628,-5.01884 -15.9375,-16.8125 0.2471,-15.6723 3.17181,-17.2223 15.9375,-23.59375 z m 373.75,1.03125 c 19.58113,0.30025 22.53265,7.23518 24.25,24.21875 -2.59917,9.38854 -6.18583,11.86214 -12.125,14.15625 -16.97389,0.4311 -21.68213,-3.40955 -25.25,-14.15625 -0.89444,-15.95614 0.79838,-20.81443 13.125,-24.21875 z"
       id="path4012"
       transform="translate(0,308.2677)"
       inkscape:connector-curvature="0"
       inkscape:export-filename="C:\S4L\VM\default\s4l\layout\inkscape\export\homeCassette.png"
       inkscape:export-xdpi="78.753075"
       inkscape:export-ydpi="78.753075" />
    <path
       style="fill:none;stroke:#000000;stroke-width:1px;stroke-linecap:butt;stroke-linejoin:miter;stroke-opacity:1"
       d="m 432.34529,552.1655 c -18.84596,-1.50491 -23.73786,0.75754 -26.26397,1.01015 -2.29686,9.70464 -1.41814,16.23371 -2.0203,24.24366 2.71421,3.13588 18.77448,3.48973 28.51886,0.94888 1.11243,-8.73383 3.42836,-9.13926 -0.23459,-26.20269 z"
       id="path4016"
       inkscape:connector-curvature="0"
       transform="translate(0,308.2677)"
       sodipodi:nodetypes="ccccc"
       inkscape:export-filename="C:\S4L\VM\default\s4l\layout\inkscape\export\homeCassette.png"
       inkscape:export-xdpi="78.753075"
       inkscape:export-ydpi="78.753075" />
    <path
       style="fill:none;stroke:#000000;stroke-width:1px;stroke-linecap:butt;stroke-linejoin:miter;stroke-opacity:1"
       d="m 650.89537,551.21663 1.24475,25.19253 c -9.89354,5.50511 -28.2603,4.69578 -28.876,-3.03046 l 0,-20.20305 c 4.64519,-4.74458 18.25671,-4.78308 27.63125,-1.95902 z"
       id="path4018"
       inkscape:connector-curvature="0"
       transform="translate(0,308.2677)"
       sodipodi:nodetypes="ccccc"
       inkscape:export-filename="C:\S4L\VM\default\s4l\layout\inkscape\export\homeCassette.png"
       inkscape:export-xdpi="78.753075"
       inkscape:export-ydpi="78.753075" />
    <path
       style="fill:none;stroke:#000000;stroke-width:1px;stroke-linecap:butt;stroke-linejoin:miter;stroke-opacity:1"
       d="m 713.16769,559.23657 c 19.58113,0.30025 22.52631,7.26009 24.24366,24.24366 -2.59917,9.38854 -6.18266,11.84802 -12.12183,14.14213 -16.97389,0.4311 -21.68594,-3.39543 -25.25381,-14.14213 -0.89444,-15.95614 0.80536,-20.83934 13.13198,-24.24366 z"
       id="path4020"
       inkscape:connector-curvature="0"
       transform="translate(0,308.2677)"
       sodipodi:nodetypes="ccccc"
       inkscape:export-filename="C:\S4L\VM\default\s4l\layout\inkscape\export\homeCassette.png"
       inkscape:export-xdpi="78.753075"
       inkscape:export-ydpi="78.753075" />
    <path
       style="fill:none;stroke:#000000;stroke-width:1px;stroke-linecap:butt;stroke-linejoin:miter;stroke-opacity:1"
       d="m 339.41125,558.22642 c 15.44329,3.15484 17.33623,5.69676 19.90719,17.88688 0.68831,14.79057 -6.87394,22.47771 -19.90719,22.51922 -11.80723,-5.03204 -11.99662,-5.0218 -15.92784,-16.81546 0.2471,-15.6723 3.16215,-17.21919 15.92784,-23.59064 z"
       id="path4022"
       inkscape:connector-curvature="0"
       transform="translate(0,308.2677)"
       sodipodi:nodetypes="ccccc"
       inkscape:export-filename="C:\S4L\VM\default\s4l\layout\inkscape\export\homeCassette.png"
       inkscape:export-xdpi="78.753075"
       inkscape:export-ydpi="78.753075" />
    <g
       id="g4681"
       inkscape:export-filename="C:\S4L\VM\default\s4l\layout\inkscape\export\homeCassetteLeftDisabled.png"
       inkscape:export-xdpi="78.753075"
       inkscape:export-ydpi="78.753075">
      <path
         inkscape:export-ydpi="78.753075"
         inkscape:export-xdpi="78.753075"
         inkscape:export-filename="C:\S4L\VM\default\s4l\layout\inkscape\export\homeCassetteLeft.png"
         inkscape:connector-curvature="0"
         id="path4036-0"
         transform="translate(0,308.2677)"
         d="m 356.25,175.90625 c -62.67233,0.4214 -94.12044,38.12516 -132,79.8125 -40.51222,74.57739 -20.06455,160.32739 32.09375,210.53125 37.76401,30.89859 74.72153,34.25314 121.21875,40.40625 56.57669,-8.26272 75.80379,-29.72125 111.09375,-56.5625 30.05284,-33.08952 33.79243,-61.7696 38.40625,-104.03125 0.5917,-83.06061 -51.44941,-138.924 -116.1875,-162.65625 -20.65886,-5.28819 -38.6497,-7.60742 -54.625,-7.5 z m 11.9375,104.53125 c 31.52089,0 57.09375,26.45708 57.09375,59.09375 0,32.63667 -25.57286,59.09375 -57.09375,59.09375 -31.52089,0 -57.0625,-26.45708 -57.0625,-59.09375 0,-32.63667 25.54161,-59.09375 57.0625,-59.09375 z"
         style="fill:url(#radialGradient4496);fill-opacity:1;stroke:#000000;stroke-width:1px;stroke-linecap:butt;stroke-linejoin:miter;stroke-opacity:1" />
      <g
         inkscape:export-ydpi="78.753075"
         inkscape:export-xdpi="78.753075"
         inkscape:export-filename="C:\S4L\VM\default\s4l\layout\inkscape\export\homeCassetteLeft.png"
         id="g4669">
        <path
           id="path4060"
           transform="translate(0,308.2677)"
           style="fill:#ffdbaa;stroke:#000000;stroke-width:1px;stroke-linecap:butt;stroke-linejoin:miter;stroke-opacity:1"
           d="m 366.6875,303.65625 c 14.03027,2.77177 14.77208,3.67833 24.25,13.15625 l -6.0625,5.03125 4.40625,8.03125 L 398,325.90625 c 5.80219,10.14942 4.77938,16.02804 4.03125,27.25 l -8.5,-2.3125 -3.625,7.375 7.375,5.40625 c -9.21295,13.56968 -9.21738,12.70924 -23.53125,18.84375 l -2.0625,-8.09375 -8.03125,1 -1.125,8.09375 c -15.73716,0.36152 -16.6581,-2.90591 -28.15625,-12.125 l 8.0625,-7.0625 -6.0625,-7.375 -8.65625,5.28125 c -2.5712,-10.13847 -2.98619,-18.15226 -1.4375,-28.21875 l 8.78125,1.3125 3.625,-9.34375 -7.34375,-4.09375 c 5.97466,-7.9662 13.47906,-11.12254 22.21875,-15.15625 l 2.71875,8.375 9.34375,-1.9375 z M 352.09375,257.125 c -1.17796,0.009 -2.3828,0.0263 -3.59375,0.0625 -21.08324,7.29804 -29.26685,8.92455 -45.46875,25.28125 C 264.48662,322.65626 275.33848,370.72768 297,397.625 c 24.49513,24.06761 37.41084,26.55056 74.75,29.28125 39.33624,-9.46436 63.83932,-26.0088 75.75,-68.6875 0.84673,-22.36783 0.90257,-49.21171 -19.1875,-71.71875 -18.82078,-17.03363 -39.70206,-29.65609 -76.21875,-29.375 z" />
        <g
           id="g4097"
           style="fill:#ffdbaa"
           inkscape:export-filename="C:\S4L\VM\default\s4l\layout\inkscape\export\homeCassette.png"
           inkscape:export-xdpi="78.753075"
           inkscape:export-ydpi="78.753075">
          <path
             sodipodi:nodetypes="ccccc"
             transform="translate(0,308.2677)"
             inkscape:connector-curvature="0"
             id="path4066"
             d="m 361.63461,275.3837 c 26.10286,4.29147 33.83849,8.17158 51.51778,24.24367 l 10.10152,-9.09138 C 404.4766,272.97243 382.822,262.44143 361.63461,264.27203 z"
             style="fill:#ffdbaa;stroke:#000000;stroke-width:1px;stroke-linecap:butt;stroke-linejoin:miter;stroke-opacity:1" />
          <path
             sodipodi:nodetypes="ccccc"
             transform="translate(0,308.2677)"
             inkscape:connector-curvature="0"
             id="path4068"
             d="m 423.25391,309.72889 10.10153,-5.05076 c 10.10071,22.30374 8.58734,33.83069 6.06091,56.56854 l -12.12183,-5.05076 c 3.67452,-17.02444 2.12011,-25.40881 -4.04061,-46.46702 z"
             style="fill:#ffdbaa;stroke:#000000;stroke-width:1px;stroke-linecap:butt;stroke-linejoin:miter;stroke-opacity:1" />
          <path
             sodipodi:nodetypes="ccccc"
             transform="translate(0,308.2677)"
             inkscape:connector-curvature="0"
             id="path4070"
             d="m 422.24376,370.33804 9.09137,7.07107 c -15.71948,18.65085 -27.29947,29.34265 -52.52793,36.36549 l -2.0203,-14.14213 c 22.14913,-4.49807 31.0396,-16.31507 45.45686,-29.29443 z"
             style="fill:#ffdbaa;stroke:#000000;stroke-width:1px;stroke-linecap:butt;stroke-linejoin:miter;stroke-opacity:1" />
          <path
             sodipodi:nodetypes="ccccc"
             transform="translate(0,308.2677)"
             inkscape:connector-curvature="0"
             id="path4072"
             d="m 318.19805,383.47003 c 18.86209,15.52211 27.32781,17.96421 47.47717,20.20305 l 1.01015,13.13198 c -27.22963,-3.70686 -41.77334,-6.39109 -58.58885,-26.26397 z"
             style="fill:#ffdbaa;stroke:#000000;stroke-width:1px;stroke-linecap:butt;stroke-linejoin:miter;stroke-opacity:1" />
          <path
             sodipodi:nodetypes="ccccc"
             transform="translate(0,308.2677)"
             inkscape:connector-curvature="0"
             id="path4074"
             d="m 300.0153,380.43957 10.10153,-8.08122 c -11.77932,-19.08588 -13.65686,-31.94017 -9.09137,-50.50763 l -13.13199,-4.04061 c -5.70272,29.75397 -0.83194,42.22804 12.12183,62.62946 z"
             style="fill:#ffdbaa;stroke:#000000;stroke-width:1px;stroke-linecap:butt;stroke-linejoin:miter;stroke-opacity:1" />
          <path
             sodipodi:nodetypes="ccccc"
             transform="translate(0,308.2677)"
             inkscape:connector-curvature="0"
             id="path4076"
             d="m 344.46202,265.28218 6.06091,11.11168 c -23.34017,12.68899 -32.30528,18.9595 -44.44671,38.38579 l -11.11168,-6.06091 c 13.93967,-24.15026 25.7644,-31.57002 49.49748,-43.43656 z"
             style="fill:#ffdbaa;stroke:#000000;stroke-width:1px;stroke-linecap:butt;stroke-linejoin:miter;stroke-opacity:1" />
        </g>
      </g>
    </g>
    <path
       style="fill:none;stroke:#000000;stroke-width:1px;stroke-linecap:butt;stroke-linejoin:miter;stroke-opacity:1"
       d="m 777.81745,273.3634 c 64.2262,113.16656 106.68756,251.96165 102.02541,297.995 l -16.16244,21.2132 -31.31473,2.02031 -617.2032,-1.01016 -13.13198,-2.0203 -17.1726,-17.17259 c -13.6966,-43.67636 5.30619,-196.92754 23.99856,-280.03634"
       id="path4036"
       inkscape:connector-curvature="0"
       transform="translate(0,308.2677)"
       sodipodi:nodetypes="cccccccc"
       inkscape:export-filename="C:\S4L\VM\default\s4l\layout\inkscape\export\homeCassette.png"
       inkscape:export-xdpi="78.753075"
       inkscape:export-ydpi="78.753075" />
    <path
       style="fill:none;stroke:#000000;stroke-width:1px;stroke-linecap:butt;stroke-linejoin:miter;stroke-opacity:1"
       d="m 833.37584,522.87108 c 25.01301,-2.36933 34.62972,3.88976 44.44672,26.26396 2.21039,9.93209 -0.32932,17.82014 -3.03046,27.27412 -6.13967,10.83008 -11.78053,13.39218 -20.20305,17.17259 -30.67676,-0.42625 -41.01569,-6.99509 -46.46702,-31.31472 -1.94977,-19.59294 6.98266,-34.6657 25.25381,-39.39595 z"
       id="path4040"
       inkscape:connector-curvature="0"
       transform="translate(0,308.2677)"
       sodipodi:nodetypes="cccccc"
       inkscape:export-filename="C:\S4L\VM\default\s4l\layout\inkscape\export\homeCassette.png"
       inkscape:export-xdpi="78.753075"
       inkscape:export-ydpi="78.753075" />
    <path
       style="fill:none;stroke:#000000;stroke-width:1px;stroke-linecap:butt;stroke-linejoin:miter;stroke-opacity:1"
       d="m 219.2031,520.85077 c 36.1367,7.20029 37.27517,38.7212 26.26397,58.58885 -10.69729,11.38052 -25.40675,14.04426 -37.37565,13.13198 -10.36034,-1.81127 -14.69056,-9.56284 -21.2132,-17.17259 -6.94016,-19.36347 -6.75747,-16.96394 -1.01015,-35.35534 15.82472,-18.59596 10.77369,-16.68608 33.33503,-19.1929 z"
       id="path4042"
       inkscape:connector-curvature="0"
       transform="translate(0,308.2677)"
       sodipodi:nodetypes="cccccc"
       inkscape:export-filename="C:\S4L\VM\default\s4l\layout\inkscape\export\homeCassette.png"
       inkscape:export-xdpi="78.753075"
       inkscape:export-ydpi="78.753075" />
    <path
       style="fill:none;stroke:#000000;stroke-width:1px;stroke-linecap:butt;stroke-linejoin:miter;stroke-opacity:1"
       d="m 842.46722,545.09443 c 15.58128,1.70382 16.42012,14.54322 11.61675,22.22336 -7.06551,3.9763 -13.5733,4.55631 -18.68782,1.01015 -8.93171,-8.01666 -4.92736,-20.83309 7.07107,-23.23351 z"
       id="path4044"
       inkscape:connector-curvature="0"
       transform="translate(0,308.2677)"
       sodipodi:nodetypes="cccc"
       inkscape:export-filename="C:\S4L\VM\default\s4l\layout\inkscape\export\homeCassette.png"
       inkscape:export-xdpi="78.753075"
       inkscape:export-ydpi="78.753075" />
    <path
       style="fill:none;stroke:#000000;stroke-width:1px;stroke-linecap:butt;stroke-linejoin:miter;stroke-opacity:1"
       d="m 231.32493,558.22642 c -0.89002,12.12119 -5.86369,13.13751 -15.9099,14.14213 -16.04775,-0.52193 -14.43544,-17.3357 -8.33376,-24.24366 11.93779,-8.09925 21.77481,-1.90725 24.24366,10.10153 z"
       id="path4046"
       inkscape:connector-curvature="0"
       transform="translate(0,308.2677)"
       sodipodi:nodetypes="cccc"
       inkscape:export-filename="C:\S4L\VM\default\s4l\layout\inkscape\export\homeCassette.png"
       inkscape:export-xdpi="78.753075"
       inkscape:export-ydpi="78.753075" />
    <g
       id="g4693"
       inkscape:export-filename="C:\S4L\VM\default\s4l\layout\inkscape\export\homeCassetteRightDisabled.png"
       inkscape:export-xdpi="78.753075"
       inkscape:export-ydpi="78.753075">
      <path
         inkscape:export-ydpi="78.753075"
         inkscape:export-xdpi="78.753075"
         inkscape:export-filename="C:\S4L\VM\default\s4l\layout\inkscape\export\homeCassetteRight.png"
         inkscape:connector-curvature="0"
         id="path4034"
         transform="translate(0,308.2677)"
         d="m 691.125,236.75 c -47.92853,5.54186 -70.37742,27.63702 -93.125,58.84375 -19.33074,45.51264 -5.80601,70.38655 11.125,114.125 29.3885,32.05582 56.17164,35.76161 96.96875,42.4375 54.37699,-9.2643 63.89038,-30.8135 89.90625,-75.75 9.58393,-40.99698 4.85501,-64.74442 -18.1875,-103.03125 C 749.76155,248.03499 726.71682,240.63898 691.125,236.75 z M 697.5,287 c 29.01038,0 52.53125,24.29456 52.53125,54.28125 0,29.98669 -23.52087,54.3125 -52.53125,54.3125 -29.01038,0 -52.53125,-24.32581 -52.53125,-54.3125 C 644.96875,311.29456 668.48962,287 697.5,287 z"
         style="fill:url(#radialGradient4504);fill-opacity:1;stroke:#000000;stroke-width:1px;stroke-linecap:butt;stroke-linejoin:miter;stroke-opacity:1" />
      <g
         inkscape:export-ydpi="78.753075"
         inkscape:export-xdpi="78.753075"
         inkscape:export-filename="C:\S4L\VM\default\s4l\layout\inkscape\export\homeCassetteRight.png"
         id="g4658">
        <path
           id="path4026"
           style="fill:#ffdbaa;fill-opacity:1;stroke:#000000;stroke-width:1px;stroke-linecap:butt;stroke-linejoin:miter;stroke-opacity:1"
           d="m 694.34375,612.04895 c 4.39854,0.0376 8.75928,1.11899 13.78125,2.90625 l -4.0625,9.09375 7.84375,5.3125 7.3125,-7.3125 c 8.15984,9.30997 9.5307,12.09157 12.375,23.46875 l -8.84375,1.53125 0,8.0625 9.09375,2.28125 C 730.47746,669.69621 731.23141,674.7651 720,684.67395 l -6.3125,-7.84375 -7.59375,3.53125 2.53125,9.59375 c -18.21442,5.87653 -14.78844,5.42468 -31.8125,-0.25 l 5.03125,-8.0625 -7.0625,-6.0625 -7.0625,10.09375 C 656.803,675.57178 654.81668,670.16359 652.0625,656.3927 l 9.84375,-1.78125 -0.25,-8.59375 -8.84375,-2 c 1.3873,-10.01905 6.4655,-16.48422 14.65625,-23.5 l 7.0625,7.59375 8.84375,-4.5625 -3.03125,-8.0625 c 5.16305,-2.44278 9.60146,-3.47511 14,-3.4375 z m -6,-48.4375 c -51.70109,5.27593 -71.92891,43.4485 -80.21875,81.65625 1.53979,28.84219 13.89832,47.15053 28.28125,67.6875 33.12132,25.3046 67.47986,23.56254 100,13.125 35.90339,-26.78073 32.69155,-42.77142 40.40625,-64.65625 4.84213,-31.361 -7.30804,-47.073 -23.25,-72.71875 -26.19861,-20.34327 -33.70929,-19.93297 -65.21875,-25.09375 z" />
        <g
           id="g4208"
           style="fill:#ffdbaa;fill-opacity:1"
           inkscape:export-filename="C:\S4L\VM\default\s4l\layout\inkscape\export\homeCassette.png"
           inkscape:export-xdpi="78.753075"
           inkscape:export-ydpi="78.753075">
          <path
             sodipodi:nodetypes="ccccc"
             transform="translate(0,308.2677)"
             inkscape:connector-curvature="0"
             id="path4048"
             d="m 663.67022,272.35325 c 26.10005,-7.13437 43.77836,-9.53822 66.67007,0 l -5.76506,9.26469 c -21.704,-7.93272 -33.62167,-7.94727 -53.83394,-0.17332 z"
             style="fill:#ffdbaa;fill-opacity:1;stroke:#000000;stroke-width:1px;stroke-linecap:butt;stroke-linejoin:miter;stroke-opacity:1" />
          <path
             sodipodi:nodetypes="ccccc"
             transform="translate(0,308.2677)"
             inkscape:connector-curvature="0"
             id="path4050"
             d="m 650.53823,279.42431 c -20.48104,18.62914 -26.44661,30.20764 -31.31472,54.54824 l 9.09137,0 c 8.56254,-27.86514 10.22178,-33.67776 31.31473,-49.49747 z"
             style="fill:#ffdbaa;fill-opacity:1;stroke:#000000;stroke-width:1px;stroke-linecap:butt;stroke-linejoin:miter;stroke-opacity:1" />
          <path
             sodipodi:nodetypes="ccccc"
             transform="translate(0,308.2677)"
             inkscape:connector-curvature="0"
             id="path4052"
             d="m 770.74639,337.00301 -10.10153,1.01015 c 1.22425,-23.1718 -16.35854,-35.38535 -25.25381,-51.51778 l 5.05076,-7.07107 c 19.85768,17.64116 26.23079,33.13595 30.30458,57.5787 z"
             style="fill:#ffdbaa;fill-opacity:1;stroke:#000000;stroke-width:1px;stroke-linecap:butt;stroke-linejoin:miter;stroke-opacity:1" />
          <path
             sodipodi:nodetypes="ccccc"
             transform="translate(0,308.2677)"
             inkscape:connector-curvature="0"
             id="path4054"
             d="m 759.63471,349.12484 10.10152,2.0203 c -6.74888,22.39553 -13.23009,36.53761 -30.30457,50.50763 l -8.08122,-8.08122 c 16.42242,-13.83729 26.43013,-27.13809 28.28427,-44.44671 z"
             style="fill:#ffdbaa;fill-opacity:1;stroke:#000000;stroke-width:1px;stroke-linecap:butt;stroke-linejoin:miter;stroke-opacity:1" />
          <path
             sodipodi:nodetypes="ccccc"
             transform="translate(0,308.2677)"
             inkscape:connector-curvature="0"
             id="path4056"
             d="m 668.72098,398.62231 c 20.73768,7.29707 34.06946,7.57879 52.52793,1.01016 l 6.06092,11.11167 c -26.09493,8.5667 -41.14035,6.7127 -63.63961,-1.01015 z"
             style="fill:#ffdbaa;fill-opacity:1;stroke:#000000;stroke-width:1px;stroke-linecap:butt;stroke-linejoin:miter;stroke-opacity:1" />
          <path
             sodipodi:nodetypes="ccccc"
             transform="translate(0,308.2677)"
             inkscape:connector-curvature="0"
             id="path4058"
             d="m 620.23366,347.10453 10.10152,-1.01015 c 4.32281,21.81331 11.48455,34.09557 26.26397,47.47717 l -6.06092,7.07107 c -19.65325,-15.30595 -25.78774,-33.37401 -30.30457,-53.53809 z"
             style="fill:#ffdbaa;fill-opacity:1;stroke:#000000;stroke-width:1px;stroke-linecap:butt;stroke-linejoin:miter;stroke-opacity:1" />
        </g>
      </g>
    </g>
    <path
       inkscape:connector-curvature="0"
       style="opacity:0.7363158;fill:url(#linearGradient4608);fill-opacity:1;stroke:#000000;stroke-opacity:1"
       d="m 193.5625,418.0802 -26.40625,1.4375 -17.15625,1.40625 -8.5625,10 -4.28125,11.4375 -1.4375,300 -4.40625,3.9375 -1,124.75 6.0625,6.5625 -1,20.1875 15.125,16.1875 110.125,-2.03125 8.0625,6.0625 525.28125,1 9.59375,-6.65625 102.15625,0.71875 18.5625,-17.15625 -0.71875,-20 5.71875,-5 -2.84375,-127.125 -5,-4.28125 -2.15625,-301.4375 -16.4375,-18.5625 -37.84375,0.6875 -1.4375,4.3125 -2.125,1.40625 -1.4375,-4.28125 -37.15625,0 -0.6875,4.28125 -2.875,1.4375 -0.71875,-8.5625 -577.125,1.40625 -1.4375,4.3125 0,1.40625 -2.84375,-3.5625 -37.875,0.71875 0,2.84375 -3.5625,1.4375 z m 168.5836,181.79165 c 24.3317,-0.42585 47.25201,23.97999 47.05393,47.42426 -0.19772,23.40085 -11.20939,49.06127 -46.63552,49.06127 -35.42613,0 -42.46597,-31.2896 -43.39119,-49.06127 -1.24183,-23.85317 16.66855,-46.96389 42.97278,-47.42426 z m 333.57265,0 c 21.65086,-0.30021 46.62738,16.40901 46.80069,47.42426 0.17855,31.95312 -19.061,49.06127 -49.83115,49.06127 -23.69908,0 -44.86844,-24.10709 -45.1988,-49.06127 -0.38222,-28.87192 24.51094,-47.09538 48.22926,-47.42426 z M 637.25,857.5802 c 4.61768,-0.0147 9.55489,0.67072 13.65625,1.90625 l 1.21875,25.1875 c -9.89354,5.50511 -28.2593,4.69499 -28.875,-3.03125 l 0,-20.1875 c 2.61292,-2.66883 8.06298,-3.85613 14,-3.875 z m -216.59375,2.34375 c 3.1483,-0.004 6.97601,0.12377 11.6875,0.5 3.66295,17.06343 1.36243,17.48492 0.25,26.21875 -9.74438,2.54085 -25.81704,2.16713 -28.53125,-0.96875 0.60216,-8.00995 -0.26561,-14.51411 2.03125,-24.21875 1.89458,-0.18946 5.1176,-1.51798 14.5625,-1.53125 z m -81.25,6.5625 c 15.44329,3.15484 17.33529,5.71613 19.90625,17.90625 0.68831,14.79057 -6.873,22.45849 -19.90625,22.5 -11.80723,-5.03204 -12.00628,-5.01884 -15.9375,-16.8125 0.2471,-15.6723 3.17181,-17.2223 15.9375,-23.59375 z m 373.75,1.03125 c 19.58113,0.30025 22.53265,7.23518 24.25,24.21875 -2.59917,9.38854 -6.18583,11.86214 -12.125,14.15625 -16.97389,0.4311 -21.68213,-3.40955 -25.25,-14.15625 -0.89444,-15.95614 0.79838,-20.81443 13.125,-24.21875 z"
       id="path4012-5"
       sodipodi:nodetypes="cccccccccccccccccccccccccccccccccccccccsssssssssssccccscccccccccccccccc"
       inkscape:export-filename="C:\S4L\VM\default\s4l\layout\inkscape\export\homeCassette.png"
       inkscape:export-xdpi="78.753075"
       inkscape:export-ydpi="78.753075" />
    <path
       style="opacity:0.89912283;fill:url(#linearGradient4520);fill-opacity:1;stroke:#000000;stroke-width:1px;stroke-linecap:butt;stroke-linejoin:miter;stroke-opacity:1"
       d="m 912.16774,160.22632 -764.68547,0 -1.01015,108.08632 765.69562,0 z"
       id="path4030"
       inkscape:connector-curvature="0"
       transform="translate(0,308.2677)"
       sodipodi:nodetypes="ccccc"
       inkscape:export-filename="C:\S4L\VM\default\s4l\layout\inkscape\export\homeCassette.png"
       inkscape:export-xdpi="78.753075"
       inkscape:export-ydpi="78.753075" />
    <path
       style="fill:none;stroke:#000000;stroke-width:1px;stroke-linecap:butt;stroke-linejoin:miter;stroke-opacity:1"
       d="m 339.41125,866.49412 c 15.44329,3.15484 17.33623,5.69676 19.90719,17.88688 0.68831,14.79057 -6.87394,22.47771 -19.90719,22.51922 -11.80723,-5.03204 -11.99662,-5.0218 -15.92784,-16.81546 0.2471,-15.6723 3.16215,-17.21919 15.92784,-23.59064 z"
       id="path4022-7"
       inkscape:connector-curvature="0"
       sodipodi:nodetypes="ccccc"
       inkscape:export-filename="C:\S4L\VM\default\s4l\layout\inkscape\export\homeCassette.png"
       inkscape:export-xdpi="78.753075"
       inkscape:export-ydpi="78.753075" />
    <path
       style="opacity:0.74122805;fill:#aa7939;stroke:#000000;stroke-width:1px;stroke-linecap:butt;stroke-linejoin:miter;stroke-opacity:1"
       d="M 772.78125,482.46875 290.9375,485.5 l -6.0625,2.03125 -24.25,114.125 8.0625,7.0625 525.28125,2.03125 8.09375,-10.09375 -23.25,-111.125 -6.03125,-7.0625 z M 637.25,549.3125 c 4.61768,-0.0147 9.55489,0.67072 13.65625,1.90625 l 1.21875,25.1875 c -9.89354,5.50511 -28.2593,4.69499 -28.875,-3.03125 l 0,-20.1875 c 2.61292,-2.66883 8.06298,-3.85613 14,-3.875 z m -216.59375,2.34375 c 3.1483,-0.004 6.97601,0.12377 11.6875,0.5 3.66295,17.06343 1.36243,17.48492 0.25,26.21875 -9.74438,2.54085 -25.81704,2.16713 -28.53125,-0.96875 0.60216,-8.00995 -0.26561,-14.51411 2.03125,-24.21875 1.89458,-0.18946 5.1176,-1.51798 14.5625,-1.53125 z m -81.25,6.5625 c 15.44329,3.15484 17.33529,5.71613 19.90625,17.90625 0.68831,14.79057 -6.873,22.45849 -19.90625,22.5 -11.80723,-5.03204 -12.00628,-5.01884 -15.9375,-16.8125 0.2471,-15.6723 3.17181,-17.2223 15.9375,-23.59375 z m 373.75,1.03125 c 19.58113,0.30025 22.53265,7.23518 24.25,24.21875 -2.59917,9.38854 -6.18583,11.86214 -12.125,14.15625 -16.97389,0.4311 -21.68213,-3.40955 -25.25,-14.15625 -0.89444,-15.95614 0.79838,-20.81443 13.125,-24.21875 z"
       transform="translate(0,308.2677)"
       id="path4014"
       inkscape:connector-curvature="0"
       inkscape:export-filename="C:\S4L\VM\default\s4l\layout\inkscape\export\homeCassette.png"
       inkscape:export-xdpi="78.753075"
       inkscape:export-ydpi="78.753075" />
    <path
       style="fill:#ffffff;fill-opacity:0.2513089;stroke:#000000;stroke-width:1px;stroke-linecap:butt;stroke-linejoin:miter;stroke-opacity:1"
       d="m 770.75,494.59375 -479.8125,2 L 265.65625,597.625 274.75,608.71875 789.9375,611.75 798.03125,601.65625 770.75,494.59375 z m -133.5,54.71875 c 4.61768,-0.0147 9.55489,0.67072 13.65625,1.90625 l 1.21875,25.1875 c -9.89354,5.50511 -28.2593,4.69499 -28.875,-3.03125 l 0,-20.1875 c 2.61292,-2.66883 8.06298,-3.85613 14,-3.875 z m -216.59375,2.34375 c 3.1483,-0.004 6.97601,0.12377 11.6875,0.5 3.66295,17.06343 1.36243,17.48492 0.25,26.21875 -9.74438,2.54085 -25.81704,2.16713 -28.53125,-0.96875 0.60216,-8.00995 -0.26561,-14.51411 2.03125,-24.21875 1.89458,-0.18946 5.1176,-1.51798 14.5625,-1.53125 z m -81.25,6.5625 c 15.44329,3.15484 17.33529,5.71613 19.90625,17.90625 0.68831,14.79057 -6.873,22.45849 -19.90625,22.5 -11.80723,-5.03204 -12.00628,-5.01884 -15.9375,-16.8125 0.2471,-15.6723 3.17181,-17.2223 15.9375,-23.59375 z m 373.75,1.03125 c 19.58113,0.30025 22.53265,7.23518 24.25,24.21875 -2.59917,9.38854 -6.18583,11.86214 -12.125,14.15625 -16.97389,0.4311 -21.68213,-3.40955 -25.25,-14.15625 -0.89444,-15.95614 0.79838,-20.81443 13.125,-24.21875 z"
       transform="translate(0,308.2677)"
       id="path4038"
       inkscape:connector-curvature="0"
       inkscape:export-filename="C:\S4L\VM\default\s4l\layout\inkscape\export\homeCassette.png"
       inkscape:export-xdpi="78.753075"
       inkscape:export-ydpi="78.753075" />
    <path
       style="opacity:0.89912283;fill:url(#linearGradient4540);fill-opacity:1;stroke:#000000;stroke-width:0.81133652px;stroke-linecap:butt;stroke-linejoin:miter;stroke-opacity:1"
       d="m 912.94214,712.08184 -764.87388,0 -1.0104,71.13212 765.88428,0 z"
       id="path4030-1"
       inkscape:connector-curvature="0"
       sodipodi:nodetypes="ccccc"
       inkscape:export-filename="C:\S4L\VM\default\s4l\layout\inkscape\export\homeCassette.png"
       inkscape:export-xdpi="78.753075"
       inkscape:export-ydpi="78.753075" />
  </g>
  <g
     inkscape:groupmode="layer"
     id="layer3"
     inkscape:label="Capa 2"
     style="opacity:1" />
</svg>
