<?xml version="1.0" encoding="UTF-8" standalone="no"?>
<!-- Created with Inkscape (http://www.inkscape.org/) -->

<svg
   xmlns:dc="http://purl.org/dc/elements/1.1/"
   xmlns:cc="http://creativecommons.org/ns#"
   xmlns:rdf="http://www.w3.org/1999/02/22-rdf-syntax-ns#"
   xmlns:svg="http://www.w3.org/2000/svg"
   xmlns="http://www.w3.org/2000/svg"
   xmlns:sodipodi="http://sodipodi.sourceforge.net/DTD/sodipodi-0.dtd"
   xmlns:inkscape="http://www.inkscape.org/namespaces/inkscape"
   width="1052.3622"
   height="744.09448"
   id="svg2"
   version="1.1"
   inkscape:version="0.48.5 r10040"
   sodipodi:docname="iconPlay.svg">
  <defs
     id="defs4">
    <inkscape:path-effect
       effect="skeletal"
       id="path-effect4660"
       is_visible="true"
       pattern="M 0,0 1,0"
       copytype="single_stretched"
       prop_scale="1"
       scale_y_rel="false"
       spacing="0"
       normal_offset="0"
       tang_offset="0"
       prop_units="false"
       vertical_pattern="false"
       fuse_tolerance="0" />
    <inkscape:path-effect
       effect="skeletal"
       id="path-effect4656"
       is_visible="true"
       pattern="M 0,0 1,0"
       copytype="single_stretched"
       prop_scale="1"
       scale_y_rel="false"
       spacing="0"
       normal_offset="0"
       tang_offset="0"
       prop_units="false"
       vertical_pattern="false"
       fuse_tolerance="0" />
    <inkscape:path-effect
       effect="skeletal"
       id="path-effect4652"
       is_visible="true"
       pattern="M 0,0 1,0"
       copytype="single_stretched"
       prop_scale="1"
       scale_y_rel="false"
       spacing="0"
       normal_offset="0"
       tang_offset="0"
       prop_units="false"
       vertical_pattern="false"
       fuse_tolerance="0" />
    <inkscape:path-effect
       effect="skeletal"
       id="path-effect4648"
       is_visible="true"
       pattern="M 0,0 1,0"
       copytype="single_stretched"
       prop_scale="1"
       scale_y_rel="false"
       spacing="0"
       normal_offset="0"
       tang_offset="0"
       prop_units="false"
       vertical_pattern="false"
       fuse_tolerance="0" />
  </defs>
  <sodipodi:namedview
     id="base"
     pagecolor="#ffffff"
     bordercolor="#666666"
     borderopacity="1.0"
     inkscape:pageopacity="0.0"
     inkscape:pageshadow="2"
     inkscape:zoom="1.4"
     inkscape:cx="577.23057"
     inkscape:cy="443.35991"
     inkscape:document-units="px"
     inkscape:current-layer="layer1"
     showgrid="false"
     showguides="true"
     inkscape:guide-bbox="true"
     inkscape:snap-global="false"
     inkscape:window-width="1366"
     inkscape:window-height="705"
     inkscape:window-x="-8"
     inkscape:window-y="-8"
     inkscape:window-maximized="1">
    <sodipodi:guide
       orientation="0,1"
       position="270.72088,634.3758"
       id="guide2987" />
    <sodipodi:guide
       orientation="0,1"
       position="1040,131.42857"
       id="guide2989" />
    <sodipodi:guide
       orientation="1,0"
       position="127.85714,739.28572"
       id="guide2991" />
    <sodipodi:guide
       orientation="1,0"
       position="943.48248,917.21851"
       id="guide2993" />
  </sodipodi:namedview>
  <metadata
     id="metadata7">
    <rdf:RDF>
      <cc:Work
         rdf:about="">
        <dc:format>image/svg+xml</dc:format>
        <dc:type
           rdf:resource="http://purl.org/dc/dcmitype/StillImage" />
        <dc:title></dc:title>
      </cc:Work>
    </rdf:RDF>
  </metadata>
  <g
     inkscape:label="Capa 1"
     inkscape:groupmode="layer"
     id="layer1"
     transform="translate(0,-308.2677)">
    <rect
       style="fill:#004804;fill-opacity:1;stroke:#000000;stroke-opacity:1"
       id="rect4539"
       width="50"
       height="50"
       x="-250.38838"
       y="879.81335" />
    <rect
       style="fill:#004804;fill-opacity:1;stroke:#000000;stroke-opacity:1"
       id="rect4539-1"
       width="50"
       height="50"
       x="-250.38838"
       y="957.83936" />
    <rect
       style="fill:#004804;fill-opacity:1;stroke:#000000;stroke-opacity:1"
       id="rect4539-7"
       width="50"
       height="50"
       x="-250.38838"
       y="255.60559" />
    <rect
       style="fill:#d3edd4;fill-opacity:1;stroke:#000000;stroke-opacity:1"
       id="rect4539-4"
       width="50"
       height="50"
       x="-250.38838"
       y="333.63159" />
    <rect
       style="fill:#ffffff;fill-opacity:1;stroke:#000000;stroke-opacity:1"
       id="rect4539-0"
       width="50"
       height="50"
       x="-250.38838"
       y="411.65753" />
    <rect
       style="fill:#000000;fill-opacity:1;stroke:#000000;stroke-opacity:1"
       id="rect4539-9"
       width="50"
       height="50"
       x="-250.38838"
       y="489.68353" />
    <rect
       style="fill:#5e0063;fill-opacity:1;stroke:#000000;stroke-opacity:1"
       id="rect4539-48"
       width="50"
       height="50"
       x="-250.38838"
       y="567.70947" />
    <rect
       style="fill:#e6c1e6;fill-opacity:1;stroke:#000000;stroke-opacity:1"
       id="rect4539-8"
       width="50"
       height="50"
       x="-250.38838"
       y="645.73547" />
    <rect
       style="fill:#004804;fill-opacity:1;stroke:#000000;stroke-opacity:1"
       id="rect4539-2"
       width="50"
       height="50"
       x="-250.38838"
       y="723.76147" />
    <rect
       style="fill:#004804;fill-opacity:1;stroke:#000000;stroke-opacity:1"
       id="rect4539-45"
       width="50"
       height="50"
       x="-250.38838"
       y="801.78741" />
    <path
       style="fill:#000000;fill-rule:evenodd;stroke:none"
       d="m 508.61181,189.52073 c -0.4298,2.65918 -0.51017,5.39787 0.0349,8.03584 0.45658,2.20981 1.36466,4.31105 2.53614,6.23961 2.60044,4.28097 6.16315,7.89222 9.04573,11.98852 l 7.57615,9.09137 1.01015,4.04061 c -2.70363,1.29191 -5.58319,2.19682 -8.52264,2.77843 -2.201,0.43549 -4.4464,0.68964 -6.58862,1.35668 -2.17453,0.67711 -4.15147,1.93597 -5.72524,3.58227 -2.5817,2.70068 -4.34383,6.07369 -5.93254,9.45522 l -4.3111,10.57597 c -5.44972,12.62702 -12.08608,24.86452 -20.94272,35.38597 l -4.04061,6.06091 -3e-5,3e-5 -6.06088,7.07104 -1.51523,4.04061 1.51522,5.5558 10e-6,4e-5 1.01015,6.06092 3.03046,0.50507 8.58629,-1.01015 4.0406,-5.05074 10e-6,-2e-5 6.56599,-1.51523 0.50508,-5.55582 0,-2e-5 -7.07107,-2.02031 2.02031,-2.52538 6.35678,-7.16298 c 3.09673,-5.04593 6.96287,-9.55511 10.81581,-14.05022 l 3.03046,-5.05076 0,6.56599 -3.03046,5.55584 -1.01015,4.54568 -2.02031,6.56599 -1.51521,3.03044 -1e-5,2e-5 -6.06092,18.18275 -8.08122,18.18274 -8.5863,21.21321 -8.58628,17.67765 -1e-5,2e-5 -11.11166,26.23329 -2e-5,4e-5 40.91118,0 c 0.38451,-6.88593 1.62396,-13.78124 4.3784,-20.10398 2.48997,-5.71563 5.98953,-10.92228 9.25866,-16.23088 2.36277,2.81514 4.3079,6.01925 5.39941,9.52871 0.89088,2.86443 1.18741,5.88568 1.17531,8.88542 -0.0242,5.99809 -0.9308,12.09485 0.49634,17.92073 l 38.86548,0 2e-5,0 c 1.46994,-6.31162 1.7795,-12.90898 0.58167,-19.27786 -1.15297,-6.13038 -3.03166,-12.11323 -3.99464,-18.27632 -10e-6,-1e-5 -10e-6,-3e-5 -10e-6,-4e-5 0.60405,-8.00736 -0.41051,-16.03728 -0.48447,-24.06706 -0.0326,-3.53683 0.22973,-7.09267 1.07124,-10.5281 0,0 0,-10e-6 0,-2e-5 0.96983,-3.95933 2.69514,-7.71101 4.87189,-11.15755 l 1.51523,-16.16244 12.12183,2.0203 3.03046,-1.01015 2.52538,-5.05076 0,-7.07103 0,-4e-5 -1.51523,-9.59645 3e-5,-3e-5 3.14772,-3.98456 c -0.97874,-8.02779 -0.4245,-16.14875 -0.62251,-24.23356 -0.0842,-3.43594 -0.41539,-6.88171 -1.28914,-10.20577 0,0 0,-1e-5 0,-2e-5 -0.98687,-3.75437 -2.66278,-7.30932 -4.77163,-10.56846 l -3.53551,-2.52536 -3e-5,-2e-5 -6.06091,0 -3.03046,-1.01015 -4.54569,-6.06092 -3e-5,-3e-5 -6.06087,-7.07102 -10e-6,-2e-5 0,-12.6269 c 0,-1e-5 10e-6,-3e-5 10e-6,-4e-5 1.38193,-3.66953 1.91463,-7.7263 1.1042,-11.56275 -0.24517,-1.16061 -0.58181,-2.35487 -1.35317,-3.25606 -0.23257,-0.27172 -0.5231,-0.51763 -0.87334,-0.59013 -1e-5,0 -3e-5,0 -4e-5,-1e-5 -0.31572,-0.0653 -0.64783,0.0533 -0.89795,0.25669 -10e-6,0 -10e-6,1e-5 -2e-5,1e-5 0.1044,-2.97877 0.30088,-6.08298 -0.84477,-8.83461 0,-1e-5 -10e-6,-2e-5 -10e-6,-4e-5 -1.10575,-2.65578 -3.27222,-4.70208 -5.21613,-6.82271 -3.63297,-2.07416 -7.69342,-3.51181 -11.8735,-3.67778 -3.40325,-0.13513 -6.84535,0.61571 -9.85028,2.21909 -5.61717,2.99722 -9.58524,8.81053 -10.6011,15.09574 z"
       id="path4646"
       inkscape:path-effect="#path-effect4648"
       inkscape:original-d="m 508.61181,189.52073 c -2.01326,12.45616 4.99707,16.85706 11.61675,26.26397 l 7.57615,9.09137 1.01015,4.04061 c -13.12872,6.27345 -18.24495,-0.97069 -26.76904,17.1726 l -4.3111,10.57597 c -5.8011,13.44118 -13.00851,25.96034 -20.94272,35.38597 l -4.04061,6.06091 -6.06091,7.07107 -1.51523,4.04061 1.51523,5.55584 1.01015,6.06092 3.03046,0.50507 8.58629,-1.01015 4.04061,-5.05076 6.56599,-1.51523 0.50508,-5.55584 -7.07107,-2.02031 2.02031,-2.52538 6.35678,-7.16298 c 4.19257,-6.83153 6.612,-9.14576 10.81581,-14.05022 l 3.03046,-5.05076 0,6.56599 -3.03046,5.55584 -1.01015,4.54568 -2.02031,6.56599 -1.51522,3.03046 -6.06092,18.18275 -8.08122,18.18274 -8.5863,21.21321 -8.58629,17.67767 -11.11168,26.23333 40.91118,0 c 0.96599,-17.2992 6.16406,-24.19978 13.63706,-36.33486 11.21728,13.3649 3.95828,23.62784 7.07106,36.33486 l 38.8655,0 c 3.77664,-16.21607 -1.08786,-22.67347 -3.41298,-37.55422 1.43449,-19.01589 -4.54596,-29.91202 5.45866,-45.75273 l 1.51523,-16.16244 12.12183,2.0203 3.03046,-1.01015 2.52538,-5.05076 0,-7.07107 -1.51523,-9.59645 3.14775,-3.98459 c -2.37633,-19.49102 2.94406,-30.12919 -6.68328,-45.00781 l -3.53554,-2.52538 -6.06091,0 -3.03046,-1.01015 -4.54569,-6.06092 -6.06091,-7.07107 0,-12.6269 c 3.28173,-8.7142 0.33628,-17.06914 -2.02031,-15.15229 0.30521,-8.70793 -0.53766,-9.63201 -6.06091,-15.65736 -16.8435,-9.61641 -30.31162,1.18089 -32.32488,13.63705 z"
       inkscape:connector-curvature="0"
       transform="translate(0,308.2677)"
       sodipodi:nodetypes="zcccccccccccccccccccccccccccccccccccccccccccccccccccccz" />
    <path
       transform="translate(0,308.2677)"
       style="fill:#004804;fill-rule:evenodd;stroke:none"
       d="m 509.62196,296.5969 c -16.05579,15.14026 -23.07819,3.13823 -37.37564,18.68783 -6.94932,8.14612 -9.3331,16.09523 -9.59644,29.44495 -0.48772,1.70001 0.30019,21.10918 8.08121,27.12359 2.6391,1.68858 5.0045,3.90959 9.59645,3.53553 4.59195,-0.37406 8.34508,-0.72607 15.15228,-8.58629 6.71733,-11.08029 7.87309,-16.06562 11.8693,-19.69798 13.9925,-11.82036 24.83506,-11.1732 27.52665,-19.19287 l 0,-3e-5 c -3.57715,-4.6901 -5.22834,-1.71126 -12.98404,-1.04078 -3.2027,-9.17081 5.8835,-12.62387 11.11167,-15.8412 l 2.88253,-3.82614 1.51522,-3.03046 69.19545,-46.46702 c 5.83672,-2.95204 8.00312,-0.31866 12.12183,0.50508 l 1.51522,1.01014 10e-6,10e-6 11.11167,-9.09136 10e-6,-1e-5 5.55584,-5.05077 c 3.20873,-2.08864 4.85951,-1.81557 8.08122,-1.01015 4.97794,-3.95264 5.95345,-10.33736 3.03046,-14.14213 l -3e-5,-1e-5 -3.03043,-1.01015 -35.86041,16.66752 c -2.42435,0.81422 -2.90033,2.83745 -4.04062,4.54569 l -3.03045,0 -74.75129,47.47717 -3.03045,2.02029 -10e-6,1e-5 c -2.09141,1.434 -3.57404,0.65569 0.74493,-6.47933 8.47527,-17.0116 -6.7489,-7.84832 -15.39214,3.44887 z"
       id="path4650"
       inkscape:connector-curvature="0"
       sodipodi:nodetypes="cccczccccccccccccccccccccccccccc" />
    <path
       style="fill:#000000;fill-rule:evenodd;stroke:none"
       d="m 474.28571,295.52305 -6.42857,7.14286 c -1.32896,1.21615 -2.31015,2.81251 -2.75135,4.55908 -0.42338,1.67599 -0.4019,3.43559 -0.2119,5.15376 0.38152,3.44997 1.53085,6.81616 1.53468,10.28716 l 4.28572,2.14286 0,0 3.57142,-4.28572 5,0 c 0.69573,-1.44317 1.57272,-2.84909 2.86385,-3.79763 1.26473,-0.92914 2.7902,-1.42038 4.27901,-1.91665 l 2.85714,-1.42857 0,0 2.14286,-3.57143 c -1.09715,-0.97541 -2.09387,-2.06905 -3.27358,-2.94282 0,0 0,0 0,0 -1.11776,-0.82789 -2.47831,-1.3429 -3.86928,-1.3429 l 0,0 0,-2.14285 6.25,-7.85714 z"
       id="path4654"
       inkscape:path-effect="#path-effect4656"
       inkscape:original-d="m 474.28571,295.52305 -6.42857,7.14286 c -5.99033,5.48182 -1.43547,13.75242 -1.42857,20 l 4.28572,2.14286 3.57142,-4.28572 5,0 c 1.80181,-3.73754 3.45418,-4.48472 7.14286,-5.71428 l 2.85714,-1.42857 2.14286,-3.57143 c -2.39947,-2.13322 -3.94911,-4.28572 -7.14286,-4.28572 l 0,-2.14285 6.25,-7.85714 z"
       inkscape:connector-curvature="0"
       transform="translate(0,308.2677)"
       sodipodi:nodetypes="ccccccccccccc" />
    <path
       style="fill:#000000;fill-rule:evenodd;stroke:none"
       d="m 575,283.3802 1.42857,12.14285 0,7.14286 -3.57143,3.57143 -5.71427,1.42857 -10e-6,0 -8.57143,-2.14286 -6.42857,0 -5,-2.14285 -1.42857,-4.28572 4.2857,-0.71428 10e-6,0 2.14286,2.14285 -10,-7.85714 0,-2.85714 0.17857,-1.96429 1.25,-1.25 0.71429,0 -1.42858,-3.57143 -0.17857,-1.60714 1.78572,-1.25 1.07143,0.35714 2.14285,3.21429 0,0 1.96429,2.14286 2.5,1.60714 0,0 0.89286,0.17857 -1.60715,-2.5 -0.35714,-1.60714 1e-5,0 1.7857,-0.35715 2.32143,2.32143 0,10e-6 1.60715,1.78571 3.57142,0.71428 2.85715,0.35715 0,0 0.71428,-1.25 1.25,2.85714 1.42857,-3.75 z"
       id="path4658"
       inkscape:path-effect="#path-effect4660"
       inkscape:original-d="m 575,283.3802 1.42857,12.14285 0,7.14286 -3.57143,3.57143 -5.71428,1.42857 -8.57143,-2.14286 -6.42857,0 -5,-2.14285 -1.42857,-4.28572 4.28571,-0.71428 2.14286,2.14285 -10,-7.85714 0,-2.85714 0.17857,-1.96429 1.25,-1.25 0.71429,0 -1.42858,-3.57143 -0.17857,-1.60714 1.78572,-1.25 1.07143,0.35714 2.14285,3.21429 1.96429,2.14286 2.5,1.60714 0.89286,0.17857 -1.60715,-2.5 -0.35714,-1.60714 1.78571,-0.35715 2.32143,2.32143 1.60715,1.78572 3.57142,0.71428 2.85715,0.35715 0.71428,-1.25 1.25,2.85714 1.42857,-3.75 z"
       inkscape:connector-curvature="0"
       transform="translate(0,308.2677)" />
  </g>
</svg>
