<?xml version="1.0" encoding="UTF-8" standalone="no"?>
<!-- Created with Inkscape (http://www.inkscape.org/) -->

<svg
   xmlns:dc="http://purl.org/dc/elements/1.1/"
   xmlns:cc="http://creativecommons.org/ns#"
   xmlns:rdf="http://www.w3.org/1999/02/22-rdf-syntax-ns#"
   xmlns:svg="http://www.w3.org/2000/svg"
   xmlns="http://www.w3.org/2000/svg"
   xmlns:sodipodi="http://sodipodi.sourceforge.net/DTD/sodipodi-0.dtd"
   xmlns:inkscape="http://www.inkscape.org/namespaces/inkscape"
   width="210mm"
   height="297mm"
   id="svg2"
   version="1.1"
   inkscape:version="0.48.5 r10040"
   sodipodi:docname="tools.svg">
  <defs
     id="defs4" />
  <sodipodi:namedview
     id="base"
     pagecolor="#ffffff"
     bordercolor="#666666"
     borderopacity="1.0"
     inkscape:pageopacity="0"
     inkscape:pageshadow="2"
     inkscape:zoom="7.9195959"
     inkscape:cx="403.8777"
     inkscape:cy="600.49255"
     inkscape:document-units="px"
     inkscape:current-layer="layer1"
     showgrid="false"
     inkscape:window-width="1680"
     inkscape:window-height="987"
     inkscape:window-x="1352"
     inkscape:window-y="-8"
     inkscape:window-maximized="1" />
  <metadata
     id="metadata7">
    <rdf:RDF>
      <cc:Work
         rdf:about="">
        <dc:format>image/svg+xml</dc:format>
        <dc:type
           rdf:resource="http://purl.org/dc/dcmitype/StillImage" />
        <dc:title></dc:title>
      </cc:Work>
    </rdf:RDF>
  </metadata>
  <g
     inkscape:label="Capa 1"
     inkscape:groupmode="layer"
     id="layer1">
    <rect
       style="fill:none;stroke:none"
       id="rect3773"
       width="22.806175"
       height="22.806175"
       x="386.95996"
       y="422.72989"
       inkscape:export-filename="C:\S4L\VM\default\s4l\zf2\public\img\configurationIcon.png"
       inkscape:export-xdpi="147.08366"
       inkscape:export-ydpi="147.08366" />
    <path
       style="fill:#ffffff;fill-opacity:1;fill-rule:nonzero;stroke:#000000;stroke-width:0.22052756;stroke-miterlimit:4;stroke-opacity:1;stroke-dasharray:none"
       d="m 396.31538,424.27678 -0.34355,1.62346 c -0.6089,0.17675 -1.1807,0.40428 -1.71937,0.69967 l -1.41706,-0.89311 c -1.15844,0.76091 -2.12336,1.7441 -2.87342,2.88592 l 0.90069,1.40402 c -0.29909,0.54409 -0.54415,1.1349 -0.72017,1.7365 l -1.63946,0.35911 c -0.25214,1.21391 -0.26089,2.48911 -0.0324,3.78453 0.0171,0.0988 0.0292,0.19693 0.0521,0.29404 l 1.62342,0.34353 c 0.17689,0.6096 0.40798,1.20277 0.70372,1.74201 l -0.89709,1.39446 c 0.76064,1.15733 1.74499,2.12388 2.8859,2.87344 l 1.40803,-0.8781 c 0.54428,0.29921 1.10805,0.5255 1.70983,0.70153 l 0.35903,1.6395 c 1.21397,0.25217 2.49304,0.28351 3.78854,0.0551 0.0989,-0.0171 0.21906,-0.0359 0.31679,-0.0555 l 0.34352,-1.62342 c 0.60963,-0.17692 1.17614,-0.42661 1.71538,-0.72236 l 1.41708,0.8931 c 1.15704,-0.76055 2.12401,-1.74519 2.87341,-2.88588 l -0.90068,-1.40405 c 0.29833,-0.54324 0.54853,-1.11337 0.72414,-1.71385 l 1.61686,-0.35512 c 0.25214,-1.21389 0.28351,-2.4931 0.0551,-3.78851 -0.0171,-0.099 -0.0291,-0.1969 -0.0521,-0.29407 l -1.62743,-0.36614 c -0.17674,-0.60891 -0.40431,-1.18073 -0.6997,-1.7194 l 0.89707,-1.39446 c -0.76084,-1.15812 -1.7483,-2.14611 -2.88987,-2.896 l -1.40405,0.9007 c -0.54477,-0.29949 -1.11151,-0.54812 -1.71384,-0.72419 l -0.35502,-1.61686 c -1.21391,-0.25216 -2.51574,-0.2795 -3.81115,-0.051 -0.099,0.0171 -0.19694,0.0292 -0.29406,0.0521 z m 1.08392,4.42744 c 2.99859,-0.5288 5.85805,1.47347 6.38678,4.47207 0.52877,2.99859 -1.47348,5.85804 -4.47208,6.38678 -2.99857,0.52875 -5.85804,-1.47345 -6.38678,-4.47206 -0.52877,-2.99858 1.47349,-5.85807 4.47208,-6.38679 z"
       id="path3757"
       inkscape:connector-curvature="0"
       inkscape:export-filename="C:\S4L\VM\default\s4l\zf2\public\img\configurationIcon.png"
       inkscape:export-xdpi="147.08366"
       inkscape:export-ydpi="147.08366" />
  </g>
</svg>
