<?xml version="1.0" encoding="UTF-8" standalone="no"?>
<!-- Created with Inkscape (http://www.inkscape.org/) -->

<svg
   xmlns:dc="http://purl.org/dc/elements/1.1/"
   xmlns:cc="http://creativecommons.org/ns#"
   xmlns:rdf="http://www.w3.org/1999/02/22-rdf-syntax-ns#"
   xmlns:svg="http://www.w3.org/2000/svg"
   xmlns="http://www.w3.org/2000/svg"
   xmlns:xlink="http://www.w3.org/1999/xlink"
   xmlns:sodipodi="http://sodipodi.sourceforge.net/DTD/sodipodi-0.dtd"
   xmlns:inkscape="http://www.inkscape.org/namespaces/inkscape"
   width="287.77625"
   height="180.93732"
   id="svg6155"
   version="1.1"
   inkscape:version="0.48.5 r10040"
   sodipodi:docname="Documento nuevo 32">
  <defs
     id="defs6157">
    <radialGradient
       inkscape:collect="always"
       xlink:href="#linearGradient4456"
       id="radialGradient3962"
       gradientUnits="userSpaceOnUse"
       gradientTransform="matrix(0.00282278,0.5044027,-0.51015926,0.00285506,496.08488,553.17594)"
       cx="-5.1608324"
       cy="-17.773468"
       fx="-5.1608324"
       fy="-17.773468"
       r="399.98438" />
    <linearGradient
       id="linearGradient4456">
      <stop
         style="stop-color:#d4aa71;stop-opacity:1;"
         offset="0"
         id="stop4458" />
      <stop
         id="stop4460"
         offset="0.55979145"
         style="stop-color:#c99d63;stop-opacity:1;" />
      <stop
         id="stop4462"
         offset="1"
         style="stop-color:#bf9155;stop-opacity:1;" />
    </linearGradient>
    <radialGradient
       inkscape:collect="always"
       xlink:href="#linearGradient4498"
       id="radialGradient3964"
       gradientUnits="userSpaceOnUse"
       gradientTransform="matrix(-0.00320998,0.50472317,-0.4779196,-0.00303951,741.12207,292.73071)"
       cx="701.04584"
       cy="344.07977"
       fx="701.04584"
       fy="344.07977"
       r="106.57911" />
    <linearGradient
       id="linearGradient4498">
      <stop
         style="stop-color:#553100;stop-opacity:1;"
         offset="0"
         id="stop4500" />
      <stop
         style="stop-color:#805215;stop-opacity:1;"
         offset="1"
         id="stop4502" />
    </linearGradient>
    <radialGradient
       inkscape:collect="always"
       xlink:href="#linearGradient4490"
       id="radialGradient3966"
       gradientUnits="userSpaceOnUse"
       gradientTransform="matrix(-0.00854286,0.55989514,-0.41762018,-0.00637202,621.79355,402.95493)"
       cx="439.66348"
       cy="435.33246"
       fx="439.66348"
       fy="435.33246"
       r="162.61833" />
    <linearGradient
       id="linearGradient4490">
      <stop
         style="stop-color:#553100;stop-opacity:1;"
         offset="0"
         id="stop4492" />
      <stop
         style="stop-color:#805215;stop-opacity:1;"
         offset="1"
         id="stop4494" />
    </linearGradient>
    <linearGradient
       inkscape:collect="always"
       xlink:href="#linearGradient4482"
       id="linearGradient3968"
       gradientUnits="userSpaceOnUse"
       gradientTransform="matrix(0.4096,0,0,0.4096,287.28091,378.31974)"
       x1="521.74109"
       y1="445.6918"
       x2="522.13843"
       y2="872.83466" />
    <linearGradient
       id="linearGradient4482">
      <stop
         style="stop-color:#ffdbaa;stop-opacity:0.29285714;"
         offset="0"
         id="stop4484" />
      <stop
         id="stop4610"
         offset="0.5"
         style="stop-color:#bf965f;stop-opacity:1;" />
      <stop
         style="stop-color:#ffdbaa;stop-opacity:0.25714287;"
         offset="1"
         id="stop4486" />
    </linearGradient>
    <linearGradient
       inkscape:collect="always"
       xlink:href="#linearGradient4514"
       id="linearGradient3970"
       gradientUnits="userSpaceOnUse"
       gradientTransform="matrix(0.4096,0,0,0.4096,287.28091,504.58618)"
       x1="540"
       y1="164.09448"
       x2="541.42853"
       y2="265.52307" />
    <linearGradient
       id="linearGradient4514">
      <stop
         style="stop-color:#ffdbaa;stop-opacity:0.39285713;"
         offset="0"
         id="stop4516" />
      <stop
         id="stop4522"
         offset="0.5"
         style="stop-color:#d4a76a;stop-opacity:0.39285713;" />
      <stop
         style="stop-color:#ffdbaa;stop-opacity:0.39285713;"
         offset="1"
         id="stop4518" />
    </linearGradient>
    <linearGradient
       inkscape:collect="always"
       xlink:href="#linearGradient4514-8"
       id="linearGradient3972"
       gradientUnits="userSpaceOnUse"
       gradientTransform="matrix(0.40970093,0,0,0.26955973,287.50604,626.7979)"
       x1="540"
       y1="164.09448"
       x2="541.42853"
       y2="265.52307" />
    <linearGradient
       id="linearGradient4514-8">
      <stop
         style="stop-color:#ffdbaa;stop-opacity:0.39285713;"
         offset="0"
         id="stop4516-8" />
      <stop
         id="stop4522-1"
         offset="0.5"
         style="stop-color:#d4a76a;stop-opacity:0.39285713;" />
      <stop
         style="stop-color:#ffdbaa;stop-opacity:0.39285713;"
         offset="1"
         id="stop4518-2" />
    </linearGradient>
    <linearGradient
       y2="265.52307"
       x2="541.42853"
       y1="164.09448"
       x1="540"
       gradientTransform="matrix(0.40970093,0,0,0.26955973,287.50604,626.7979)"
       gradientUnits="userSpaceOnUse"
       id="linearGradient6153"
       xlink:href="#linearGradient4514-8"
       inkscape:collect="always" />
  </defs>
  <sodipodi:namedview
     id="base"
     pagecolor="#ffffff"
     bordercolor="#666666"
     borderopacity="1.0"
     inkscape:pageopacity="0.0"
     inkscape:pageshadow="2"
     inkscape:zoom="0.35"
     inkscape:cx="305.32059"
     inkscape:cy="-20.962381"
     inkscape:document-units="px"
     inkscape:current-layer="layer1"
     showgrid="false"
     fit-margin-top="0"
     fit-margin-left="0"
     fit-margin-right="0"
     fit-margin-bottom="0"
     inkscape:window-width="504"
     inkscape:window-height="424"
     inkscape:window-x="2615"
     inkscape:window-y="361"
     inkscape:window-maximized="0" />
  <metadata
     id="metadata6160">
    <rdf:RDF>
      <cc:Work
         rdf:about="">
        <dc:format>image/svg+xml</dc:format>
        <dc:type
           rdf:resource="http://purl.org/dc/dcmitype/StillImage" />
        <dc:title></dc:title>
      </cc:Work>
    </rdf:RDF>
  </metadata>
  <g
     inkscape:label="Capa 1"
     inkscape:groupmode="layer"
     id="layer1"
     transform="translate(-44.679412,-356.17677)">
    <g
       id="g3924"
       transform="matrix(0.87820326,0,0,0.87820326,-254.29391,-126.2587)"
       style="opacity:0.63157893">
      <path
         inkscape:export-ydpi="78.753075"
         inkscape:export-xdpi="78.753075"
         inkscape:export-filename="C:\S4L\VM\default\s4l\layout\inkscape\export\homeCassette.png"
         inkscape:connector-curvature="0"
         id="path4012"
         d="m 366.5641,549.56538 -10.81599,0.5888 -7.0272,0.576 -3.5072,4.096 -1.7536,4.6848 -0.5888,122.88 -1.8048,1.6128 -0.4096,51.0976 2.4832,2.688 -0.4096,8.2688 6.1952,6.6304 45.10719,-0.832 3.3024,2.4832 215.1552,0.4096 3.9296,-2.7264 41.84317,0.2944 7.6032,-7.0272 -0.29436,-8.192 2.34236,-2.048 -1.16476,-52.0704 -2.048,-1.7536 -0.88324,-123.4688 -6.7328,-7.6032 -15.50076,0.2816 -0.5888,1.7664 -0.8704,0.576 -0.5888,-1.7536 -15.21921,0 -0.2816,1.7536 -1.1776,0.5888 -0.2944,-3.5072 -236.3904,0.576 -0.5888,1.7664 0,0.576 -1.1648,-1.4592 -15.5136,0.2944 0,1.1648 -1.4592,0.5888 -0.8832,-3.8016 z m 69.4656,66.9952 c 14.51054,0 26.2656,11.94894 26.2656,26.688 0,14.73906 -11.75506,26.688 -26.2656,26.688 -14.51055,0 -26.2784,-11.94894 -26.2784,-26.688 0,-14.73906 11.76785,-26.688 26.2784,-26.688 z m 136.2176,6.144 c 12.60345,0 22.8224,10.61739 22.8224,23.7056 0,13.08821 -10.21895,23.6928 -22.8224,23.6928 -12.60346,0 -22.8224,-10.60459 -22.8224,-23.6928 0,-13.08821 10.21894,-23.7056 22.8224,-23.7056 z m -23.9488,106.88 c 1.8914,-0.006 3.91368,0.27473 5.5936,0.7808 l 0.4992,10.3168 c -4.0524,2.2549 -11.57501,1.92306 -11.8272,-1.2416 l 0,-8.2688 c 1.07025,-1.09315 3.3026,-1.57947 5.7344,-1.5872 z m -88.7168,0.96 c 1.28954,-0.002 2.85737,0.0507 4.7872,0.2048 1.50034,6.98918 0.55805,7.16182 0.1024,10.7392 -3.9913,1.04073 -10.57467,0.88766 -11.6864,-0.3968 0.24664,-3.28088 -0.10879,-5.94498 0.832,-9.92 0.77601,-0.0776 2.09617,-0.62176 5.9648,-0.6272 z m -33.28,2.688 c 6.32557,1.29222 7.10053,2.34133 8.1536,7.3344 0.28193,6.05822 -2.81519,9.19899 -8.1536,9.216 -4.83625,-2.06112 -4.91778,-2.05572 -6.528,-6.8864 0.10121,-6.41938 1.29917,-7.05426 6.528,-9.664 z m 153.088,0.4224 c 8.02043,0.12298 9.22937,2.96353 9.9328,9.92 -1.06463,3.84554 -2.53372,4.85874 -4.9664,5.7984 -6.95251,0.17658 -8.881,-1.39655 -10.3424,-5.7984 -0.36636,-6.53563 0.32701,-8.52558 5.376,-9.92 z"
         style="fill:url(#radialGradient3962);fill-opacity:1;stroke:#000000;stroke-width:0.40959996px;stroke-linecap:butt;stroke-linejoin:miter;stroke-opacity:1" />
      <path
         inkscape:export-ydpi="78.753075"
         inkscape:export-xdpi="78.753075"
         inkscape:export-filename="C:\S4L\VM\default\s4l\layout\inkscape\export\homeCassetteRight.png"
         inkscape:connector-curvature="0"
         id="path4034"
         d="m 570.3657,601.55898 c -19.63153,2.26994 -28.82659,11.32013 -38.144,24.1024 -7.91787,18.64198 -2.37815,28.83033 4.5568,46.7456 12.03753,13.13006 23.0079,14.64795 39.7184,17.3824 22.27281,-3.79466 26.1695,-12.62121 36.8256,-31.0272 3.92557,-16.79236 1.98861,-26.51931 -7.4496,-42.2016 -11.48967,-10.37927 -20.92879,-13.40868 -35.5072,-15.0016 z m 2.6112,20.5824 c 11.88265,0 21.5168,9.95106 21.5168,22.2336 0,12.28254 -9.63415,22.2464 -21.5168,22.2464 -11.88265,0 -21.5168,-9.96386 -21.5168,-22.2464 0,-12.28254 9.63415,-22.2336 21.5168,-22.2336 z"
         style="fill:url(#radialGradient3964);fill-opacity:1;stroke:#000000;stroke-width:0.40959996px;stroke-linecap:butt;stroke-linejoin:miter;stroke-opacity:1" />
      <path
         inkscape:export-ydpi="78.753075"
         inkscape:export-xdpi="78.753075"
         inkscape:export-filename="C:\S4L\VM\default\s4l\layout\inkscape\export\homeCassetteLeft.png"
         inkscape:connector-curvature="0"
         id="path4036-0"
         d="m 433.2009,576.63738 c -25.67059,0.17261 -38.55174,15.61606 -54.0672,32.6912 -16.59381,30.5469 -8.21844,65.6701 13.1456,86.2336 15.46813,12.65606 30.60593,14.03009 49.6512,16.5504 23.17381,-3.38441 31.04922,-12.17382 45.504,-23.168 12.30964,-13.55347 13.84138,-25.30082 15.7312,-42.6112 0.24236,-34.02162 -21.07369,-56.90327 -47.5904,-66.624 -8.46187,-2.16604 -15.83092,-3.116 -22.3744,-3.072 z m 4.8896,42.816 c 12.91095,0 23.3856,10.83682 23.3856,24.2048 0,13.36798 -10.47465,24.2048 -23.3856,24.2048 -12.91096,0 -23.3728,-10.83682 -23.3728,-24.2048 0,-13.36798 10.46184,-24.2048 23.3728,-24.2048 z"
         style="fill:url(#radialGradient3966);fill-opacity:1;stroke:#000000;stroke-width:0.40959996px;stroke-linecap:butt;stroke-linejoin:miter;stroke-opacity:1" />
      <path
         inkscape:export-ydpi="78.753075"
         inkscape:export-xdpi="78.753075"
         inkscape:export-filename="C:\S4L\VM\default\s4l\layout\inkscape\export\homeCassette.png"
         sodipodi:nodetypes="ccccc"
         inkscape:connector-curvature="0"
         id="path4016"
         d="m 464.36952,730.75317 c -7.7193,-0.61641 -9.72301,0.31028 -10.75771,0.41376 -0.9408,3.97501 -0.58087,6.64932 -0.82752,9.9302 1.11174,1.28446 7.69002,1.42939 11.68133,0.38866 0.45565,-3.57738 1.40425,-3.74344 -0.0961,-10.73262 z"
         style="fill:none;stroke:#000000;stroke-width:0.40959996px;stroke-linecap:butt;stroke-linejoin:miter;stroke-opacity:1" />
      <path
         inkscape:export-ydpi="78.753075"
         inkscape:export-xdpi="78.753075"
         inkscape:export-filename="C:\S4L\VM\default\s4l\layout\inkscape\export\homeCassette.png"
         sodipodi:nodetypes="ccccc"
         inkscape:connector-curvature="0"
         id="path4018"
         d="m 553.88764,730.36451 0.50985,10.31886 c -4.05239,2.2549 -11.57542,1.92339 -11.82761,-1.24127 l 0,-8.27517 c 1.90267,-1.94338 7.47795,-1.95915 11.31776,-0.80242 z"
         style="fill:none;stroke:#000000;stroke-width:0.40959996px;stroke-linecap:butt;stroke-linejoin:miter;stroke-opacity:1" />
      <path
         inkscape:export-ydpi="78.753075"
         inkscape:export-xdpi="78.753075"
         inkscape:export-filename="C:\S4L\VM\default\s4l\layout\inkscape\export\homeCassette.png"
         sodipodi:nodetypes="ccccc"
         inkscape:connector-curvature="0"
         id="path4020"
         d="m 579.39438,733.64948 c 8.02044,0.12299 9.22678,2.97373 9.93021,9.9302 -1.06462,3.84556 -2.53242,4.85295 -4.96511,5.79262 -6.95249,0.17658 -8.88256,-1.39078 -10.34396,-5.79262 -0.36636,-6.53563 0.32988,-8.53579 5.37886,-9.9302 z"
         style="fill:none;stroke:#000000;stroke-width:0.40959996px;stroke-linecap:butt;stroke-linejoin:miter;stroke-opacity:1" />
      <path
         inkscape:export-ydpi="78.753075"
         inkscape:export-xdpi="78.753075"
         inkscape:export-filename="C:\S4L\VM\default\s4l\layout\inkscape\export\homeCassette.png"
         sodipodi:nodetypes="ccccc"
         inkscape:connector-curvature="0"
         id="path4022"
         d="m 426.30375,733.23572 c 6.32556,1.29223 7.10092,2.33339 8.15398,7.32647 0.28193,6.05821 -2.81557,9.20687 -8.15398,9.22388 -4.83625,-2.06114 -4.91382,-2.05694 -6.52405,-6.88762 0.10121,-6.41937 1.29522,-7.05298 6.52405,-9.66273 z"
         style="fill:none;stroke:#000000;stroke-width:0.40959996px;stroke-linecap:butt;stroke-linejoin:miter;stroke-opacity:1" />
      <path
         inkscape:export-ydpi="78.753075"
         inkscape:export-xdpi="78.753075"
         inkscape:export-filename="C:\S4L\VM\default\s4l\layout\inkscape\export\homeCassette.png"
         sodipodi:nodetypes="cccccccc"
         inkscape:connector-curvature="0"
         id="path4036"
         d="m 605.87492,616.55583 c 26.30704,46.35302 43.69923,103.20349 41.78963,122.05875 l -6.62016,8.68893 -12.82651,0.82752 -252.80643,-0.41376 -5.37886,-0.82752 -7.03389,-7.03389 c -5.61012,-17.88984 2.17341,-80.66152 9.82981,-114.70288"
         style="fill:none;stroke:#000000;stroke-width:0.40959996px;stroke-linecap:butt;stroke-linejoin:miter;stroke-opacity:1" />
      <path
         inkscape:export-ydpi="78.753075"
         inkscape:export-xdpi="78.753075"
         inkscape:export-filename="C:\S4L\VM\default\s4l\layout\inkscape\export\homeCassette.png"
         sodipodi:nodetypes="cccccc"
         inkscape:connector-curvature="0"
         id="path4040"
         d="m 628.63163,718.75417 c 10.24532,-0.97047 14.18436,1.59325 18.2054,10.75772 0.90535,4.06819 -0.13492,7.29913 -1.24128,11.17148 -2.51483,4.436 -4.8253,5.48544 -8.2752,7.0339 -12.56518,-0.17459 -16.8,-2.86519 -19.03287,-12.82651 -0.79862,-8.02527 2.8601,-14.19908 10.34395,-16.13659 z"
         style="fill:none;stroke:#000000;stroke-width:0.40959996px;stroke-linecap:butt;stroke-linejoin:miter;stroke-opacity:1" />
      <path
         inkscape:export-ydpi="78.753075"
         inkscape:export-xdpi="78.753075"
         inkscape:export-filename="C:\S4L\VM\default\s4l\layout\inkscape\export\homeCassette.png"
         sodipodi:nodetypes="cccccc"
         inkscape:connector-curvature="0"
         id="path4042"
         d="m 377.06648,717.92666 c 14.80159,2.94923 15.26791,15.8602 10.75773,23.99799 -4.38161,4.66146 -10.4066,5.75252 -15.30906,5.37886 -4.2436,-0.7419 -6.01726,-3.91694 -8.68893,-7.03389 -2.84269,-7.93129 -2.76787,-6.94843 -0.41376,-14.48155 6.4818,-7.61691 4.4129,-6.83462 13.65402,-7.86141 z"
         style="fill:none;stroke:#000000;stroke-width:0.40959996px;stroke-linecap:butt;stroke-linejoin:miter;stroke-opacity:1" />
      <path
         inkscape:export-ydpi="78.753075"
         inkscape:export-xdpi="78.753075"
         inkscape:export-filename="C:\S4L\VM\default\s4l\layout\inkscape\export\homeCassette.png"
         sodipodi:nodetypes="cccc"
         inkscape:connector-curvature="0"
         id="path4044"
         d="m 632.35547,727.85685 c 6.3821,0.69789 6.72567,5.95691 4.75824,9.10269 -2.89403,1.6287 -5.55963,1.86627 -7.65456,0.41376 -3.65842,-3.28362 -2.01824,-8.53323 2.89632,-9.51645 z"
         style="fill:none;stroke:#000000;stroke-width:0.40959996px;stroke-linecap:butt;stroke-linejoin:miter;stroke-opacity:1" />
      <path
         inkscape:export-ydpi="78.753075"
         inkscape:export-xdpi="78.753075"
         inkscape:export-filename="C:\S4L\VM\default\s4l\layout\inkscape\export\homeCassette.png"
         sodipodi:nodetypes="cccc"
         inkscape:connector-curvature="0"
         id="path4046"
         d="m 382.03159,733.23572 c -0.36456,4.96484 -2.40177,5.38112 -6.5167,5.79262 -6.57315,-0.21378 -5.91276,-7.1007 -3.4135,-9.93021 4.88972,-3.31745 8.91896,-0.78121 9.9302,4.13759 z"
         style="fill:none;stroke:#000000;stroke-width:0.40959996px;stroke-linecap:butt;stroke-linejoin:miter;stroke-opacity:1" />
      <g
         inkscape:export-ydpi="78.753075"
         inkscape:export-xdpi="78.753075"
         inkscape:export-filename="C:\S4L\VM\default\s4l\layout\inkscape\export\homeCassetteRight.png"
         id="g4658"
         transform="matrix(0.4096,0,0,0.4096,287.28091,378.31973)">
        <path
           id="path4026"
           style="fill:#ffdbaa;fill-opacity:1;stroke:#000000;stroke-width:1px;stroke-linecap:butt;stroke-linejoin:miter;stroke-opacity:1"
           d="m 694.34375,612.04895 c 4.39854,0.0376 8.75928,1.11899 13.78125,2.90625 l -4.0625,9.09375 7.84375,5.3125 7.3125,-7.3125 c 8.15984,9.30997 9.5307,12.09157 12.375,23.46875 l -8.84375,1.53125 0,8.0625 9.09375,2.28125 C 730.47746,669.69621 731.23141,674.7651 720,684.67395 l -6.3125,-7.84375 -7.59375,3.53125 2.53125,9.59375 c -18.21442,5.87653 -14.78844,5.42468 -31.8125,-0.25 l 5.03125,-8.0625 -7.0625,-6.0625 -7.0625,10.09375 C 656.803,675.57178 654.81668,670.16359 652.0625,656.3927 l 9.84375,-1.78125 -0.25,-8.59375 -8.84375,-2 c 1.3873,-10.01905 6.4655,-16.48422 14.65625,-23.5 l 7.0625,7.59375 8.84375,-4.5625 -3.03125,-8.0625 c 5.16305,-2.44278 9.60146,-3.47511 14,-3.4375 z m -6,-48.4375 c -51.70109,5.27593 -71.92891,43.4485 -80.21875,81.65625 1.53979,28.84219 13.89832,47.15053 28.28125,67.6875 33.12132,25.3046 67.47986,23.56254 100,13.125 35.90339,-26.78073 32.69155,-42.77142 40.40625,-64.65625 4.84213,-31.361 -7.30804,-47.073 -23.25,-72.71875 -26.19861,-20.34327 -33.70929,-19.93297 -65.21875,-25.09375 z"
           inkscape:connector-curvature="0" />
        <g
           id="g4208"
           style="fill:#ffdbaa;fill-opacity:1"
           inkscape:export-filename="C:\S4L\VM\default\s4l\layout\inkscape\export\homeCassette.png"
           inkscape:export-xdpi="78.753075"
           inkscape:export-ydpi="78.753075">
          <path
             sodipodi:nodetypes="ccccc"
             transform="translate(0,308.2677)"
             inkscape:connector-curvature="0"
             id="path4048"
             d="m 663.67022,272.35325 c 26.10005,-7.13437 43.77836,-9.53822 66.67007,0 l -5.76506,9.26469 c -21.704,-7.93272 -33.62167,-7.94727 -53.83394,-0.17332 z"
             style="fill:#ffdbaa;fill-opacity:1;stroke:#000000;stroke-width:1px;stroke-linecap:butt;stroke-linejoin:miter;stroke-opacity:1" />
          <path
             sodipodi:nodetypes="ccccc"
             transform="translate(0,308.2677)"
             inkscape:connector-curvature="0"
             id="path4050"
             d="m 650.53823,279.42431 c -20.48104,18.62914 -26.44661,30.20764 -31.31472,54.54824 l 9.09137,0 c 8.56254,-27.86514 10.22178,-33.67776 31.31473,-49.49747 z"
             style="fill:#ffdbaa;fill-opacity:1;stroke:#000000;stroke-width:1px;stroke-linecap:butt;stroke-linejoin:miter;stroke-opacity:1" />
          <path
             sodipodi:nodetypes="ccccc"
             transform="translate(0,308.2677)"
             inkscape:connector-curvature="0"
             id="path4052"
             d="m 770.74639,337.00301 -10.10153,1.01015 c 1.22425,-23.1718 -16.35854,-35.38535 -25.25381,-51.51778 l 5.05076,-7.07107 c 19.85768,17.64116 26.23079,33.13595 30.30458,57.5787 z"
             style="fill:#ffdbaa;fill-opacity:1;stroke:#000000;stroke-width:1px;stroke-linecap:butt;stroke-linejoin:miter;stroke-opacity:1" />
          <path
             sodipodi:nodetypes="ccccc"
             transform="translate(0,308.2677)"
             inkscape:connector-curvature="0"
             id="path4054"
             d="m 759.63471,349.12484 10.10152,2.0203 c -6.74888,22.39553 -13.23009,36.53761 -30.30457,50.50763 l -8.08122,-8.08122 c 16.42242,-13.83729 26.43013,-27.13809 28.28427,-44.44671 z"
             style="fill:#ffdbaa;fill-opacity:1;stroke:#000000;stroke-width:1px;stroke-linecap:butt;stroke-linejoin:miter;stroke-opacity:1" />
          <path
             sodipodi:nodetypes="ccccc"
             transform="translate(0,308.2677)"
             inkscape:connector-curvature="0"
             id="path4056"
             d="m 668.72098,398.62231 c 20.73768,7.29707 34.06946,7.57879 52.52793,1.01016 l 6.06092,11.11167 c -26.09493,8.5667 -41.14035,6.7127 -63.63961,-1.01015 z"
             style="fill:#ffdbaa;fill-opacity:1;stroke:#000000;stroke-width:1px;stroke-linecap:butt;stroke-linejoin:miter;stroke-opacity:1" />
          <path
             sodipodi:nodetypes="ccccc"
             transform="translate(0,308.2677)"
             inkscape:connector-curvature="0"
             id="path4058"
             d="m 620.23366,347.10453 10.10152,-1.01015 c 4.32281,21.81331 11.48455,34.09557 26.26397,47.47717 l -6.06092,7.07107 c -19.65325,-15.30595 -25.78774,-33.37401 -30.30457,-53.53809 z"
             style="fill:#ffdbaa;fill-opacity:1;stroke:#000000;stroke-width:1px;stroke-linecap:butt;stroke-linejoin:miter;stroke-opacity:1" />
        </g>
      </g>
      <g
         inkscape:export-ydpi="78.753075"
         inkscape:export-xdpi="78.753075"
         inkscape:export-filename="C:\S4L\VM\default\s4l\layout\inkscape\export\homeCassetteLeft.png"
         id="g4669"
         transform="matrix(0.4096,0,0,0.4096,287.28091,378.31973)">
        <path
           id="path4060"
           transform="translate(0,308.2677)"
           style="fill:#ffdbaa;stroke:#000000;stroke-width:1px;stroke-linecap:butt;stroke-linejoin:miter;stroke-opacity:1"
           d="m 366.6875,303.65625 c 14.03027,2.77177 14.77208,3.67833 24.25,13.15625 l -6.0625,5.03125 4.40625,8.03125 L 398,325.90625 c 5.80219,10.14942 4.77938,16.02804 4.03125,27.25 l -8.5,-2.3125 -3.625,7.375 7.375,5.40625 c -9.21295,13.56968 -9.21738,12.70924 -23.53125,18.84375 l -2.0625,-8.09375 -8.03125,1 -1.125,8.09375 c -15.73716,0.36152 -16.6581,-2.90591 -28.15625,-12.125 l 8.0625,-7.0625 -6.0625,-7.375 -8.65625,5.28125 c -2.5712,-10.13847 -2.98619,-18.15226 -1.4375,-28.21875 l 8.78125,1.3125 3.625,-9.34375 -7.34375,-4.09375 c 5.97466,-7.9662 13.47906,-11.12254 22.21875,-15.15625 l 2.71875,8.375 9.34375,-1.9375 z M 352.09375,257.125 c -1.17796,0.009 -2.3828,0.0263 -3.59375,0.0625 -21.08324,7.29804 -29.26685,8.92455 -45.46875,25.28125 C 264.48662,322.65626 275.33848,370.72768 297,397.625 c 24.49513,24.06761 37.41084,26.55056 74.75,29.28125 39.33624,-9.46436 63.83932,-26.0088 75.75,-68.6875 0.84673,-22.36783 0.90257,-49.21171 -19.1875,-71.71875 -18.82078,-17.03363 -39.70206,-29.65609 -76.21875,-29.375 z"
           inkscape:connector-curvature="0" />
        <g
           id="g4097"
           style="fill:#ffdbaa"
           inkscape:export-filename="C:\S4L\VM\default\s4l\layout\inkscape\export\homeCassette.png"
           inkscape:export-xdpi="78.753075"
           inkscape:export-ydpi="78.753075">
          <path
             sodipodi:nodetypes="ccccc"
             transform="translate(0,308.2677)"
             inkscape:connector-curvature="0"
             id="path4066"
             d="m 361.63461,275.3837 c 26.10286,4.29147 33.83849,8.17158 51.51778,24.24367 l 10.10152,-9.09138 C 404.4766,272.97243 382.822,262.44143 361.63461,264.27203 z"
             style="fill:#ffdbaa;stroke:#000000;stroke-width:1px;stroke-linecap:butt;stroke-linejoin:miter;stroke-opacity:1" />
          <path
             sodipodi:nodetypes="ccccc"
             transform="translate(0,308.2677)"
             inkscape:connector-curvature="0"
             id="path4068"
             d="m 423.25391,309.72889 10.10153,-5.05076 c 10.10071,22.30374 8.58734,33.83069 6.06091,56.56854 l -12.12183,-5.05076 c 3.67452,-17.02444 2.12011,-25.40881 -4.04061,-46.46702 z"
             style="fill:#ffdbaa;stroke:#000000;stroke-width:1px;stroke-linecap:butt;stroke-linejoin:miter;stroke-opacity:1" />
          <path
             sodipodi:nodetypes="ccccc"
             transform="translate(0,308.2677)"
             inkscape:connector-curvature="0"
             id="path4070"
             d="m 422.24376,370.33804 9.09137,7.07107 c -15.71948,18.65085 -27.29947,29.34265 -52.52793,36.36549 l -2.0203,-14.14213 c 22.14913,-4.49807 31.0396,-16.31507 45.45686,-29.29443 z"
             style="fill:#ffdbaa;stroke:#000000;stroke-width:1px;stroke-linecap:butt;stroke-linejoin:miter;stroke-opacity:1" />
          <path
             sodipodi:nodetypes="ccccc"
             transform="translate(0,308.2677)"
             inkscape:connector-curvature="0"
             id="path4072"
             d="m 318.19805,383.47003 c 18.86209,15.52211 27.32781,17.96421 47.47717,20.20305 l 1.01015,13.13198 c -27.22963,-3.70686 -41.77334,-6.39109 -58.58885,-26.26397 z"
             style="fill:#ffdbaa;stroke:#000000;stroke-width:1px;stroke-linecap:butt;stroke-linejoin:miter;stroke-opacity:1" />
          <path
             sodipodi:nodetypes="ccccc"
             transform="translate(0,308.2677)"
             inkscape:connector-curvature="0"
             id="path4074"
             d="m 300.0153,380.43957 10.10153,-8.08122 c -11.77932,-19.08588 -13.65686,-31.94017 -9.09137,-50.50763 l -13.13199,-4.04061 c -5.70272,29.75397 -0.83194,42.22804 12.12183,62.62946 z"
             style="fill:#ffdbaa;stroke:#000000;stroke-width:1px;stroke-linecap:butt;stroke-linejoin:miter;stroke-opacity:1" />
          <path
             sodipodi:nodetypes="ccccc"
             transform="translate(0,308.2677)"
             inkscape:connector-curvature="0"
             id="path4076"
             d="m 344.46202,265.28218 6.06091,11.11168 c -23.34017,12.68899 -32.30528,18.9595 -44.44671,38.38579 l -11.11168,-6.06091 c 13.93967,-24.15026 25.7644,-31.57002 49.49748,-43.43656 z"
             style="fill:#ffdbaa;stroke:#000000;stroke-width:1px;stroke-linecap:butt;stroke-linejoin:miter;stroke-opacity:1" />
        </g>
      </g>
      <path
         inkscape:export-ydpi="78.753075"
         inkscape:export-xdpi="78.753075"
         inkscape:export-filename="C:\S4L\VM\default\s4l\layout\inkscape\export\homeCassette.png"
         sodipodi:nodetypes="cccccccccccccccccccccccccccccccccccccccsssssssssssccccscccccccccccccccc"
         id="path4012-5"
         d="m 366.5641,549.56538 -10.81599,0.5888 -7.0272,0.576 -3.5072,4.096 -1.7536,4.6848 -0.5888,122.88 -1.8048,1.6128 -0.4096,51.0976 2.4832,2.688 -0.4096,8.2688 6.1952,6.6304 45.10719,-0.832 3.3024,2.4832 215.1552,0.4096 3.9296,-2.7264 41.84317,0.2944 7.6032,-7.0272 -0.29436,-8.192 2.34236,-2.048 -1.16476,-52.0704 -2.048,-1.7536 -0.88324,-123.4688 -6.7328,-7.6032 -15.50076,0.2816 -0.5888,1.7664 -0.8704,0.576 -0.5888,-1.7536 -15.21921,0 -0.2816,1.7536 -1.1776,0.5888 -0.2944,-3.5072 -236.3904,0.576 -0.5888,1.7664 0,0.576 -1.1648,-1.4592 -15.5136,0.2944 0,1.1648 -1.4592,0.5888 z m 69.05184,74.46186 c 9.96626,-0.17443 19.35442,9.8222 19.27329,19.42497 -0.081,9.58499 -4.59136,20.0955 -19.10191,20.0955 -14.51054,0 -17.39406,-12.81622 -17.77303,-20.0955 -0.50866,-9.77025 6.82744,-19.2364 17.60165,-19.42497 z m 136.63136,0 c 8.86819,-0.12296 19.09857,6.72113 19.16956,19.42497 0.0731,13.088 -7.80739,20.0955 -20.41084,20.0955 -9.70715,0 -18.37811,-9.87426 -18.51343,-20.0955 -0.15656,-11.82593 10.03968,-19.29026 19.75471,-19.42497 z m -23.9488,105.55734 c 1.8914,-0.006 3.91368,0.27473 5.5936,0.7808 l 0.4992,10.3168 c -4.0524,2.2549 -11.57501,1.92306 -11.8272,-1.2416 l 0,-8.2688 c 1.07025,-1.09315 3.3026,-1.57947 5.7344,-1.5872 z m -88.7168,0.96 c 1.28954,-0.002 2.85737,0.0507 4.7872,0.2048 1.50034,6.98918 0.55805,7.16182 0.1024,10.7392 -3.9913,1.04073 -10.57467,0.88766 -11.6864,-0.3968 0.24664,-3.28088 -0.10879,-5.94498 0.832,-9.92 0.77601,-0.0776 2.09617,-0.62176 5.9648,-0.6272 z m -33.28,2.688 c 6.32557,1.29222 7.10053,2.34133 8.1536,7.3344 0.28193,6.05822 -2.81519,9.19899 -8.1536,9.216 -4.83625,-2.06112 -4.91778,-2.05572 -6.528,-6.8864 0.10121,-6.41938 1.29917,-7.05426 6.528,-9.664 z m 153.088,0.4224 c 8.02043,0.12298 9.22937,2.96353 9.9328,9.92 -1.06463,3.84554 -2.53372,4.85874 -4.9664,5.7984 -6.95251,0.17658 -8.881,-1.39655 -10.3424,-5.7984 -0.36636,-6.53563 0.32701,-8.52558 5.376,-9.92 z"
         style="opacity:0.7363158;fill:url(#linearGradient3968);fill-opacity:1;stroke:#000000;stroke-width:0.40959996;stroke-opacity:1"
         inkscape:connector-curvature="0" />
      <path
         inkscape:export-ydpi="78.753075"
         inkscape:export-xdpi="78.753075"
         inkscape:export-filename="C:\S4L\VM\default\s4l\layout\inkscape\export\homeCassette.png"
         sodipodi:nodetypes="ccccc"
         inkscape:connector-curvature="0"
         id="path4030"
         d="m 660.90479,570.21488 -313.21515,0 -0.41376,44.27216 313.62891,0 z"
         style="opacity:0.89912283;fill:url(#linearGradient3970);fill-opacity:1;stroke:#000000;stroke-width:0.40959996px;stroke-linecap:butt;stroke-linejoin:miter;stroke-opacity:1" />
      <path
         inkscape:export-ydpi="78.753075"
         inkscape:export-xdpi="78.753075"
         inkscape:export-filename="C:\S4L\VM\default\s4l\layout\inkscape\export\homeCassette.png"
         sodipodi:nodetypes="ccccc"
         inkscape:connector-curvature="0"
         id="path4022-7"
         d="m 426.30375,733.23572 c 6.32556,1.29223 7.10092,2.33339 8.15398,7.32647 0.28193,6.05821 -2.81557,9.20687 -8.15398,9.22388 -4.83625,-2.06114 -4.91382,-2.05694 -6.52405,-6.88762 0.10121,-6.41937 1.29522,-7.05298 6.52405,-9.66273 z"
         style="fill:none;stroke:#000000;stroke-width:0.40959996px;stroke-linecap:butt;stroke-linejoin:miter;stroke-opacity:1" />
      <path
         inkscape:export-ydpi="78.753075"
         inkscape:export-xdpi="78.753075"
         inkscape:export-filename="C:\S4L\VM\default\s4l\layout\inkscape\export\homeCassette.png"
         inkscape:connector-curvature="0"
         id="path4014"
         d="m 603.8121,702.20538 -197.3632,1.2416 -2.4832,0.832 -9.9328,46.7456 3.3024,2.8928 215.1552,0.832 3.3152,-4.1344 -9.5232,-45.5168 -2.4704,-2.8928 z m -55.5136,27.3792 c 1.8914,-0.006 3.91368,0.27473 5.5936,0.7808 l 0.4992,10.3168 c -4.0524,2.2549 -11.57501,1.92306 -11.8272,-1.2416 l 0,-8.2688 c 1.07025,-1.09315 3.3026,-1.57947 5.7344,-1.5872 z m -88.7168,0.96 c 1.28954,-0.002 2.85737,0.0507 4.7872,0.2048 1.50034,6.98918 0.55805,7.16182 0.1024,10.7392 -3.9913,1.04073 -10.57467,0.88766 -11.6864,-0.3968 0.24664,-3.28088 -0.10879,-5.94498 0.832,-9.92 0.77601,-0.0776 2.09617,-0.62176 5.9648,-0.6272 z m -33.28,2.688 c 6.32557,1.29222 7.10053,2.34133 8.1536,7.3344 0.28193,6.05822 -2.81519,9.19899 -8.1536,9.216 -4.83625,-2.06112 -4.91778,-2.05572 -6.528,-6.8864 0.10121,-6.41938 1.29917,-7.05426 6.528,-9.664 z m 153.088,0.4224 c 8.02043,0.12298 9.22937,2.96353 9.9328,9.92 -1.06463,3.84554 -2.53372,4.85874 -4.9664,5.7984 -6.95251,0.17658 -8.881,-1.39655 -10.3424,-5.7984 -0.36636,-6.53563 0.32701,-8.52558 5.376,-9.92 z"
         style="opacity:0.74122805;fill:#aa7939;stroke:#000000;stroke-width:0.40959996px;stroke-linecap:butt;stroke-linejoin:miter;stroke-opacity:1" />
      <path
         inkscape:export-ydpi="78.753075"
         inkscape:export-xdpi="78.753075"
         inkscape:export-filename="C:\S4L\VM\default\s4l\layout\inkscape\export\homeCassette.png"
         inkscape:connector-curvature="0"
         id="path4038"
         d="m 602.9801,707.17178 -196.5312,0.8192 -10.3552,41.3824 3.7248,4.544 211.0208,1.2416 3.3152,-4.1344 -11.1744,-43.8528 z m -54.6816,22.4128 c 1.8914,-0.006 3.91368,0.27473 5.5936,0.7808 l 0.4992,10.3168 c -4.0524,2.2549 -11.57501,1.92306 -11.8272,-1.2416 l 0,-8.2688 c 1.07025,-1.09315 3.3026,-1.57947 5.7344,-1.5872 z m -88.7168,0.96 c 1.28954,-0.002 2.85737,0.0507 4.7872,0.2048 1.50034,6.98918 0.55805,7.16182 0.1024,10.7392 -3.9913,1.04073 -10.57467,0.88766 -11.6864,-0.3968 0.24664,-3.28088 -0.10879,-5.94498 0.832,-9.92 0.77601,-0.0776 2.09617,-0.62176 5.9648,-0.6272 z m -33.28,2.688 c 6.32557,1.29222 7.10053,2.34133 8.1536,7.3344 0.28193,6.05822 -2.81519,9.19899 -8.1536,9.216 -4.83625,-2.06112 -4.91778,-2.05572 -6.528,-6.8864 0.10121,-6.41938 1.29917,-7.05426 6.528,-9.664 z m 153.088,0.4224 c 8.02043,0.12298 9.22937,2.96353 9.9328,9.92 -1.06463,3.84554 -2.53372,4.85874 -4.9664,5.7984 -6.95251,0.17658 -8.881,-1.39655 -10.3424,-5.7984 -0.36636,-6.53563 0.32701,-8.52558 5.376,-9.92 z"
         style="fill:#ffffff;fill-opacity:0.2513089;stroke:#000000;stroke-width:0.40959996px;stroke-linecap:butt;stroke-linejoin:miter;stroke-opacity:1" />
      <path
         inkscape:export-ydpi="78.753075"
         inkscape:export-xdpi="78.753075"
         inkscape:export-filename="C:\S4L\VM\default\s4l\layout\inkscape\export\homeCassette.png"
         sodipodi:nodetypes="ccccc"
         inkscape:connector-curvature="0"
         id="path4030-1"
         d="m 661.22199,669.98845 -313.29233,0 -0.41386,29.13572 313.70619,0 z"
         style="opacity:0.89912283;fill:url(#linearGradient6153);fill-opacity:1;stroke:#000000;stroke-width:0.3323234px;stroke-linecap:butt;stroke-linejoin:miter;stroke-opacity:1" />
    </g>
  </g>
</svg>
