<?xml version="1.0" encoding="UTF-8" standalone="no"?>
<!-- Created with Inkscape (http://www.inkscape.org/) -->

<svg
   xmlns:dc="http://purl.org/dc/elements/1.1/"
   xmlns:cc="http://creativecommons.org/ns#"
   xmlns:rdf="http://www.w3.org/1999/02/22-rdf-syntax-ns#"
   xmlns:svg="http://www.w3.org/2000/svg"
   xmlns="http://www.w3.org/2000/svg"
   xmlns:sodipodi="http://sodipodi.sourceforge.net/DTD/sodipodi-0.dtd"
   xmlns:inkscape="http://www.inkscape.org/namespaces/inkscape"
   width="37.206081"
   height="37.206001"
   id="svg3185"
   version="1.1"
   inkscape:version="0.48.5 r10040"
   sodipodi:docname="Documento nuevo 2">
  <defs
     id="defs3187" />
  <sodipodi:namedview
     id="base"
     pagecolor="#ffffff"
     bordercolor="#666666"
     borderopacity="1.0"
     inkscape:pageopacity="0.0"
     inkscape:pageshadow="2"
     inkscape:zoom="0.35"
     inkscape:cx="18.60304"
     inkscape:cy="18.602997"
     inkscape:document-units="px"
     inkscape:current-layer="layer1"
     showgrid="false"
     fit-margin-top="0"
     fit-margin-left="0"
     fit-margin-right="0"
     fit-margin-bottom="0"
     inkscape:window-width="504"
     inkscape:window-height="406"
     inkscape:window-x="1594"
     inkscape:window-y="234"
     inkscape:window-maximized="0" />
  <metadata
     id="metadata3190">
    <rdf:RDF>
      <cc:Work
         rdf:about="">
        <dc:format>image/svg+xml</dc:format>
        <dc:type
           rdf:resource="http://purl.org/dc/dcmitype/StillImage" />
        <dc:title></dc:title>
      </cc:Work>
    </rdf:RDF>
  </metadata>
  <g
     inkscape:label="Capa 1"
     inkscape:groupmode="layer"
     id="layer1"
     transform="translate(-331.39696,-513.75918)">
    <path
       style="fill:#ffdbaa;fill-opacity:1;fill-rule:nonzero;stroke:none"
       d="m 350,513.75918 c -10.2753,0 -18.60304,8.3277 -18.60304,18.603 0,10.2753 8.32773,18.603 18.60304,18.603 10.27529,0 18.60304,-8.3277 18.60304,-18.603 0,-10.2753 -8.32775,-18.603 -18.60304,-18.603 z m -0.0181,5.2555 3.99385,3.5839 0,-0.6348 4.47601,0 0,4.6528 7.11976,6.3885 -5.19925,0 0,10.6475 -6.58936,0 c 2.05154,-8.0929 -9.60588,-8.241 -7.56979,0 l -6.58941,0 0,-10.6636 -5.19117,0 7.77069,-6.9832 7.77867,-6.9912 z"
       id="path4438-7"
       inkscape:connector-curvature="0"
       inkscape:export-filename="C:\S4L\VM\default\s4l\layout\inkscape\export\homeIconBig.png"
       inkscape:export-xdpi="89.08316"
       inkscape:export-ydpi="89.08316" />
  </g>
</svg>
