<?xml version="1.0" encoding="UTF-8" standalone="no"?>
<!-- Created with Inkscape (http://www.inkscape.org/) -->

<svg
   xmlns:dc="http://purl.org/dc/elements/1.1/"
   xmlns:cc="http://creativecommons.org/ns#"
   xmlns:rdf="http://www.w3.org/1999/02/22-rdf-syntax-ns#"
   xmlns:svg="http://www.w3.org/2000/svg"
   xmlns="http://www.w3.org/2000/svg"
   xmlns:xlink="http://www.w3.org/1999/xlink"
   xmlns:sodipodi="http://sodipodi.sourceforge.net/DTD/sodipodi-0.dtd"
   xmlns:inkscape="http://www.inkscape.org/namespaces/inkscape"
   width="415.09354"
   height="423.41095"
   id="svg6911"
   version="1.1"
   inkscape:version="0.48.5 r10040"
   sodipodi:docname="rolls.svg">
  <defs
     id="defs6913">
    <radialGradient
       inkscape:collect="always"
       xlink:href="#linearGradient4498-0-5-4"
       id="radialGradient6845"
       gradientUnits="userSpaceOnUse"
       gradientTransform="matrix(-0.01000206,1.5726778,-1.48916,-0.00947089,1267.7862,-766.46978)"
       cx="701.04584"
       cy="344.07977"
       fx="701.04584"
       fy="344.07977"
       r="106.57911" />
    <linearGradient
       id="linearGradient4498-0-5-4">
      <stop
         style="stop-color:#553100;stop-opacity:1;"
         offset="0"
         id="stop4500-9-1-2" />
      <stop
         style="stop-color:#805215;stop-opacity:1;"
         offset="1"
         id="stop4502-4-7-7" />
    </linearGradient>
    <radialGradient
       inkscape:collect="always"
       xlink:href="#linearGradient4490-8-1-9"
       id="radialGradient6842"
       gradientUnits="userSpaceOnUse"
       gradientTransform="matrix(-0.02661885,1.7445894,-1.3012717,-0.01985473,895.96783,-418.73404)"
       cx="439.66348"
       cy="435.33246"
       fx="439.66348"
       fy="435.33246"
       r="162.61833" />
    <linearGradient
       id="linearGradient4490-8-1-9">
      <stop
         style="stop-color:#553100;stop-opacity:1;"
         offset="0"
         id="stop4492-2-5-3" />
      <stop
         style="stop-color:#805215;stop-opacity:1;"
         offset="1"
         id="stop4494-4-2-1" />
    </linearGradient>
  </defs>
  <sodipodi:namedview
     id="base"
     pagecolor="#ffffff"
     bordercolor="#666666"
     borderopacity="1.0"
     inkscape:pageopacity="0.0"
     inkscape:pageshadow="2"
     inkscape:zoom="0.7"
     inkscape:cx="443.21309"
     inkscape:cy="29.950321"
     inkscape:document-units="px"
     inkscape:current-layer="layer1"
     showgrid="false"
     fit-margin-top="0"
     fit-margin-left="0"
     fit-margin-right="0"
     fit-margin-bottom="0"
     inkscape:window-width="1680"
     inkscape:window-height="987"
     inkscape:window-x="1352"
     inkscape:window-y="-8"
     inkscape:window-maximized="1" />
  <metadata
     id="metadata6916">
    <rdf:RDF>
      <cc:Work
         rdf:about="">
        <dc:format>image/svg+xml</dc:format>
        <dc:type
           rdf:resource="http://purl.org/dc/dcmitype/StillImage" />
        <dc:title></dc:title>
      </cc:Work>
    </rdf:RDF>
  </metadata>
  <g
     inkscape:label="Capa 1"
     inkscape:groupmode="layer"
     id="layer1"
     transform="translate(19.288174,-47.799572)">
    <g
       transform="translate(-131.17192,-74.004633)"
       style="display:inline"
       id="g6847">
      <path
         inkscape:export-ydpi="78.753075"
         inkscape:export-xdpi="78.753075"
         inkscape:export-filename="C:\S4L\VM\default\s4l\layout\inkscape\export\homeCassetteLeft.png"
         inkscape:connector-curvature="0"
         id="path4036-0"
         d="m 308.32793,122.44689 c -79.98753,0.53783 -120.12417,48.65844 -168.46915,101.86322 -51.705001,95.18174 -25.60802,204.62288 40.96066,268.69714 48.1975,39.4353 95.3657,43.71665 154.70924,51.56975 72.20779,-10.54556 96.74698,-37.93268 141.7869,-72.18967 38.35589,-42.23155 43.12865,-78.8354 49.01719,-132.77316 0.75517,-106.00872 -65.66393,-177.30613 -148.28796,-207.59517 -26.36652,-6.74922 -49.3279,-9.70921 -69.71688,-9.57211 z m 15.23561,133.4113 c 40.22953,0 72.8677,33.76668 72.8677,75.42026 0,41.65358 -32.63817,75.42026 -72.8677,75.42026 -40.22952,0 -72.82781,-33.76668 -72.82781,-75.42026 0,-41.65358 32.59829,-75.42026 72.82781,-75.42026 z"
         style="fill:url(#radialGradient6842);fill-opacity:1;stroke:#000000;stroke-width:1.27628148px;stroke-linecap:butt;stroke-linejoin:miter;stroke-opacity:1" />
      <g
         transform="matrix(1.2762815,0,0,1.2762815,-146.34735,-495.49536)"
         inkscape:export-ydpi="78.753075"
         inkscape:export-xdpi="78.753075"
         inkscape:export-filename="C:\S4L\VM\default\s4l\layout\inkscape\export\homeCassetteLeft.png"
         id="g4669">
        <path
           sodipodi:nodetypes="cccccccccccccccccccccccccccccccc"
           id="path4060"
           transform="translate(0,308.2677)"
           style="fill:#ffdbaa;stroke:#000000;stroke-width:1px;stroke-linecap:butt;stroke-linejoin:miter;stroke-opacity:1"
           d="m 366.6875,303.65625 c 14.03027,2.77177 14.77208,3.67833 24.25,13.15625 l -6.0625,5.03125 4.40625,8.03125 L 398,325.90625 c 5.80219,10.14942 4.77938,16.02804 4.03125,27.25 l -8.5,-2.3125 -3.625,7.375 7.375,5.40625 c -9.21295,13.56968 -9.21738,12.70924 -23.53125,18.84375 l -2.0625,-8.09375 -8.03125,1 -1.125,8.09375 c -15.73716,0.36152 -16.6581,-2.90591 -28.15625,-12.125 l 8.0625,-7.0625 -6.0625,-7.375 -8.65625,5.28125 c -2.5712,-10.13847 -2.98619,-18.15226 -1.4375,-28.21875 l 8.78125,1.3125 3.625,-9.34375 -7.34375,-4.09375 c 5.97466,-7.9662 13.47906,-11.12254 22.21875,-15.15625 l 2.71875,8.375 9.34375,-1.9375 z M 348.5,257.1875 c -17.91732,4.13212 -34.80722,12.09047 -45.46875,25.28125 C 264.48662,322.65626 275.33848,370.72768 297,397.625 c 24.49513,24.06761 38.9938,30.50796 74.75,29.28125 35.37884,-4.71547 63.83932,-26.0088 75.75,-68.6875 C 448.34673,335.85092 448.40257,309.00704 428.3125,286.5 407.29408,261.39254 385.84652,251.64541 348.5,257.1875 z"
           inkscape:connector-curvature="0" />
        <g
           id="g4097"
           style="fill:#ffdbaa"
           inkscape:export-filename="C:\S4L\VM\default\s4l\layout\inkscape\export\homeCassette.png"
           inkscape:export-xdpi="78.753075"
           inkscape:export-ydpi="78.753075">
          <path
             sodipodi:nodetypes="ccccc"
             transform="translate(0,308.2677)"
             inkscape:connector-curvature="0"
             id="path4066"
             d="m 361.63461,275.3837 c 26.10286,4.29147 33.83849,8.17158 51.51778,24.24367 l 10.10152,-9.09138 C 404.4766,272.97243 382.822,262.44143 361.63461,264.27203 z"
             style="fill:#ffdbaa;stroke:#000000;stroke-width:1px;stroke-linecap:butt;stroke-linejoin:miter;stroke-opacity:1" />
          <path
             sodipodi:nodetypes="ccccc"
             transform="translate(0,308.2677)"
             inkscape:connector-curvature="0"
             id="path4068"
             d="m 423.25391,309.72889 10.10153,-5.05076 c 10.10071,22.30374 8.58734,33.83069 6.06091,56.56854 l -12.12183,-5.05076 c 3.67452,-17.02444 2.12011,-25.40881 -4.04061,-46.46702 z"
             style="fill:#ffdbaa;stroke:#000000;stroke-width:1px;stroke-linecap:butt;stroke-linejoin:miter;stroke-opacity:1" />
          <path
             sodipodi:nodetypes="ccccc"
             transform="translate(0,308.2677)"
             inkscape:connector-curvature="0"
             id="path4070"
             d="m 422.24376,370.33804 9.09137,7.07107 c -15.71948,18.65085 -27.29947,29.34265 -52.52793,36.36549 l -2.0203,-14.14213 c 22.14913,-4.49807 31.0396,-16.31507 45.45686,-29.29443 z"
             style="fill:#ffdbaa;stroke:#000000;stroke-width:1px;stroke-linecap:butt;stroke-linejoin:miter;stroke-opacity:1" />
          <path
             sodipodi:nodetypes="ccccc"
             transform="translate(0,308.2677)"
             inkscape:connector-curvature="0"
             id="path4072"
             d="m 318.19805,383.47003 c 18.86209,15.52211 27.32781,17.96421 47.47717,20.20305 l 1.01015,13.13198 c -27.22963,-3.70686 -41.77334,-6.39109 -58.58885,-26.26397 z"
             style="fill:#ffdbaa;stroke:#000000;stroke-width:1px;stroke-linecap:butt;stroke-linejoin:miter;stroke-opacity:1" />
          <path
             sodipodi:nodetypes="ccccc"
             transform="translate(0,308.2677)"
             inkscape:connector-curvature="0"
             id="path4074"
             d="m 300.0153,380.43957 10.10153,-8.08122 c -11.77932,-19.08588 -13.65686,-31.94017 -9.09137,-50.50763 l -13.13199,-4.04061 c -5.70272,29.75397 -0.83194,42.22804 12.12183,62.62946 z"
             style="fill:#ffdbaa;stroke:#000000;stroke-width:1px;stroke-linecap:butt;stroke-linejoin:miter;stroke-opacity:1" />
          <path
             sodipodi:nodetypes="ccccc"
             transform="translate(0,308.2677)"
             inkscape:connector-curvature="0"
             id="path4076"
             d="m 344.46202,265.28218 6.06091,11.11168 c -23.34017,12.68899 -32.30528,18.9595 -44.44671,38.38579 l -11.11168,-6.06091 c 13.93967,-24.15026 25.7644,-31.57002 49.49748,-43.43656 z"
             style="fill:#ffdbaa;stroke:#000000;stroke-width:1px;stroke-linecap:butt;stroke-linejoin:miter;stroke-opacity:1" />
        </g>
      </g>
    </g>
  </g>
</svg>
