<?xml version="1.0" encoding="UTF-8" standalone="no"?>
<!-- Created with Inkscape (http://www.inkscape.org/) -->

<svg
   xmlns:dc="http://purl.org/dc/elements/1.1/"
   xmlns:cc="http://creativecommons.org/ns#"
   xmlns:rdf="http://www.w3.org/1999/02/22-rdf-syntax-ns#"
   xmlns:svg="http://www.w3.org/2000/svg"
   xmlns="http://www.w3.org/2000/svg"
   xmlns:xlink="http://www.w3.org/1999/xlink"
   xmlns:sodipodi="http://sodipodi.sourceforge.net/DTD/sodipodi-0.dtd"
   xmlns:inkscape="http://www.inkscape.org/namespaces/inkscape"
   width="272.03436"
   height="276.18845"
   id="svg6911"
   version="1.1"
   inkscape:version="0.48.5 r10040"
   sodipodi:docname="leftRoll.svg">
  <defs
     id="defs6913">
    <radialGradient
       inkscape:collect="always"
       xlink:href="#linearGradient4498-0-5-4"
       id="radialGradient6845"
       gradientUnits="userSpaceOnUse"
       gradientTransform="matrix(-0.01000206,1.5726778,-1.48916,-0.00947089,1267.7862,-766.46978)"
       cx="701.04584"
       cy="344.07977"
       fx="701.04584"
       fy="344.07977"
       r="106.57911" />
    <linearGradient
       id="linearGradient4498-0-5-4">
      <stop
         style="stop-color:#553100;stop-opacity:1;"
         offset="0"
         id="stop4500-9-1-2" />
      <stop
         style="stop-color:#805215;stop-opacity:1;"
         offset="1"
         id="stop4502-4-7-7" />
    </linearGradient>
    <radialGradient
       inkscape:collect="always"
       xlink:href="#linearGradient4490-8-1-9"
       id="radialGradient6842"
       gradientUnits="userSpaceOnUse"
       gradientTransform="matrix(-0.02661885,1.7445894,-1.3012717,-0.01985473,895.96783,-418.73404)"
       cx="439.66348"
       cy="435.33246"
       fx="439.66348"
       fy="435.33246"
       r="162.61833" />
    <linearGradient
       id="linearGradient4490-8-1-9">
      <stop
         style="stop-color:#553100;stop-opacity:1;"
         offset="0"
         id="stop4492-2-5-3" />
      <stop
         style="stop-color:#805215;stop-opacity:1;"
         offset="1"
         id="stop4494-4-2-1" />
    </linearGradient>
    <radialGradient
       inkscape:collect="always"
       xlink:href="#linearGradient4498-0-5-4-8"
       id="radialGradient6845-9"
       gradientUnits="userSpaceOnUse"
       gradientTransform="matrix(-0.01000206,1.5726778,-1.48916,-0.00947089,1267.7862,-766.46978)"
       cx="701.04584"
       cy="344.07977"
       fx="701.04584"
       fy="344.07977"
       r="106.57911" />
    <linearGradient
       id="linearGradient4498-0-5-4-8">
      <stop
         style="stop-color:#553100;stop-opacity:1;"
         offset="0"
         id="stop4500-9-1-2-6" />
      <stop
         style="stop-color:#805215;stop-opacity:1;"
         offset="1"
         id="stop4502-4-7-7-5" />
    </linearGradient>
  </defs>
  <sodipodi:namedview
     id="base"
     pagecolor="#ffffff"
     bordercolor="#666666"
     borderopacity="1.0"
     inkscape:pageopacity="0.0"
     inkscape:pageshadow="2"
     inkscape:zoom="0.7"
     inkscape:cx="474.95819"
     inkscape:cy="-166.23437"
     inkscape:document-units="px"
     inkscape:current-layer="layer1"
     showgrid="false"
     fit-margin-top="0"
     fit-margin-left="0"
     fit-margin-right="0"
     fit-margin-bottom="0"
     inkscape:window-width="1680"
     inkscape:window-height="987"
     inkscape:window-x="1352"
     inkscape:window-y="-8"
     inkscape:window-maximized="1" />
  <metadata
     id="metadata6916">
    <rdf:RDF>
      <cc:Work
         rdf:about="">
        <dc:format>image/svg+xml</dc:format>
        <dc:type
           rdf:resource="http://purl.org/dc/dcmitype/StillImage" />
        <dc:title></dc:title>
      </cc:Work>
    </rdf:RDF>
  </metadata>
  <g
     inkscape:label="Capa 1"
     inkscape:groupmode="layer"
     id="layer1"
     transform="translate(51.033278,1.1626024)">
    <g
       transform="translate(-655.1519,-196.34917)"
       style="display:inline"
       id="g6859">
      <path
         sodipodi:nodetypes="cccccccsssss"
         inkscape:export-ydpi="78.753075"
         inkscape:export-xdpi="78.753075"
         inkscape:export-filename="C:\S4L\VM\default\s4l\layout\inkscape\export\homeCassetteRight.png"
         inkscape:connector-curvature="0"
         id="path4034"
         d="m 735.7227,195.81494 c -61.67537,3.03236 -103.45846,44.36398 -118.85371,75.10118 -24.67147,58.08695 -7.41011,113.57164 14.19863,145.65563 19.32525,33.33611 68.15529,52.71295 123.75942,54.1622 68.89527,-8.28833 101.24008,-45.38762 114.74568,-96.67833 12.2318,-52.32368 6.19636,-82.6321 -23.21237,-131.49687 -38.83136,-40.92729 -69.75816,-46.83114 -110.63765,-46.74381 z m 8.1363,64.13314 c 37.02541,0 67.04466,31.0067 67.04466,69.27816 0,38.27145 -30.01925,69.31803 -67.04466,69.31803 -37.02542,0 -67.04467,-31.04658 -67.04467,-69.31803 0,-38.27146 30.01925,-69.27816 67.04467,-69.27816 z"
         style="fill:url(#radialGradient6845-9);fill-opacity:1;stroke:#000000;stroke-width:1.27628148px;stroke-linecap:butt;stroke-linejoin:miter;stroke-opacity:1" />
      <g
         transform="matrix(1.2762815,0,0,1.2762815,-146.34735,-495.49536)"
         inkscape:export-ydpi="78.753075"
         inkscape:export-xdpi="78.753075"
         inkscape:export-filename="C:\S4L\VM\default\s4l\layout\inkscape\export\homeCassetteRight.png"
         id="g4658">
        <path
           sodipodi:nodetypes="sccccccccccccccccccccccccsccccccc"
           id="path4026"
           style="fill:#ffdbaa;fill-opacity:1;stroke:#000000;stroke-width:1px;stroke-linecap:butt;stroke-linejoin:miter;stroke-opacity:1"
           d="m 694.34375,612.04895 c 4.39854,0.0376 8.75928,1.11899 13.78125,2.90625 l -4.0625,9.09375 7.84375,5.3125 7.3125,-7.3125 c 8.15984,9.30997 9.5307,12.09157 12.375,23.46875 l -8.84375,1.53125 0,8.0625 9.09375,2.28125 C 730.47746,669.69621 731.23141,674.7651 720,684.67395 l -6.3125,-7.84375 -7.59375,3.53125 2.53125,9.59375 c -18.21442,5.87653 -14.78844,5.42468 -31.8125,-0.25 l 5.03125,-8.0625 -7.0625,-6.0625 -7.0625,10.09375 C 656.803,675.57178 654.81668,670.16359 652.0625,656.3927 l 9.84375,-1.78125 -0.25,-8.59375 -8.84375,-2 c 1.3873,-10.01905 6.4655,-16.48422 14.65625,-23.5 l 7.0625,7.59375 8.84375,-4.5625 -3.03125,-8.0625 c 5.16305,-2.44278 9.60146,-3.47511 14,-3.4375 z m -6,-48.4375 c -51.70109,5.27593 -77.86502,43.05276 -80.21875,81.65625 1.53979,28.84219 11.91962,50.31645 28.28125,67.6875 33.12132,25.3046 67.47986,23.56254 100,13.125 23.23969,-11.74259 38.62766,-43.16716 40.40625,-64.65625 4.84213,-31.361 -7.70378,-53.80059 -23.25,-72.71875 -20.65824,-19.94753 -32.52207,-24.68186 -65.21875,-25.09375 z"
           inkscape:connector-curvature="0" />
        <g
           id="g4208"
           style="fill:#ffdbaa;fill-opacity:1"
           inkscape:export-filename="C:\S4L\VM\default\s4l\layout\inkscape\export\homeCassette.png"
           inkscape:export-xdpi="78.753075"
           inkscape:export-ydpi="78.753075">
          <path
             sodipodi:nodetypes="ccccc"
             transform="translate(0,308.2677)"
             inkscape:connector-curvature="0"
             id="path4048"
             d="m 663.67022,272.35325 c 26.10005,-7.13437 43.77836,-9.53822 66.67007,0 l -5.76506,9.26469 c -21.704,-7.93272 -33.62167,-7.94727 -53.83394,-0.17332 z"
             style="fill:#ffdbaa;fill-opacity:1;stroke:#000000;stroke-width:1px;stroke-linecap:butt;stroke-linejoin:miter;stroke-opacity:1" />
          <path
             sodipodi:nodetypes="ccccc"
             transform="translate(0,308.2677)"
             inkscape:connector-curvature="0"
             id="path4050"
             d="m 650.53823,279.42431 c -20.48104,18.62914 -26.44661,30.20764 -31.31472,54.54824 l 9.09137,0 c 8.56254,-27.86514 10.22178,-33.67776 31.31473,-49.49747 z"
             style="fill:#ffdbaa;fill-opacity:1;stroke:#000000;stroke-width:1px;stroke-linecap:butt;stroke-linejoin:miter;stroke-opacity:1" />
          <path
             sodipodi:nodetypes="ccccc"
             transform="translate(0,308.2677)"
             inkscape:connector-curvature="0"
             id="path4052"
             d="m 770.74639,337.00301 -10.10153,1.01015 c 1.22425,-23.1718 -16.35854,-35.38535 -25.25381,-51.51778 l 5.05076,-7.07107 c 19.85768,17.64116 26.23079,33.13595 30.30458,57.5787 z"
             style="fill:#ffdbaa;fill-opacity:1;stroke:#000000;stroke-width:1px;stroke-linecap:butt;stroke-linejoin:miter;stroke-opacity:1" />
          <path
             sodipodi:nodetypes="ccccc"
             transform="translate(0,308.2677)"
             inkscape:connector-curvature="0"
             id="path4054"
             d="m 759.63471,349.12484 10.10152,2.0203 c -6.74888,22.39553 -13.23009,36.53761 -30.30457,50.50763 l -8.08122,-8.08122 c 16.42242,-13.83729 26.43013,-27.13809 28.28427,-44.44671 z"
             style="fill:#ffdbaa;fill-opacity:1;stroke:#000000;stroke-width:1px;stroke-linecap:butt;stroke-linejoin:miter;stroke-opacity:1" />
          <path
             sodipodi:nodetypes="ccccc"
             transform="translate(0,308.2677)"
             inkscape:connector-curvature="0"
             id="path4056"
             d="m 668.72098,398.62231 c 20.73768,7.29707 34.06946,7.57879 52.52793,1.01016 l 6.06092,11.11167 c -26.09493,8.5667 -41.14035,6.7127 -63.63961,-1.01015 z"
             style="fill:#ffdbaa;fill-opacity:1;stroke:#000000;stroke-width:1px;stroke-linecap:butt;stroke-linejoin:miter;stroke-opacity:1" />
          <path
             sodipodi:nodetypes="ccccc"
             transform="translate(0,308.2677)"
             inkscape:connector-curvature="0"
             id="path4058"
             d="m 620.23366,347.10453 10.10152,-1.01015 c 4.32281,21.81331 11.48455,34.09557 26.26397,47.47717 l -6.06092,7.07107 c -19.65325,-15.30595 -25.78774,-33.37401 -30.30457,-53.53809 z"
             style="fill:#ffdbaa;fill-opacity:1;stroke:#000000;stroke-width:1px;stroke-linecap:butt;stroke-linejoin:miter;stroke-opacity:1" />
        </g>
      </g>
    </g>
  </g>
</svg>
