<?xml version="1.0" encoding="UTF-8" standalone="no"?>
<!-- Created with Inkscape (http://www.inkscape.org/) -->

<svg
   xmlns:dc="http://purl.org/dc/elements/1.1/"
   xmlns:cc="http://creativecommons.org/ns#"
   xmlns:rdf="http://www.w3.org/1999/02/22-rdf-syntax-ns#"
   xmlns:svg="http://www.w3.org/2000/svg"
   xmlns="http://www.w3.org/2000/svg"
   xmlns:xlink="http://www.w3.org/1999/xlink"
   xmlns:sodipodi="http://sodipodi.sourceforge.net/DTD/sodipodi-0.dtd"
   xmlns:inkscape="http://www.inkscape.org/namespaces/inkscape"
   width="764.25989"
   height="423.4108"
   id="svg6911"
   version="1.1"
   inkscape:version="0.48.5 r10040"
   sodipodi:docname="Documento nuevo 13">
  <defs
     id="defs6913">
    <radialGradient
       inkscape:collect="always"
       xlink:href="#linearGradient4498-0-5-4"
       id="radialGradient6845"
       gradientUnits="userSpaceOnUse"
       gradientTransform="matrix(-0.01000206,1.5726778,-1.48916,-0.00947089,1267.7862,-766.46978)"
       cx="701.04584"
       cy="344.07977"
       fx="701.04584"
       fy="344.07977"
       r="106.57911" />
    <linearGradient
       id="linearGradient4498-0-5-4">
      <stop
         style="stop-color:#553100;stop-opacity:1;"
         offset="0"
         id="stop4500-9-1-2" />
      <stop
         style="stop-color:#805215;stop-opacity:1;"
         offset="1"
         id="stop4502-4-7-7" />
    </linearGradient>
    <radialGradient
       inkscape:collect="always"
       xlink:href="#linearGradient4490-8-1-9"
       id="radialGradient6842"
       gradientUnits="userSpaceOnUse"
       gradientTransform="matrix(-0.02661885,1.7445894,-1.3012717,-0.01985473,895.96783,-418.73404)"
       cx="439.66348"
       cy="435.33246"
       fx="439.66348"
       fy="435.33246"
       r="162.61833" />
    <linearGradient
       id="linearGradient4490-8-1-9">
      <stop
         style="stop-color:#553100;stop-opacity:1;"
         offset="0"
         id="stop4492-2-5-3" />
      <stop
         style="stop-color:#805215;stop-opacity:1;"
         offset="1"
         id="stop4494-4-2-1" />
    </linearGradient>
  </defs>
  <sodipodi:namedview
     id="base"
     pagecolor="#ffffff"
     bordercolor="#666666"
     borderopacity="1.0"
     inkscape:pageopacity="0.0"
     inkscape:pageshadow="2"
     inkscape:zoom="0.7"
     inkscape:cx="443.20373"
     inkscape:cy="29.953921"
     inkscape:document-units="px"
     inkscape:current-layer="layer1"
     showgrid="false"
     fit-margin-top="0"
     fit-margin-left="0"
     fit-margin-right="0"
     fit-margin-bottom="0"
     inkscape:window-width="1680"
     inkscape:window-height="987"
     inkscape:window-x="1352"
     inkscape:window-y="-8"
     inkscape:window-maximized="1" />
  <metadata
     id="metadata6916">
    <rdf:RDF>
      <cc:Work
         rdf:about="">
        <dc:format>image/svg+xml</dc:format>
        <dc:type
           rdf:resource="http://purl.org/dc/dcmitype/StillImage" />
        <dc:title></dc:title>
      </cc:Work>
    </rdf:RDF>
  </metadata>
  <g
     inkscape:label="Capa 1"
     inkscape:groupmode="layer"
     id="layer1"
     transform="translate(19.278821,-47.803311)">
    <g
       transform="translate(-131.17192,-74.004633)"
       style="display:inline"
       id="g6859">
      <path
         sodipodi:nodetypes="cccccccsssss"
         inkscape:export-ydpi="78.753075"
         inkscape:export-xdpi="78.753075"
         inkscape:export-filename="C:\S4L\VM\default\s4l\layout\inkscape\export\homeCassetteRight.png"
         inkscape:connector-curvature="0"
         id="path4034"
         d="m 735.7227,195.81494 c -61.67537,3.03236 -103.45846,44.36398 -118.85371,75.10118 -24.67147,58.08695 -7.41011,113.57164 14.19863,145.65563 19.32525,33.33611 68.15529,52.71295 123.75942,54.1622 68.89527,-8.28833 101.24008,-45.38762 114.74568,-96.67833 12.2318,-52.32368 6.19636,-82.6321 -23.21237,-131.49687 -38.83136,-40.92729 -69.75816,-46.83114 -110.63765,-46.74381 z m 8.1363,64.13314 c 37.02541,0 67.04466,31.0067 67.04466,69.27816 0,38.27145 -30.01925,69.31803 -67.04466,69.31803 -37.02542,0 -67.04467,-31.04658 -67.04467,-69.31803 0,-38.27146 30.01925,-69.27816 67.04467,-69.27816 z"
         style="fill:url(#radialGradient6845);fill-opacity:1;stroke:#000000;stroke-width:1.27628148px;stroke-linecap:butt;stroke-linejoin:miter;stroke-opacity:1" />
      <g
         transform="matrix(1.2762815,0,0,1.2762815,-146.34735,-495.49536)"
         inkscape:export-ydpi="78.753075"
         inkscape:export-xdpi="78.753075"
         inkscape:export-filename="C:\S4L\VM\default\s4l\layout\inkscape\export\homeCassetteRight.png"
         id="g4658">
        <path
           sodipodi:nodetypes="sccccccccccccccccccccccccsccccccc"
           id="path4026"
           style="fill:#ffdbaa;fill-opacity:1;stroke:#000000;stroke-width:1px;stroke-linecap:butt;stroke-linejoin:miter;stroke-opacity:1"
           d="m 694.34375,612.04895 c 4.39854,0.0376 8.75928,1.11899 13.78125,2.90625 l -4.0625,9.09375 7.84375,5.3125 7.3125,-7.3125 c 8.15984,9.30997 9.5307,12.09157 12.375,23.46875 l -8.84375,1.53125 0,8.0625 9.09375,2.28125 C 730.47746,669.69621 731.23141,674.7651 720,684.67395 l -6.3125,-7.84375 -7.59375,3.53125 2.53125,9.59375 c -18.21442,5.87653 -14.78844,5.42468 -31.8125,-0.25 l 5.03125,-8.0625 -7.0625,-6.0625 -7.0625,10.09375 C 656.803,675.57178 654.81668,670.16359 652.0625,656.3927 l 9.84375,-1.78125 -0.25,-8.59375 -8.84375,-2 c 1.3873,-10.01905 6.4655,-16.48422 14.65625,-23.5 l 7.0625,7.59375 8.84375,-4.5625 -3.03125,-8.0625 c 5.16305,-2.44278 9.60146,-3.47511 14,-3.4375 z m -6,-48.4375 c -51.70109,5.27593 -77.86502,43.05276 -80.21875,81.65625 1.53979,28.84219 11.91962,50.31645 28.28125,67.6875 33.12132,25.3046 67.47986,23.56254 100,13.125 23.23969,-11.74259 38.62766,-43.16716 40.40625,-64.65625 4.84213,-31.361 -7.70378,-53.80059 -23.25,-72.71875 -20.65824,-19.94753 -32.52207,-24.68186 -65.21875,-25.09375 z"
           inkscape:connector-curvature="0" />
        <g
           id="g4208"
           style="fill:#ffdbaa;fill-opacity:1"
           inkscape:export-filename="C:\S4L\VM\default\s4l\layout\inkscape\export\homeCassette.png"
           inkscape:export-xdpi="78.753075"
           inkscape:export-ydpi="78.753075">
          <path
             sodipodi:nodetypes="ccccc"
             transform="translate(0,308.2677)"
             inkscape:connector-curvature="0"
             id="path4048"
             d="m 663.67022,272.35325 c 26.10005,-7.13437 43.77836,-9.53822 66.67007,0 l -5.76506,9.26469 c -21.704,-7.93272 -33.62167,-7.94727 -53.83394,-0.17332 z"
             style="fill:#ffdbaa;fill-opacity:1;stroke:#000000;stroke-width:1px;stroke-linecap:butt;stroke-linejoin:miter;stroke-opacity:1" />
          <path
             sodipodi:nodetypes="ccccc"
             transform="translate(0,308.2677)"
             inkscape:connector-curvature="0"
             id="path4050"
             d="m 650.53823,279.42431 c -20.48104,18.62914 -26.44661,30.20764 -31.31472,54.54824 l 9.09137,0 c 8.56254,-27.86514 10.22178,-33.67776 31.31473,-49.49747 z"
             style="fill:#ffdbaa;fill-opacity:1;stroke:#000000;stroke-width:1px;stroke-linecap:butt;stroke-linejoin:miter;stroke-opacity:1" />
          <path
             sodipodi:nodetypes="ccccc"
             transform="translate(0,308.2677)"
             inkscape:connector-curvature="0"
             id="path4052"
             d="m 770.74639,337.00301 -10.10153,1.01015 c 1.22425,-23.1718 -16.35854,-35.38535 -25.25381,-51.51778 l 5.05076,-7.07107 c 19.85768,17.64116 26.23079,33.13595 30.30458,57.5787 z"
             style="fill:#ffdbaa;fill-opacity:1;stroke:#000000;stroke-width:1px;stroke-linecap:butt;stroke-linejoin:miter;stroke-opacity:1" />
          <path
             sodipodi:nodetypes="ccccc"
             transform="translate(0,308.2677)"
             inkscape:connector-curvature="0"
             id="path4054"
             d="m 759.63471,349.12484 10.10152,2.0203 c -6.74888,22.39553 -13.23009,36.53761 -30.30457,50.50763 l -8.08122,-8.08122 c 16.42242,-13.83729 26.43013,-27.13809 28.28427,-44.44671 z"
             style="fill:#ffdbaa;fill-opacity:1;stroke:#000000;stroke-width:1px;stroke-linecap:butt;stroke-linejoin:miter;stroke-opacity:1" />
          <path
             sodipodi:nodetypes="ccccc"
             transform="translate(0,308.2677)"
             inkscape:connector-curvature="0"
             id="path4056"
             d="m 668.72098,398.62231 c 20.73768,7.29707 34.06946,7.57879 52.52793,1.01016 l 6.06092,11.11167 c -26.09493,8.5667 -41.14035,6.7127 -63.63961,-1.01015 z"
             style="fill:#ffdbaa;fill-opacity:1;stroke:#000000;stroke-width:1px;stroke-linecap:butt;stroke-linejoin:miter;stroke-opacity:1" />
          <path
             sodipodi:nodetypes="ccccc"
             transform="translate(0,308.2677)"
             inkscape:connector-curvature="0"
             id="path4058"
             d="m 620.23366,347.10453 10.10152,-1.01015 c 4.32281,21.81331 11.48455,34.09557 26.26397,47.47717 l -6.06092,7.07107 c -19.65325,-15.30595 -25.78774,-33.37401 -30.30457,-53.53809 z"
             style="fill:#ffdbaa;fill-opacity:1;stroke:#000000;stroke-width:1px;stroke-linecap:butt;stroke-linejoin:miter;stroke-opacity:1" />
        </g>
      </g>
    </g>
    <g
       transform="translate(-131.17192,-74.004633)"
       style="display:inline"
       id="g6847">
      <path
         inkscape:export-ydpi="78.753075"
         inkscape:export-xdpi="78.753075"
         inkscape:export-filename="C:\S4L\VM\default\s4l\layout\inkscape\export\homeCassetteLeft.png"
         inkscape:connector-curvature="0"
         id="path4036-0"
         d="m 308.32793,122.44689 c -79.98753,0.53783 -120.12417,48.65844 -168.46915,101.86322 -51.705001,95.18174 -25.60802,204.62288 40.96066,268.69714 48.1975,39.4353 95.3657,43.71665 154.70924,51.56975 72.20779,-10.54556 96.74698,-37.93268 141.7869,-72.18967 38.35589,-42.23155 43.12865,-78.8354 49.01719,-132.77316 0.75517,-106.00872 -65.66393,-177.30613 -148.28796,-207.59517 -26.36652,-6.74922 -49.3279,-9.70921 -69.71688,-9.57211 z m 15.23561,133.4113 c 40.22953,0 72.8677,33.76668 72.8677,75.42026 0,41.65358 -32.63817,75.42026 -72.8677,75.42026 -40.22952,0 -72.82781,-33.76668 -72.82781,-75.42026 0,-41.65358 32.59829,-75.42026 72.82781,-75.42026 z"
         style="fill:url(#radialGradient6842);fill-opacity:1;stroke:#000000;stroke-width:1.27628148px;stroke-linecap:butt;stroke-linejoin:miter;stroke-opacity:1" />
      <g
         transform="matrix(1.2762815,0,0,1.2762815,-146.34735,-495.49536)"
         inkscape:export-ydpi="78.753075"
         inkscape:export-xdpi="78.753075"
         inkscape:export-filename="C:\S4L\VM\default\s4l\layout\inkscape\export\homeCassetteLeft.png"
         id="g4669">
        <path
           sodipodi:nodetypes="cccccccccccccccccccccccccccccccc"
           id="path4060"
           transform="translate(0,308.2677)"
           style="fill:#ffdbaa;stroke:#000000;stroke-width:1px;stroke-linecap:butt;stroke-linejoin:miter;stroke-opacity:1"
           d="m 366.6875,303.65625 c 14.03027,2.77177 14.77208,3.67833 24.25,13.15625 l -6.0625,5.03125 4.40625,8.03125 L 398,325.90625 c 5.80219,10.14942 4.77938,16.02804 4.03125,27.25 l -8.5,-2.3125 -3.625,7.375 7.375,5.40625 c -9.21295,13.56968 -9.21738,12.70924 -23.53125,18.84375 l -2.0625,-8.09375 -8.03125,1 -1.125,8.09375 c -15.73716,0.36152 -16.6581,-2.90591 -28.15625,-12.125 l 8.0625,-7.0625 -6.0625,-7.375 -8.65625,5.28125 c -2.5712,-10.13847 -2.98619,-18.15226 -1.4375,-28.21875 l 8.78125,1.3125 3.625,-9.34375 -7.34375,-4.09375 c 5.97466,-7.9662 13.47906,-11.12254 22.21875,-15.15625 l 2.71875,8.375 9.34375,-1.9375 z M 348.5,257.1875 c -17.91732,4.13212 -34.80722,12.09047 -45.46875,25.28125 C 264.48662,322.65626 275.33848,370.72768 297,397.625 c 24.49513,24.06761 38.9938,30.50796 74.75,29.28125 35.37884,-4.71547 63.83932,-26.0088 75.75,-68.6875 C 448.34673,335.85092 448.40257,309.00704 428.3125,286.5 407.29408,261.39254 385.84652,251.64541 348.5,257.1875 z"
           inkscape:connector-curvature="0" />
        <g
           id="g4097"
           style="fill:#ffdbaa"
           inkscape:export-filename="C:\S4L\VM\default\s4l\layout\inkscape\export\homeCassette.png"
           inkscape:export-xdpi="78.753075"
           inkscape:export-ydpi="78.753075">
          <path
             sodipodi:nodetypes="ccccc"
             transform="translate(0,308.2677)"
             inkscape:connector-curvature="0"
             id="path4066"
             d="m 361.63461,275.3837 c 26.10286,4.29147 33.83849,8.17158 51.51778,24.24367 l 10.10152,-9.09138 C 404.4766,272.97243 382.822,262.44143 361.63461,264.27203 z"
             style="fill:#ffdbaa;stroke:#000000;stroke-width:1px;stroke-linecap:butt;stroke-linejoin:miter;stroke-opacity:1" />
          <path
             sodipodi:nodetypes="ccccc"
             transform="translate(0,308.2677)"
             inkscape:connector-curvature="0"
             id="path4068"
             d="m 423.25391,309.72889 10.10153,-5.05076 c 10.10071,22.30374 8.58734,33.83069 6.06091,56.56854 l -12.12183,-5.05076 c 3.67452,-17.02444 2.12011,-25.40881 -4.04061,-46.46702 z"
             style="fill:#ffdbaa;stroke:#000000;stroke-width:1px;stroke-linecap:butt;stroke-linejoin:miter;stroke-opacity:1" />
          <path
             sodipodi:nodetypes="ccccc"
             transform="translate(0,308.2677)"
             inkscape:connector-curvature="0"
             id="path4070"
             d="m 422.24376,370.33804 9.09137,7.07107 c -15.71948,18.65085 -27.29947,29.34265 -52.52793,36.36549 l -2.0203,-14.14213 c 22.14913,-4.49807 31.0396,-16.31507 45.45686,-29.29443 z"
             style="fill:#ffdbaa;stroke:#000000;stroke-width:1px;stroke-linecap:butt;stroke-linejoin:miter;stroke-opacity:1" />
          <path
             sodipodi:nodetypes="ccccc"
             transform="translate(0,308.2677)"
             inkscape:connector-curvature="0"
             id="path4072"
             d="m 318.19805,383.47003 c 18.86209,15.52211 27.32781,17.96421 47.47717,20.20305 l 1.01015,13.13198 c -27.22963,-3.70686 -41.77334,-6.39109 -58.58885,-26.26397 z"
             style="fill:#ffdbaa;stroke:#000000;stroke-width:1px;stroke-linecap:butt;stroke-linejoin:miter;stroke-opacity:1" />
          <path
             sodipodi:nodetypes="ccccc"
             transform="translate(0,308.2677)"
             inkscape:connector-curvature="0"
             id="path4074"
             d="m 300.0153,380.43957 10.10153,-8.08122 c -11.77932,-19.08588 -13.65686,-31.94017 -9.09137,-50.50763 l -13.13199,-4.04061 c -5.70272,29.75397 -0.83194,42.22804 12.12183,62.62946 z"
             style="fill:#ffdbaa;stroke:#000000;stroke-width:1px;stroke-linecap:butt;stroke-linejoin:miter;stroke-opacity:1" />
          <path
             sodipodi:nodetypes="ccccc"
             transform="translate(0,308.2677)"
             inkscape:connector-curvature="0"
             id="path4076"
             d="m 344.46202,265.28218 6.06091,11.11168 c -23.34017,12.68899 -32.30528,18.9595 -44.44671,38.38579 l -11.11168,-6.06091 c 13.93967,-24.15026 25.7644,-31.57002 49.49748,-43.43656 z"
             style="fill:#ffdbaa;stroke:#000000;stroke-width:1px;stroke-linecap:butt;stroke-linejoin:miter;stroke-opacity:1" />
        </g>
      </g>
    </g>
  </g>
</svg>
