<?xml version="1.0" encoding="UTF-8" standalone="no"?>
<!-- Created with Inkscape (http://www.inkscape.org/) -->

<svg
   xmlns:dc="http://purl.org/dc/elements/1.1/"
   xmlns:cc="http://creativecommons.org/ns#"
   xmlns:rdf="http://www.w3.org/1999/02/22-rdf-syntax-ns#"
   xmlns:svg="http://www.w3.org/2000/svg"
   xmlns="http://www.w3.org/2000/svg"
   xmlns:sodipodi="http://sodipodi.sourceforge.net/DTD/sodipodi-0.dtd"
   xmlns:inkscape="http://www.inkscape.org/namespaces/inkscape"
   width="70.018562"
   height="70.018562"
   id="svg6534"
   version="1.1"
   inkscape:version="0.48.5 r10040"
   sodipodi:docname="Documento nuevo 38">
  <defs
     id="defs6536">
    <clipPath
       clipPathUnits="userSpaceOnUse"
       id="clipPath5010">
      <path
         sodipodi:type="arc"
         style="fill:#ffffff;fill-opacity:1;fill-rule:nonzero;stroke:none"
         id="path5012"
         sodipodi:cx="671.78571"
         sodipodi:cy="373.92856"
         sodipodi:rx="36.07143"
         sodipodi:ry="36.785713"
         d="m 707.85714,373.92856 a 36.07143,36.785713 0 1 1 -72.14286,0 36.07143,36.785713 0 1 1 72.14286,0 z"
         transform="matrix(0.97029699,0,0,0.95145634,-924.68879,1016.5856)" />
    </clipPath>
  </defs>
  <sodipodi:namedview
     id="base"
     pagecolor="#ffffff"
     bordercolor="#666666"
     borderopacity="1.0"
     inkscape:pageopacity="0.0"
     inkscape:pageshadow="2"
     inkscape:zoom="0.35"
     inkscape:cx="35.009282"
     inkscape:cy="35.00928"
     inkscape:document-units="px"
     inkscape:current-layer="layer1"
     showgrid="false"
     fit-margin-top="0"
     fit-margin-left="0"
     fit-margin-right="0"
     fit-margin-bottom="0"
     inkscape:window-width="504"
     inkscape:window-height="406"
     inkscape:window-x="1998"
     inkscape:window-y="78"
     inkscape:window-maximized="0" />
  <metadata
     id="metadata6539">
    <rdf:RDF>
      <cc:Work
         rdf:about="">
        <dc:format>image/svg+xml</dc:format>
        <dc:type
           rdf:resource="http://purl.org/dc/dcmitype/StillImage" />
        <dc:title></dc:title>
      </cc:Work>
    </rdf:RDF>
  </metadata>
  <g
     inkscape:label="Capa 1"
     inkscape:groupmode="layer"
     id="layer1"
     transform="translate(-314.99072,-497.3529)">
    <g
       transform="translate(-266.52801,-404.32493)"
       id="g6043">
      <path
         transform="matrix(0.92789962,0.28368739,-0.27817892,0.90988222,97.197352,405.87903)"
         d="m 707.85714,373.92856 c 0,20.31619 -16.14973,36.78571 -36.07143,36.78571 -19.92171,0 -36.07143,-16.46952 -36.07143,-36.78571 0,-20.31619 16.14972,-36.78571 36.07143,-36.78571 19.9217,0 36.07143,16.46952 36.07143,36.78571 z"
         sodipodi:ry="36.785713"
         sodipodi:rx="36.07143"
         sodipodi:cy="373.92856"
         sodipodi:cx="671.78571"
         id="path4062-5"
         style="fill:#ffffff;fill-opacity:1;fill-rule:nonzero;stroke:none"
         sodipodi:type="arc" />
      <g
         transform="matrix(0.95630474,0.29237171,-0.29237171,0.95630474,1278.7025,-295.93375)"
         clip-path="url(#clipPath5010)"
         id="g4985">
        <g
           id="g4669-2-3-7"
           transform="matrix(1.5306425,0,0,1.5306425,-869.21227,13.555945)"
           inkscape:export-filename="C:\S4L\VM\default\s4l\layout\inkscape\export\noteTesterScoreBg.png"
           inkscape:export-xdpi="89.08316"
           inkscape:export-ydpi="89.08316">
          <path
             sodipodi:nodetypes="ccccc"
             transform="translate(0,308.2677)"
             inkscape:connector-curvature="0"
             id="path4620-4-4"
             d="m 349.10714,563.55877 0,29.28571 79.75,0.17857 L 428.5,563.73734 z"
             style="fill:none;stroke:#000000;stroke-width:1px;stroke-linecap:butt;stroke-linejoin:miter;stroke-opacity:1" />
          <path
             sodipodi:nodetypes="cc"
             transform="translate(0,308.2677)"
             inkscape:connector-curvature="0"
             id="path4622-1-2"
             d="m 348.92857,571.23734 79.75,0"
             style="fill:none;stroke:#000000;stroke-width:1px;stroke-linecap:butt;stroke-linejoin:miter;stroke-opacity:1" />
          <path
             sodipodi:nodetypes="cc"
             inkscape:connector-curvature="0"
             id="path4622-3-1-7"
             d="m 349.375,886.82647 79.75,0"
             style="fill:none;stroke:#000000;stroke-width:1px;stroke-linecap:butt;stroke-linejoin:miter;stroke-opacity:1" />
          <path
             sodipodi:nodetypes="cc"
             inkscape:connector-curvature="0"
             id="path4622-6-3-7"
             d="m 349.01786,893.79075 79.75,0"
             style="fill:none;stroke:#000000;stroke-width:1px;stroke-linecap:butt;stroke-linejoin:miter;stroke-opacity:1" />
        </g>
        <g
           id="g4350-76-9-6"
           transform="matrix(1.2,0,0,1.2,-76.428567,67.456217)"
           inkscape:export-filename="C:\S4L\VM\default\s4l\layout\inkscape\export\natural.png"
           inkscape:export-xdpi="78.753075"
           inkscape:export-ydpi="78.753075">
          <path
             inkscape:export-ydpi="78.753075"
             inkscape:export-xdpi="78.753075"
             inkscape:export-filename="C:\S4L\VM\default\s4l\layout\inkscape\export\natural.png"
             sodipodi:nodetypes="scccscccc"
             inkscape:connector-curvature="0"
             id="path4651-1-0-1-5-3-0"
             d="m -201.96472,1100.3612 c -2.66763,0.1377 -4.95048,2.0461 -5.24553,4.8572 -0.21412,2.8934 2.93318,4.5623 6.29018,3.2411 3.52174,-1.5056 4.52154,-4.173 3.44197,-5.9063 -1.26909,-1.7126 -2.88604,-2.2746 -4.48662,-2.192 z m 0.33929,1.1161 c 0.64946,0.01 1.46979,0.2252 2.55357,1.0759 2.10006,3.9209 -4.63236,7.5415 -6.5,4.0625 -1.21683,-2.4386 1.09006,-5.1858 3.94643,-5.1384 z"
             style="fill:#000000;fill-opacity:1;stroke:#000000;stroke-width:1px;stroke-linecap:butt;stroke-linejoin:miter;stroke-opacity:1" />
          <rect
             y="1086.6478"
             x="-227.85715"
             height="27.142857"
             width="37.857143"
             id="rect4348-13-1-2"
             style="fill:none;stroke:none" />
        </g>
        <g
           id="g4350-76-9-4"
           transform="matrix(1.2,0,0,1.2,-58.714286,61.741931)"
           inkscape:export-filename="C:\S4L\VM\default\s4l\layout\inkscape\export\natural.png"
           inkscape:export-xdpi="78.753075"
           inkscape:export-ydpi="78.753075">
          <path
             inkscape:export-ydpi="78.753075"
             inkscape:export-xdpi="78.753075"
             inkscape:export-filename="C:\S4L\VM\default\s4l\layout\inkscape\export\natural.png"
             sodipodi:nodetypes="scccscccc"
             inkscape:connector-curvature="0"
             id="path4651-1-0-1-5-3-8"
             d="m -201.96472,1100.3612 c -2.66763,0.1377 -4.95048,2.0461 -5.24553,4.8572 -0.21412,2.8934 2.93318,4.5623 6.29018,3.2411 3.52174,-1.5056 4.52154,-4.173 3.44197,-5.9063 -1.26909,-1.7126 -2.88604,-2.2746 -4.48662,-2.192 z m 0.33929,1.1161 c 0.64946,0.01 1.46979,0.2252 2.55357,1.0759 2.10006,3.9209 -4.63236,7.5415 -6.5,4.0625 -1.21683,-2.4386 1.09006,-5.1858 3.94643,-5.1384 z"
             style="fill:#000000;fill-opacity:1;stroke:#000000;stroke-width:1px;stroke-linecap:butt;stroke-linejoin:miter;stroke-opacity:1" />
          <rect
             y="1086.6478"
             x="-227.85715"
             height="27.142857"
             width="37.857143"
             id="rect4348-13-1-6"
             style="fill:none;stroke:none" />
        </g>
        <g
           id="g4350-76-9-5"
           transform="matrix(1.2,0,0,1.2,-40.999993,56.027645)"
           inkscape:export-filename="C:\S4L\VM\default\s4l\layout\inkscape\export\natural.png"
           inkscape:export-xdpi="78.753075"
           inkscape:export-ydpi="78.753075">
          <path
             inkscape:export-ydpi="78.753075"
             inkscape:export-xdpi="78.753075"
             inkscape:export-filename="C:\S4L\VM\default\s4l\layout\inkscape\export\natural.png"
             sodipodi:nodetypes="scccscccc"
             inkscape:connector-curvature="0"
             id="path4651-1-0-1-5-3-09"
             d="m -201.96472,1100.3612 c -2.66763,0.1377 -4.95048,2.0461 -5.24553,4.8572 -0.21412,2.8934 2.93318,4.5623 6.29018,3.2411 3.52174,-1.5056 4.52154,-4.173 3.44197,-5.9063 -1.26909,-1.7126 -2.88604,-2.2746 -4.48662,-2.192 z m 0.33929,1.1161 c 0.64946,0.01 1.46979,0.2252 2.55357,1.0759 2.10006,3.9209 -4.63236,7.5415 -6.5,4.0625 -1.21683,-2.4386 1.09006,-5.1858 3.94643,-5.1384 z"
             style="fill:#000000;fill-opacity:1;stroke:#000000;stroke-width:1px;stroke-linecap:butt;stroke-linejoin:miter;stroke-opacity:1" />
          <rect
             y="1086.6478"
             x="-227.85715"
             height="27.142857"
             width="37.857143"
             id="rect4348-13-1-0"
             style="fill:none;stroke:none" />
        </g>
        <g
           id="g4350-76-9-0"
           transform="matrix(1.2,0,0,1.2,-23.285703,50.670503)"
           inkscape:export-filename="C:\S4L\VM\default\s4l\layout\inkscape\export\natural.png"
           inkscape:export-xdpi="78.753075"
           inkscape:export-ydpi="78.753075">
          <path
             inkscape:export-ydpi="78.753075"
             inkscape:export-xdpi="78.753075"
             inkscape:export-filename="C:\S4L\VM\default\s4l\layout\inkscape\export\natural.png"
             sodipodi:nodetypes="scccscccc"
             inkscape:connector-curvature="0"
             id="path4651-1-0-1-5-3-6"
             d="m -201.96472,1100.3612 c -2.66763,0.1377 -4.95048,2.0461 -5.24553,4.8572 -0.21412,2.8934 2.93318,4.5623 6.29018,3.2411 3.52174,-1.5056 4.52154,-4.173 3.44197,-5.9063 -1.26909,-1.7126 -2.88604,-2.2746 -4.48662,-2.192 z m 0.33929,1.1161 c 0.64946,0.01 1.46979,0.2252 2.55357,1.0759 2.10006,3.9209 -4.63236,7.5415 -6.5,4.0625 -1.21683,-2.4386 1.09006,-5.1858 3.94643,-5.1384 z"
             style="fill:#000000;fill-opacity:1;stroke:#000000;stroke-width:1px;stroke-linecap:butt;stroke-linejoin:miter;stroke-opacity:1" />
          <rect
             y="1086.6478"
             x="-227.85715"
             height="27.142857"
             width="37.857143"
             id="rect4348-13-1-1"
             style="fill:none;stroke:none" />
        </g>
        <g
           id="g4350-76-9-3"
           transform="matrix(1.2,0,0,1.2,-5.5714183,45.31336)"
           inkscape:export-filename="C:\S4L\VM\default\s4l\layout\inkscape\export\natural.png"
           inkscape:export-xdpi="78.753075"
           inkscape:export-ydpi="78.753075">
          <path
             inkscape:export-ydpi="78.753075"
             inkscape:export-xdpi="78.753075"
             inkscape:export-filename="C:\S4L\VM\default\s4l\layout\inkscape\export\natural.png"
             sodipodi:nodetypes="scccscccc"
             inkscape:connector-curvature="0"
             id="path4651-1-0-1-5-3-89"
             d="m -201.96472,1100.3612 c -2.66763,0.1377 -4.95048,2.0461 -5.24553,4.8572 -0.21412,2.8934 2.93318,4.5623 6.29018,3.2411 3.52174,-1.5056 4.52154,-4.173 3.44197,-5.9063 -1.26909,-1.7126 -2.88604,-2.2746 -4.48662,-2.192 z m 0.33929,1.1161 c 0.64946,0.01 1.46979,0.2252 2.55357,1.0759 2.10006,3.9209 -4.63236,7.5415 -6.5,4.0625 -1.21683,-2.4386 1.09006,-5.1858 3.94643,-5.1384 z"
             style="fill:#000000;fill-opacity:1;stroke:#000000;stroke-width:1px;stroke-linecap:butt;stroke-linejoin:miter;stroke-opacity:1" />
          <rect
             y="1086.6478"
             x="-227.85715"
             height="27.142857"
             width="37.857143"
             id="rect4348-13-1-3"
             style="fill:none;stroke:none" />
        </g>
        <g
           id="g4350-76-9-44"
           transform="matrix(1.2,0,0,1.2,12.14286,39.956217)"
           inkscape:export-filename="C:\S4L\VM\default\s4l\layout\inkscape\export\natural.png"
           inkscape:export-xdpi="78.753075"
           inkscape:export-ydpi="78.753075">
          <path
             inkscape:export-ydpi="78.753075"
             inkscape:export-xdpi="78.753075"
             inkscape:export-filename="C:\S4L\VM\default\s4l\layout\inkscape\export\natural.png"
             sodipodi:nodetypes="scccscccc"
             inkscape:connector-curvature="0"
             id="path4651-1-0-1-5-3-60"
             d="m -201.96472,1100.3612 c -2.66763,0.1377 -4.95048,2.0461 -5.24553,4.8572 -0.21412,2.8934 2.93318,4.5623 6.29018,3.2411 3.52174,-1.5056 4.52154,-4.173 3.44197,-5.9063 -1.26909,-1.7126 -2.88604,-2.2746 -4.48662,-2.192 z m 0.33929,1.1161 c 0.64946,0.01 1.46979,0.2252 2.55357,1.0759 2.10006,3.9209 -4.63236,7.5415 -6.5,4.0625 -1.21683,-2.4386 1.09006,-5.1858 3.94643,-5.1384 z"
             style="fill:#000000;fill-opacity:1;stroke:#000000;stroke-width:1px;stroke-linecap:butt;stroke-linejoin:miter;stroke-opacity:1" />
          <rect
             y="1086.6478"
             x="-227.85715"
             height="27.142857"
             width="37.857143"
             id="rect4348-13-1-66"
             style="fill:none;stroke:none" />
        </g>
      </g>
    </g>
  </g>
</svg>
