<?xml version="1.0" encoding="UTF-8" standalone="no"?>
<!-- Created with Inkscape (http://www.inkscape.org/) -->

<svg
   xmlns:dc="http://purl.org/dc/elements/1.1/"
   xmlns:cc="http://creativecommons.org/ns#"
   xmlns:rdf="http://www.w3.org/1999/02/22-rdf-syntax-ns#"
   xmlns:svg="http://www.w3.org/2000/svg"
   xmlns="http://www.w3.org/2000/svg"
   xmlns:sodipodi="http://sodipodi.sourceforge.net/DTD/sodipodi-0.dtd"
   xmlns:inkscape="http://www.inkscape.org/namespaces/inkscape"
   width="729.79761"
   height="729.79761"
   id="svg2"
   version="1.1"
   inkscape:version="0.48.5 r10040"
   sodipodi:docname="tools.svg">
  <defs
     id="defs4" />
  <sodipodi:namedview
     id="base"
     pagecolor="#ffffff"
     bordercolor="#666666"
     borderopacity="1.0"
     inkscape:pageopacity="0"
     inkscape:pageshadow="2"
     inkscape:zoom="0.7"
     inkscape:cx="429.53595"
     inkscape:cy="257.01785"
     inkscape:document-units="px"
     inkscape:current-layer="layer1"
     showgrid="false"
     inkscape:window-width="1680"
     inkscape:window-height="987"
     inkscape:window-x="1912"
     inkscape:window-y="-8"
     inkscape:window-maximized="1"
     fit-margin-top="0"
     fit-margin-left="0"
     fit-margin-right="0"
     fit-margin-bottom="0" />
  <metadata
     id="metadata7">
    <rdf:RDF>
      <cc:Work
         rdf:about="">
        <dc:format>image/svg+xml</dc:format>
        <dc:type
           rdf:resource="http://purl.org/dc/dcmitype/StillImage" />
        <dc:title />
      </cc:Work>
    </rdf:RDF>
  </metadata>
  <g
     inkscape:label="Capa 1"
     inkscape:groupmode="layer"
     id="layer1"
     transform="translate(-33.464264,-69.234161)">
    <rect
       style="fill:none;stroke:none"
       id="rect3773"
       width="729.79761"
       height="729.79761"
       x="33.464264"
       y="69.234161"
       inkscape:export-filename="C:\S4L\VM\default\s4l\zf2\public\img\configurationIcon.png"
       inkscape:export-xdpi="147.08366"
       inkscape:export-ydpi="147.08366" />
    <path
       style="fill:#ffffff;fill-opacity:1;fill-rule:nonzero;stroke:#000000;stroke-width:7.0568819;stroke-miterlimit:4;stroke-opacity:1;stroke-dasharray:none"
       d="m 332.83747,118.73453 -10.9936,51.95072 c -19.4848,5.656 -37.7824,12.93696 -55.01984,22.38944 l -45.34592,-28.57952 c -37.07008,24.34912 -67.94752,55.8112 -91.94944,92.34944 l 28.82208,44.92864 c -9.57088,17.41088 -17.4128,36.3168 -23.04544,55.568 l -52.462718,11.49152 c -8.06848,38.84512 -8.34848,79.65152 -1.0368,121.10496 0.5472,3.1616 0.9344,6.30176 1.6672,9.40928 l 51.949438,10.99296 c 5.66048,19.5072 13.05536,38.48864 22.51904,55.74432 l -28.70688,44.62272 c 24.34048,37.03456 55.83968,67.96416 92.3488,91.95008 l 45.05696,-28.0992 c 17.41696,9.57472 35.4576,16.816 54.71456,22.44896 l 11.48896,52.464 c 38.84704,8.06944 79.77728,9.07232 121.23328,1.7632 3.1648,-0.5472 7.00992,-1.1488 10.13728,-1.776 l 10.99264,-51.94944 c 19.50816,-5.66144 37.63648,-13.65152 54.89216,-23.11552 l 45.34656,28.5792 c 37.02528,-24.3376 67.96832,-55.84608 91.94912,-92.34816 l -28.82176,-44.9296 c 9.54656,-17.38368 17.55296,-35.62784 23.17248,-54.8432 l 51.73952,-11.36384 c 8.06848,-38.84448 9.07232,-79.7792 1.7632,-121.23232 -0.5472,-3.168 -0.9312,-6.3008 -1.6672,-9.41024 l -52.07776,-11.71648 c -5.65568,-19.48512 -12.93792,-37.78336 -22.3904,-55.0208 l 28.70624,-44.62272 c -24.34688,-37.05984 -55.9456,-68.67552 -92.47584,-92.672 l -44.9296,28.8224 c -17.43264,-9.58368 -35.56832,-17.53984 -54.84288,-23.17408 l -11.36064,-51.73952 c -38.84512,-8.06912 -80.50368,-8.944 -121.9568,-1.632 -3.168,0.5472 -6.30208,0.9344 -9.40992,1.6672 z m 34.68544,141.67808 c 95.95488,-16.9216 187.4576,47.15104 204.37696,143.10624 16.92064,95.95488 -47.15136,187.45728 -143.10656,204.37696 -95.95424,16.92 -187.45728,-47.1504 -204.37696,-143.10592 -16.92064,-95.95456 47.15168,-187.45824 143.10656,-204.37728 z"
       id="path3757"
       inkscape:connector-curvature="0"
       inkscape:export-filename="C:\S4L\VM\default\s4l\zf2\public\img\configurationIcon.png"
       inkscape:export-xdpi="147.08366"
       inkscape:export-ydpi="147.08366" />
  </g>
</svg>
