<?xml version="1.0" encoding="UTF-8" standalone="no"?>
<!-- Created with Inkscape (http://www.inkscape.org/) -->

<svg
   xmlns:dc="http://purl.org/dc/elements/1.1/"
   xmlns:cc="http://creativecommons.org/ns#"
   xmlns:rdf="http://www.w3.org/1999/02/22-rdf-syntax-ns#"
   xmlns:svg="http://www.w3.org/2000/svg"
   xmlns="http://www.w3.org/2000/svg"
   xmlns:sodipodi="http://sodipodi.sourceforge.net/DTD/sodipodi-0.dtd"
   xmlns:inkscape="http://www.inkscape.org/namespaces/inkscape"
   width="1052.3622"
   height="744.09448"
   id="svg2"
   version="1.1"
   inkscape:version="0.48.5 r10040"
   sodipodi:docname="iconTraining.svg">
  <defs
     id="defs4">
    <inkscape:path-effect
       effect="skeletal"
       id="path-effect4766"
       is_visible="true"
       pattern="M 0,0 1,0"
       copytype="single_stretched"
       prop_scale="1"
       scale_y_rel="false"
       spacing="0"
       normal_offset="0"
       tang_offset="0"
       prop_units="false"
       vertical_pattern="false"
       fuse_tolerance="0" />
    <inkscape:path-effect
       effect="skeletal"
       id="path-effect4762"
       is_visible="true"
       pattern="M 0,0 1,0"
       copytype="single_stretched"
       prop_scale="1"
       scale_y_rel="false"
       spacing="0"
       normal_offset="0"
       tang_offset="0"
       prop_units="false"
       vertical_pattern="false"
       fuse_tolerance="0" />
    <inkscape:path-effect
       effect="skeletal"
       id="path-effect4758"
       is_visible="true"
       pattern="M 0,0 1,0"
       copytype="single_stretched"
       prop_scale="1"
       scale_y_rel="false"
       spacing="0"
       normal_offset="0"
       tang_offset="0"
       prop_units="false"
       vertical_pattern="false"
       fuse_tolerance="0" />
    <inkscape:path-effect
       effect="skeletal"
       id="path-effect4754"
       is_visible="true"
       pattern="M 0,0 1,0"
       copytype="single_stretched"
       prop_scale="1"
       scale_y_rel="false"
       spacing="0"
       normal_offset="0"
       tang_offset="0"
       prop_units="false"
       vertical_pattern="false"
       fuse_tolerance="0" />
    <inkscape:path-effect
       effect="skeletal"
       id="path-effect4750"
       is_visible="true"
       pattern="M 0,0 1,0"
       copytype="single_stretched"
       prop_scale="1"
       scale_y_rel="false"
       spacing="0"
       normal_offset="0"
       tang_offset="0"
       prop_units="false"
       vertical_pattern="false"
       fuse_tolerance="0" />
    <inkscape:path-effect
       effect="skeletal"
       id="path-effect4746"
       is_visible="true"
       pattern="M 0,0 1,0"
       copytype="single_stretched"
       prop_scale="1"
       scale_y_rel="false"
       spacing="0"
       normal_offset="0"
       tang_offset="0"
       prop_units="false"
       vertical_pattern="false"
       fuse_tolerance="0" />
    <inkscape:path-effect
       effect="skeletal"
       id="path-effect4742"
       is_visible="true"
       pattern="M 0,0 1,0"
       copytype="single_stretched"
       prop_scale="1"
       scale_y_rel="false"
       spacing="0"
       normal_offset="0"
       tang_offset="0"
       prop_units="false"
       vertical_pattern="false"
       fuse_tolerance="0" />
    <inkscape:path-effect
       effect="skeletal"
       id="path-effect4738"
       is_visible="true"
       pattern="M 0,0 1,0"
       copytype="single_stretched"
       prop_scale="1"
       scale_y_rel="false"
       spacing="0"
       normal_offset="0"
       tang_offset="0"
       prop_units="false"
       vertical_pattern="false"
       fuse_tolerance="0" />
    <inkscape:path-effect
       effect="skeletal"
       id="path-effect4660"
       is_visible="true"
       pattern="M 0,0 1,0"
       copytype="single_stretched"
       prop_scale="1"
       scale_y_rel="false"
       spacing="0"
       normal_offset="0"
       tang_offset="0"
       prop_units="false"
       vertical_pattern="false"
       fuse_tolerance="0" />
    <inkscape:path-effect
       effect="skeletal"
       id="path-effect4656"
       is_visible="true"
       pattern="M 0,0 1,0"
       copytype="single_stretched"
       prop_scale="1"
       scale_y_rel="false"
       spacing="0"
       normal_offset="0"
       tang_offset="0"
       prop_units="false"
       vertical_pattern="false"
       fuse_tolerance="0" />
    <inkscape:path-effect
       effect="skeletal"
       id="path-effect4652"
       is_visible="true"
       pattern="M 0,0 1,0"
       copytype="single_stretched"
       prop_scale="1"
       scale_y_rel="false"
       spacing="0"
       normal_offset="0"
       tang_offset="0"
       prop_units="false"
       vertical_pattern="false"
       fuse_tolerance="0" />
    <inkscape:path-effect
       effect="skeletal"
       id="path-effect4648"
       is_visible="true"
       pattern="M 0,0 1,0"
       copytype="single_stretched"
       prop_scale="1"
       scale_y_rel="false"
       spacing="0"
       normal_offset="0"
       tang_offset="0"
       prop_units="false"
       vertical_pattern="false"
       fuse_tolerance="0" />
  </defs>
  <sodipodi:namedview
     id="base"
     pagecolor="#ffffff"
     bordercolor="#666666"
     borderopacity="1.0"
     inkscape:pageopacity="0.0"
     inkscape:pageshadow="2"
     inkscape:zoom="0.49497475"
     inkscape:cx="365.15922"
     inkscape:cy="232.90678"
     inkscape:document-units="px"
     inkscape:current-layer="layer1"
     showgrid="false"
     showguides="true"
     inkscape:guide-bbox="true"
     inkscape:snap-global="false"
     inkscape:window-width="1366"
     inkscape:window-height="705"
     inkscape:window-x="-8"
     inkscape:window-y="-8"
     inkscape:window-maximized="1">
    <sodipodi:guide
       orientation="0,1"
       position="270.72088,634.3758"
       id="guide2987" />
    <sodipodi:guide
       orientation="0,1"
       position="1040,131.42857"
       id="guide2989" />
    <sodipodi:guide
       orientation="1,0"
       position="127.85714,739.28572"
       id="guide2991" />
    <sodipodi:guide
       orientation="1,0"
       position="943.48248,917.21851"
       id="guide2993" />
  </sodipodi:namedview>
  <metadata
     id="metadata7">
    <rdf:RDF>
      <cc:Work
         rdf:about="">
        <dc:format>image/svg+xml</dc:format>
        <dc:type
           rdf:resource="http://purl.org/dc/dcmitype/StillImage" />
        <dc:title></dc:title>
      </cc:Work>
    </rdf:RDF>
  </metadata>
  <g
     inkscape:label="Capa 1"
     inkscape:groupmode="layer"
     id="layer1"
     transform="translate(0,-308.2677)">
    <rect
       style="fill:#004804;fill-opacity:1;stroke:#000000;stroke-opacity:1"
       id="rect4539"
       width="50"
       height="50"
       x="-250.38838"
       y="879.81335" />
    <rect
       style="fill:#004804;fill-opacity:1;stroke:#000000;stroke-opacity:1"
       id="rect4539-1"
       width="50"
       height="50"
       x="-250.38838"
       y="957.83936" />
    <rect
       style="fill:#004804;fill-opacity:1;stroke:#000000;stroke-opacity:1"
       id="rect4539-7"
       width="50"
       height="50"
       x="-250.38838"
       y="255.60559" />
    <rect
       style="fill:#d3edd4;fill-opacity:1;stroke:#000000;stroke-opacity:1"
       id="rect4539-4"
       width="50"
       height="50"
       x="-250.38838"
       y="333.63159" />
    <rect
       style="fill:#ffffff;fill-opacity:1;stroke:#000000;stroke-opacity:1"
       id="rect4539-0"
       width="50"
       height="50"
       x="-250.38838"
       y="411.65753" />
    <rect
       style="fill:#000000;fill-opacity:1;stroke:#000000;stroke-opacity:1"
       id="rect4539-9"
       width="50"
       height="50"
       x="-250.38838"
       y="489.68353" />
    <rect
       style="fill:#5e0063;fill-opacity:1;stroke:#000000;stroke-opacity:1"
       id="rect4539-48"
       width="50"
       height="50"
       x="-250.38838"
       y="567.70947" />
    <rect
       style="fill:#e6c1e6;fill-opacity:1;stroke:#000000;stroke-opacity:1"
       id="rect4539-8"
       width="50"
       height="50"
       x="-250.38838"
       y="645.73547" />
    <rect
       style="fill:#004804;fill-opacity:1;stroke:#000000;stroke-opacity:1"
       id="rect4539-2"
       width="50"
       height="50"
       x="-250.38838"
       y="723.76147" />
    <rect
       style="fill:#004804;fill-opacity:1;stroke:#000000;stroke-opacity:1"
       id="rect4539-45"
       width="50"
       height="50"
       x="-250.38838"
       y="801.78741" />
    <path
       style="fill:#004804;fill-rule:evenodd;stroke:none"
       d="m 348.57143,345.52305 c 0.31539,-7.48301 3.43346,-14.67062 7.85714,-20.71428 4.34181,-5.93181 10.64055,-10.1425 17.14286,-13.57143 6.43434,-3.39308 13.47566,-5.71019 20.71428,-6.42857 1e-5,0 1e-5,0 2e-5,0 6.95654,-0.69039 14.06878,-0.0268 20.71427,2.14286 6.33276,2.06757 12.16844,5.56899 17.14286,10 0,0 1e-5,10e-6 1e-5,10e-6 6.27101,5.58594 11.65946,12.29485 14.99999,19.99999 3.3035,7.61973 5.04911,16.01584 4.28571,24.28571 -0.75649,8.19509 -3.7874,16.16051 -8.57143,22.85714 -3.06519,4.29061 -7.8163,6.98575 -12.14285,10 -5.46592,3.80804 -10.65943,8.46947 -17.14286,10 -7.94022,1.42161 -16.23409,0.13801 -23.68246,-2.95871 -7.7484,-3.22146 -14.67835,-8.23837 -20.62846,-14.15543 -5.94123,-5.90823 -10.96765,-12.75104 -14.72299,-20.24121 -10e-6,0 -10e-6,-10e-6 -10e-6,-10e-6 -3.31763,-6.61714 -5.73038,-13.81758 -5.96608,-21.21607 z"
       id="path4764"
       inkscape:path-effect="#path-effect4766"
       inkscape:original-d="m 348.57143,345.52305 c 0.31097,-7.37824 3.49539,-14.75523 7.85714,-20.71428 4.3047,-5.88111 10.69612,-10.17181 17.14286,-13.57143 6.39493,-3.3723 13.51999,-5.71459 20.71428,-6.42857 6.90768,-0.68554 14.11548,-0.0116 20.71429,2.14286 6.28876,2.05321 12.203,5.59978 17.14286,10 6.22264,5.54286 11.68524,12.3543 15,20 3.26981,7.54202 5.04132,16.10019 4.28571,24.28571 -0.74796,8.1027 -3.84134,16.23601 -8.57143,22.85714 -3.04803,4.26659 -7.84052,7.00262 -12.14285,10 -5.42802,3.78164 -10.70438,8.48008 -17.14286,10 -32.34531,5.79106 -64.15048,-31.90496 -65,-58.57143 z"
       inkscape:connector-curvature="0"
       transform="translate(0,308.2677)"
       sodipodi:nodetypes="caaaaaaaaacc" />
    <path
       style="fill:#2a002c;fill-rule:evenodd;stroke:none;fill-opacity:1"
       d="m 529.28571,344.09448 -14.28571,10 -13.57143,22.85715 1.42857,7.85714 -13.57143,10.71428 -10e-6,3e-5 -4.99999,10.71426 -0.71428,10.71429 -1.42857,10 -3e-5,-2e-5 -22.85712,-14.2857 -16.42857,-3.57143 -20,-20 L 415,378.3802 l -2.85714,-22.85715 -10e-6,-3e-5 -3.57142,-14.99997 -7.14286,-2.85714 -5,3.57143 -2.85714,2.85714 -2e-5,-3e-5 -3.57141,-4.99997 -5.71429,1.42857 -1.42856,4.28569 -10e-6,3e-5 -6.42857,4.28571 -3.57143,4.28572 -2.85714,12.14285 3.57143,16.42858 15,4.28571 12.85714,5.71429 12.14284,15.71425 2e-5,3e-5 23.57143,25.71429 17.14285,21.42857 24.28572,16.42857 15,16.42857 12.14286,5 33.57142,-38.57143 15.71429,-30 16.42857,-7.14285 z"
       id="path4748"
       inkscape:path-effect="#path-effect4750"
       inkscape:original-d="m 529.28571,344.09448 -14.28571,10 -13.57143,22.85715 1.42857,7.85714 -13.57143,10.71428 -5,10.71429 -0.71428,10.71429 -1.42857,10 -22.85715,-14.28572 -16.42857,-3.57143 -20,-20 L 415,378.3802 l -2.85714,-22.85715 -3.57143,-15 -7.14286,-2.85714 -5,3.57143 -2.85714,2.85714 -3.57143,-5 -5.71429,1.42857 -1.42857,4.28572 -6.42857,4.28571 -3.57143,4.28572 -2.85714,12.14285 3.57143,16.42858 15,4.28571 12.85714,5.71429 12.14286,15.71428 23.57143,25.71429 17.14285,21.42857 24.28572,16.42857 15,16.42857 12.14286,5 33.57142,-38.57143 15.71429,-30 16.42857,-7.14285 z"
       inkscape:connector-curvature="0"
       transform="translate(0,308.2677)" />
    <path
       style="fill:#000000;fill-rule:evenodd;stroke:none"
       d="M 475.71429,450.52305 442.85714,431.23734 428.57143,424.09448 410,396.95163 l -0.71429,-12.85707 0,-8e-5 -5.71428,-16.42857 -7e-5,-4e-5 L 385,355.52305 l -15.71429,2.14286 -9.99998,23.57139 -2e-5,4e-5 6.42858,17.85714 15.71421,10.71424 7e-5,5e-5 9.28572,2.14286 18.57142,31.42857 22.14284,29.28568 2e-5,3e-5 37.85714,34.28572 8.5714,7.14282 3e-5,3e-5 18.57143,-11.42857 22.85714,-25.71428 27.85715,-26.42858 7.85714,-16.42857 22.8571,2.85715 4e-5,0 24.99997,20.71425 3e-5,3e-5 22.85715,49.28572 2e-5,8e-5 6.42855,21.42849 2.85714,19.28571 -0.71429,11.42857 118.57135,-0.71428 8e-5,0 c 1.7415,-16.10759 1.91022,-32.59359 -2.10024,-48.29083 -3.88888,-15.22136 -11.53233,-29.21784 -20.04261,-42.42346 l -30,-50.71428 -26.42858,-40 c -6.7452,-13.01749 -15.72836,-24.89962 -26.64989,-34.68087 -9.85308,-8.82435 -21.14431,-15.92203 -32.87992,-22.0235 -11.80195,-6.13596 -24.05318,-11.35516 -36.15072,-16.8856 -12.51335,-5.72053 -24.89722,-11.81353 -36.46232,-19.26718 l -10.71429,-17.85714 c -1.81022,-5.28267 -3.6467,-10.57437 -6.0878,-15.59676 -10e-6,-3e-5 -3e-5,-5e-5 -4e-5,-8e-5 -1.68764,-3.47219 -3.73907,-6.81559 -6.49584,-9.51825 -2.65945,-2.60726 -5.91861,-4.53116 -9.31111,-6.06784 -10e-6,-1e-5 -3e-5,-1e-5 -4e-5,-2e-5 -4.69417,-2.12629 -9.62304,-3.68313 -14.53374,-5.24562 -6.98871,-0.51431 -14.04163,-0.64087 -20.98088,0.33551 -5.43751,0.76508 -10.79263,2.28894 -15.67566,4.8005 -4.77238,2.45465 -9.04222,5.80579 -12.8831,9.55392 -4.60422,4.49304 -8.66965,9.50528 -12.60322,14.59578 -2e-5,2e-5 -3e-5,4e-5 -5e-5,6e-5 -2.61736,3.61833 -5.36872,7.13945 -7.93238,10.79603 -1.89198,2.69854 -3.74115,5.48884 -4.77806,8.61719 -0.85726,2.58631 -0.92722,5.44498 -0.03,8.01769 1.21635,3.48762 3.70008,6.3858 6.31188,8.9976 0.7939,1.01737 1.99844,1.63338 3.19161,2.12496 1.46442,0.60334 3.04357,0.97218 4.62667,0.92378 1.46805,-0.0449 2.98922,-0.54566 3.93182,-1.67202 1.26913,-1.51654 1.35232,-3.70009 1.10705,-5.66235 0,-3e-5 -1e-5,-5e-5 -1e-5,-8e-5 l 14.99998,25.35711 2e-5,3e-5 c 2.9498,0.36365 5.82108,1.66367 7.80426,3.87738 1.78317,1.99044 2.88092,4.49513 3.78574,7.00965 0,2e-5 10e-6,3e-5 10e-6,4e-5 0.86478,2.40328 1.53138,4.88709 2.6336,7.19116 0.47202,0.98669 1.03538,1.94062 1.78043,2.74142 2e-5,2e-5 4e-5,4e-5 5e-5,6e-5 0.70422,0.75691 1.58655,1.35336 2.56734,1.68029 l 4.28572,-4.28571 c 1.19542,1.82399 2.353,3.70517 3.92484,5.21688 1.43796,1.38295 3.36581,2.28312 5.36087,2.28312 0.32966,2.05116 1.24166,4.20151 3.12596,5.07634 1.89607,0.8803 4.07645,0.82149 6.15968,0.99508 3e-5,10e-6 5e-5,10e-6 8e-5,10e-6 2.95568,2.13613 5.02319,5.24676 7.14285,8.21428 4.20629,0.0472 8.33789,-1.60681 11.5408,-4.33379 3.25167,-2.76849 5.77583,-6.27252 8.4592,-9.59478 L 525,341.95163 l 4.99997,4.64282 3e-5,3e-5 -6.42857,4.28572 -10.71429,7.85714 -6.78571,10 -5,15 -2.5,15.35714 -0.71429,5.71429 -7e-5,5e-5 -14.64278,10.35709 -3.21429,9.64286 -2.14286,15.35714 0.35715,6.42857 z"
       id="path4740"
       inkscape:path-effect="#path-effect4742"
       inkscape:original-d="M 475.71429,450.52305 442.85714,431.23734 428.57143,424.09448 410,396.95163 409.28571,384.09448 403.57143,367.66591 385,355.52305 l -15.71429,2.14286 -10,23.57143 6.42858,17.85714 15.71428,10.71429 9.28572,2.14286 18.57142,31.42857 22.14286,29.28571 37.85714,34.28572 8.57143,7.14285 18.57143,-11.42857 22.85714,-25.71428 27.85715,-26.42858 7.85714,-16.42857 22.85714,2.85715 25,20.71428 22.85715,49.28572 6.42857,21.42857 2.85714,19.28571 -0.71429,11.42857 118.57143,-0.71428 c 4.16123,-38.48823 -2.38092,-60.04922 -22.14285,-90.71429 l -30,-50.71428 -26.42858,-40 C 644.22107,318.93024 589.65182,314.71376 542.14286,284.09448 L 531.42857,266.23734 C 522.51355,240.2211 518.92996,237.42285 495,229.80877 c -32.62807,-2.40113 -44.40841,6.33525 -62.14286,29.28571 -11.97117,16.54934 -19.78062,23.07654 -6.42857,36.42857 2.35214,3.01424 14.2109,6.54431 12.85714,-4.28571 l 15,25.35714 c 14.35864,1.77015 10.35758,19.76204 18.57143,22.5 l 4.28572,-4.28571 c 2.56367,3.91168 4.80734,7.5 9.28571,7.5 0.94138,5.85721 4.29928,5.65589 9.28572,6.07143 3.04814,2.20296 4.99216,5.20332 7.14285,8.21428 9.68667,0.10873 14.42214,-7.02265 20,-13.92857 L 525,341.95163 l 5,4.64285 -6.42857,4.28572 -10.71429,7.85714 -6.78571,10 -5,15 -2.5,15.35714 -0.71429,5.71429 -14.64285,10.35714 -3.21429,9.64286 -2.14286,15.35714 0.35715,6.42857 z"
       inkscape:connector-curvature="0"
       transform="translate(0,308.2677)"
       sodipodi:nodetypes="cccccccccccccccccccccccccccccccccccccccccccccccccccccccc" />
    <path
       style="fill:#004804;fill-rule:evenodd;stroke:none"
       d="m 334.61769,344.78553 c -24.92618,19.2681 -42.15406,46.70582 -21.00443,92.15197 16.09861,34.59255 71.97657,42.07535 100.5395,19.33947 16.619,-13.22861 26.57678,-34.59981 25.2914,-54.62342 C 438.06353,380.14621 423.70543,357.64165 405,346.9375 384.62803,335.27967 353.18802,330.43056 334.61769,344.78553 z"
       id="path4752"
       transform="translate(0,308.2677)"
       inkscape:connector-curvature="0"
       sodipodi:nodetypes="assaaa" />
    <path
       style="fill:#004804;fill-rule:evenodd;stroke:none"
       d="m 472.85714,537.66591 11.42857,14.28572 7.14286,2.85714 34.2857,-30.71427 2e-5,-2e-5 45.71427,-42.14284 1e-5,-10e-6 5.71429,2.14285 c 5.75125,11.7147 8.71069,24.55784 12.83635,36.93888 1.7615,5.28622 3.78738,10.53293 6.77655,15.23526 2.78562,4.38212 6.54499,8.19264 11.10138,10.68301 6.42649,-4.39927 12.68623,-9.43628 16.62448,-16.15518 0,0 10e-6,-1e-5 10e-6,-2e-5 1.49664,-2.55335 2.58948,-5.34936 3.14535,-8.25634 0.55732,-2.91462 0.58191,-5.91663 0.23983,-8.86428 -0.84981,-7.32282 -3.64873,-14.27162 -6.61964,-21.01844 -4.15124,-9.42731 -8.88094,-18.58712 -13.39003,-27.8486 -4.23191,-4.00246 -7.21663,-9.11731 -10.9126,-13.61937 -10e-6,0 -10e-6,-10e-6 -10e-6,-10e-6 -1.79158,-2.18232 -3.79316,-4.21812 -6.13181,-5.8002 -2.59465,-1.75527 -5.58429,-2.89665 -8.66985,-3.43756 0,0 -10e-6,0 -10e-6,0 -5.91996,0.0391 -11.79735,1.21568 -17.42129,3.06467 -6.17294,2.02948 -12.06412,4.85866 -17.67957,8.12832 -12.31263,7.16918 -23.35721,16.36797 -33.46855,26.40583 -10e-6,0 -10e-6,10e-6 -2e-5,10e-6 -9.7583,9.68738 -18.68686,20.2238 -26.50525,31.53497 -10e-6,1e-5 -10e-6,1e-5 -2e-5,2e-5 -3.24025,4.6878 -6.28899,9.51407 -8.97547,14.53976 -2.06636,3.86563 -3.9641,7.8459 -5.23555,12.0407 z"
       id="path4744"
       inkscape:path-effect="#path-effect4746"
       inkscape:original-d="m 472.85714,537.66591 11.42857,14.28572 7.14286,2.85714 34.28572,-30.71429 45.71428,-42.14285 5.71429,2.14285 c 12.32494,25.10461 11.66724,52.44668 30.71428,62.85715 32.4297,-22.19986 20.92943,-39.1547 0,-82.14286 -8.76235,-8.28726 -11.76652,-20.41204 -25.71428,-22.85714 -45.52005,0.30048 -100.90314,68.05827 -109.28572,95.71428 z"
       inkscape:connector-curvature="0"
       transform="translate(0,308.2677)"
       sodipodi:nodetypes="cccccccccc" />
  </g>
</svg>
